<?xml version="1.0" encoding="UTF-8"?>
<svg viewBox="0 0 117 117" xmlns="http://www.w3.org/2000/svg">
<g clip-path="url(#a)" clip-rule="evenodd">
<path d="m33.954 14.622c-10.716 0-19.402 8.6866-19.402 19.402v48.505c0 10.716 8.6866 19.402 19.402 19.402h48.505c10.716 0 19.402-8.6868 19.402-19.402v-48.505c0-10.716-8.6866-19.402-19.402-19.402h-48.505zm-29.103 19.402c0-16.073 13.03-29.103 29.103-29.103h48.505c16.073 0 29.103 13.03 29.103 29.103v48.505c0 16.073-13.03 29.103-29.103 29.103h-48.505c-16.073 0-29.103-13.03-29.103-29.103v-48.505z"/>
<path d="m60.55 43.673c-3.0276-0.449-6.1197 0.0682-8.8365 1.4779-2.7168 1.4096-4.9199 3.6401-6.2959 6.374-1.3761 2.734-1.8551 5.8322-1.3688 8.8541 0.4862 3.0218 1.913 5.8134 4.0772 7.9777 2.1643 2.1642 4.9559 3.591 7.9777 4.0772 3.0219 0.4863 6.1201 0.0073 8.8541-1.3688 2.7339-1.376 4.9644-3.5791 6.374-6.2959 1.4097-2.7168 1.9269-5.8089 1.4779-8.8365-0.458-3.0883-1.897-5.9474-4.1047-8.155-2.2076-2.2077-5.0667-3.6467-8.155-4.1047zm-13.304-7.133c4.5279-2.3495 9.6814-3.2114 14.728-2.4631 5.1471 0.7633 9.9123 3.1617 13.592 6.8411s6.0778 8.4446 6.8411 13.592c0.7483 5.0461-0.1136 10.2-2.4631 14.728-2.3495 4.528-6.0669 8.1998-10.623 10.493-4.5566 2.2935-9.7204 3.0918-14.757 2.2814-5.0364-0.8105-9.6891-3.1883-13.296-6.7954s-5.9849-8.2598-6.7954-13.296c-0.8104-5.0364-0.0121-10.2 2.2814-14.757 2.2934-4.5565 5.9652-8.2739 10.493-10.623z"/>
</g>
<defs>
<clipPath id="a">
<rect transform="translate(0 .071289)" width="116.41" height="116.41"/>
</clipPath>
</defs>
</svg>
