<?xml version="1.0" encoding="UTF-8"?>
<svg viewBox="0 0 118 117" xmlns="http://www.w3.org/2000/svg">
<path d="m78.542 43.726c-6.4322 0-12.601 2.5552-17.149 7.1035-4.5482 4.5482-7.1034 10.717-7.1034 17.149v29.103h9.7011v-29.103c0-3.8593 1.5331-7.5605 4.262-10.29 2.729-2.7289 6.4302-4.262 10.29-4.262s7.5606 1.5331 10.29 4.262c2.729 2.729 4.2621 6.4302 4.2621 10.29v29.103h9.7009v-29.103c0-6.4321-2.555-12.601-7.1033-17.149-4.5482-4.5483-10.717-7.1035-17.149-7.1035zm0-9.701c-9.0051 0-17.641 3.5773-24.009 9.9448-6.3676 6.3675-9.9448 15.004-9.9448 24.009v33.954c0 2.679 2.1716 4.851 4.8505 4.851h19.402c2.6788 0 4.8505-2.172 4.8505-4.851v-33.954c0-1.2864 0.511-2.5201 1.4207-3.4298 0.9096-0.9096 2.1434-1.4207 3.4298-1.4207s2.5202 0.5111 3.4299 1.4207c0.9096 0.9097 1.4206 2.1434 1.4206 3.4298v33.954c0 2.679 2.1717 4.851 4.8506 4.851h19.402c2.679 0 4.85-2.172 4.85-4.851v-33.954c0-9.005-3.577-17.641-9.945-24.009-6.3672-6.3675-15.003-9.9448-24.008-9.9448z" clip-rule="evenodd" fill-rule="evenodd"/>
<path d="m5.7847 43.726c0-2.6789 2.1716-4.8505 4.8505-4.8505h19.402c2.6788 0 4.8505 2.1716 4.8505 4.8505v58.206c0 2.679-2.1717 4.851-4.8505 4.851h-19.402c-2.6789 0-4.8505-2.172-4.8505-4.851v-58.206zm9.701 4.8505v48.505h9.7011v-48.505h-9.7011z" clip-rule="evenodd"  fill-rule="evenodd"/>
<path d="m20.336 14.622c-2.6788 0-4.8505 2.1717-4.8505 4.8505 0 2.6789 2.1717 4.8506 4.8505 4.8506 2.6789 0 4.8506-2.1717 4.8506-4.8506 0-2.6788-2.1717-4.8505-4.8506-4.8505zm-14.552 4.8505c0-8.0366 6.5149-14.552 14.552-14.552s14.552 6.5149 14.552 14.552c0 8.0367-6.515 14.552-14.552 14.552s-14.552-6.5149-14.552-14.552z" clip-rule="evenodd" fill-rule="evenodd"/>
</svg>
