<svg width="1080" height="1080" viewBox="0 0 1080 1080" fill="none" xmlns="http://www.w3.org/2000/svg">
<g clip-path="url(#clip0)">
<path d="M528.788 909.466C528.788 857.807 486.914 815.933 435.264 815.933C383.606 815.933 341.731 857.807 341.731 909.456C341.731 961.115 383.606 1002.99 435.264 1002.99C486.886 1002.93 528.733 961.096 528.788 909.466V909.466ZM374.905 909.466C374.905 876.125 401.924 849.107 435.264 849.107C468.596 849.107 495.614 876.125 495.614 909.456C495.614 942.797 468.596 969.816 435.264 969.816C401.942 969.778 374.942 942.778 374.905 909.466V909.466Z" fill="#86868B"/>
<path d="M781.589 1002.99C833.248 1003 875.122 961.124 875.122 909.466C875.131 857.807 833.257 815.933 781.598 815.933C729.94 815.933 688.065 857.807 688.065 909.466C688.13 961.087 729.959 1002.92 781.589 1002.99V1002.99ZM781.589 849.107C814.92 849.107 841.948 876.125 841.948 909.456C841.958 942.788 814.93 969.816 781.598 969.816C748.267 969.816 721.239 942.797 721.239 909.466C721.276 876.153 748.276 849.153 781.589 849.107V849.107Z" fill="#86868B"/>
<path d="M65.5869 108.242H166.765C200.059 108.112 228.447 132.354 233.52 165.268L313.612 671.196C321.175 720.253 363.493 756.398 413.134 756.203H908.203C917.358 756.203 924.79 748.771 924.79 739.616C924.79 730.453 917.358 723.03 908.203 723.03H413.134C379.839 723.159 351.451 698.908 346.379 666.003L332.763 579.986H839.801C882.731 579.968 920.94 552.774 935.009 512.223L1029.08 240.724C1030.85 235.652 1030.04 230.042 1026.93 225.664C1023.81 221.295 1018.78 218.694 1013.41 218.694H275.561L266.286 160.076C258.724 111.019 216.405 74.8738 166.765 75.0682H65.5869C56.4234 75.0682 49 82.5008 49 91.655C49 100.819 56.4234 108.242 65.5869 108.242V108.242ZM990.101 251.877L903.668 501.356C894.227 528.56 868.597 546.803 839.801 546.813H327.506L280.809 251.868L990.101 251.877Z" fill="#86868B"/>
</g>
<defs>
<clipPath id="clip0">
<rect width="981" height="981" fill="white" transform="translate(49 49)"/>
</clipPath>
</defs>
</svg>
