<svg width="1080" height="1080" viewBox="0 0 1080 1080" fill="none" xmlns="http://www.w3.org/2000/svg">
<path d="M1017.82 348.022L807.99 277.108C800.373 274.545 792.108 278.622 789.532 286.241C786.957 293.859 791.046 302.124 798.665 304.699L1006.49 374.937L908.663 422.631C904.602 419.891 900.043 417.788 895.1 416.497L601.668 339.809C592.341 291.825 533.261 271.685 496.972 305.835C484.412 317.655 477.209 334.322 477.209 351.565V351.883C477.312 372.186 494.116 388.702 514.671 388.702H565.333C578.415 388.702 591.499 381.876 598.284 369.025L871.928 440.543C785.464 482.697 591.363 577.329 566.62 589.394C549.154 597.907 529.694 597.348 513.38 589.394L73.5068 374.937L520.55 223.852C533.09 219.612 546.908 219.612 559.448 223.852L733.985 282.841C741.605 285.414 749.866 281.331 752.443 273.708C755.017 266.09 750.928 257.825 743.31 255.25L568.773 196.261C550.216 189.992 529.782 189.992 511.224 196.261L62.178 348.022C38.3206 356.091 36.1675 389.134 58.8425 400.187L289.297 512.542C276.619 572.817 257.262 637.708 236.224 695.305C227.611 718.86 235.032 745.063 254.684 760.509C321.19 812.781 399.772 853.161 480.312 879.117C518.16 891.312 560.362 891.781 599.678 879.117C680.244 853.149 758.832 812.754 825.304 760.509C845.028 745.003 852.348 718.788 843.764 695.305C823.17 638.986 803.549 573.671 790.693 512.548L899.096 459.698V678.857C880.568 680.276 865.917 695.771 865.917 714.657V757.09C865.917 763.395 868.654 769.058 872.984 773.003L867.575 854.784C866.519 870.761 879.222 884.34 895.24 884.34H932.078C948.088 884.34 960.797 870.766 959.741 854.784L954.334 773.003C958.663 769.058 961.401 763.396 961.401 757.09V714.655C961.401 695.769 946.748 680.274 928.22 678.855V459.382C928.22 454.906 927.516 450.571 926.257 446.455L1021.16 400.189C1043.8 389.147 1041.72 356.102 1017.82 348.022V348.022ZM565.333 359.58H514.671C510.172 359.58 506.353 355.988 506.332 351.81V351.565C506.332 342.184 510.095 333.476 516.931 327.042C537.901 307.306 572.266 321.512 573.627 349.897C573.951 356.695 569.575 359.58 565.333 359.58V359.58ZM800.018 657.873C721.344 719.446 609.695 763.494 571.237 770.825C563.337 772.331 558.155 779.958 559.662 787.856C561.168 795.758 568.816 800.94 576.693 799.431C616.919 791.76 727.133 748.928 809.871 687.011C811.906 692.814 814.263 699.421 816.412 705.302C820.683 716.99 817.024 729.971 807.308 737.611C728.89 799.241 646.257 833.505 590.745 851.392C557.588 862.08 521.575 861.816 489.245 851.392C433.733 833.503 351.1 799.241 272.682 737.611C262.968 729.975 259.303 716.996 263.58 705.3C263.665 705.067 263.749 704.831 263.834 704.598C265.95 698.8 268.296 692.22 270.119 687.007C350.902 747.443 460.815 791.335 503.284 799.437C511.193 800.94 518.81 795.762 520.317 787.864C521.823 779.963 516.641 772.337 508.743 770.831C472.437 763.909 360.405 720.794 279.972 657.871C291.798 621.706 305.501 575.23 316.273 525.694L500.616 615.567C525.161 627.535 553.88 628.003 579.383 615.567L763.715 525.698C774.487 575.232 788.19 621.708 800.018 657.873V657.873ZM896.731 855.215L901.796 778.643H925.518L930.581 855.215H896.731ZM932.276 714.653V749.519H895.04V714.653C895.04 710.958 898.16 707.836 901.856 707.836H925.458C929.152 707.838 932.276 710.958 932.276 714.653V714.653Z" fill="#86868B"/>
</svg>
