<svg width="1080" height="1080" viewBox="0 0 1080 1080" fill="none" xmlns="http://www.w3.org/2000/svg">
<path d="M957.6 266.452H900V194.452C900.029 186.499 893.605 180.028 885.65 180.001C885.229 179.999 884.81 180.017 884.39 180.052L846.821 183.22C755.714 190.754 666.355 212.543 582.005 247.789L540 265.256L498.038 247.847C413.68 212.596 324.31 190.803 233.194 183.263L195.61 180.052C187.684 179.384 180.718 185.266 180.05 193.192C180.014 193.611 179.998 194.032 180 194.452V266.452H122.4C114.448 266.452 108 272.899 108 280.852V885.652C108 893.604 114.448 900.052 122.4 900.052H957.6C965.552 900.052 972 893.604 972 885.652V280.852C972 272.899 965.552 266.452 957.6 266.452ZM136.8 871.281V295.252H180V799.252C179.973 806.751 185.704 813.015 193.176 813.652L231.926 816.964C242.487 817.848 253.046 818.937 263.606 820.233C267.134 820.65 270.634 821.212 274.162 821.673C281.146 822.609 288.13 823.545 295.085 824.653C299.232 825.316 303.365 826.093 307.498 826.828C313.805 827.937 320.112 829.045 326.39 830.284C330.71 831.148 335.03 832.098 339.35 833.034C345.413 834.33 351.475 835.655 357.509 837.095C361.829 838.132 366.221 839.241 370.57 840.349C376.517 841.876 382.45 843.431 388.368 845.073C392.688 846.282 397.008 847.549 401.328 848.816C407.203 850.553 413.064 852.359 418.91 854.231C423.193 855.594 427.464 856.996 431.726 858.436C437.616 860.409 443.462 862.482 449.309 864.599C453.456 866.039 457.618 867.609 461.736 869.178C463.522 869.855 465.293 870.618 467.064 871.281H136.8ZM525.6 864.052L499.046 852.964C414.752 817.648 325.436 795.781 234.36 788.164L208.8 786.033V210.119L230.774 211.962C318.913 219.245 405.362 240.319 486.965 274.415L525.6 290.456V864.052ZM554.4 864.052V290.456L593.078 274.4C674.667 240.312 761.101 219.243 849.226 211.962L871.2 210.119V785.989L847.541 787.919C756.409 795.484 667.013 817.221 582.581 852.345L554.4 864.052ZM943.2 871.252H613.152C615.125 870.489 617.083 869.682 619.056 868.933C623.376 867.277 627.696 865.708 632.117 864.138C637.762 862.093 643.43 860.111 649.123 858.191C653.558 856.751 658.022 855.311 662.472 853.871C668.16 852.057 673.877 850.329 679.594 848.629C684.086 847.305 688.594 845.994 693.101 844.756C698.861 843.143 704.621 841.631 710.525 840.148C714.989 839.01 719.467 837.872 723.96 836.807C729.95 835.367 735.984 834.071 742.018 832.789C746.338 831.853 750.658 830.888 755.064 830.024C761.4 828.772 767.765 827.663 774.115 826.554C778.234 825.834 782.338 825.114 786.47 824.394C793.57 823.271 800.683 822.306 807.811 821.356C811.224 820.909 814.637 820.362 818.064 819.916C828.625 818.639 839.237 817.549 849.902 816.647L886.781 813.652C894.269 813.036 900.025 806.765 900 799.252V295.252H943.2V871.252V871.252Z" fill="#86868B"/>
</svg>
