<svg width="1080" height="1080" viewBox="0 0 1080 1080" fill="none" xmlns="http://www.w3.org/2000/svg">
<g clip-path="url(#clip0)">
<path d="M765.756 187.542C746.176 169.114 721.119 160.265 695.865 160.265C667.436 160.265 638.727 171.474 617.321 192.907L608.135 202.093L598.949 192.879C577.543 171.474 548.834 160.265 520.405 160.265C495.151 160.265 470.093 169.114 450.514 187.542C407.45 228.078 406.691 295.891 448.21 337.41L608.135 497.335L768.06 337.41C809.579 295.891 808.82 228.078 765.756 187.542ZM748.199 317.549L608.135 457.613L468.071 317.549C453.351 302.829 445.429 283.25 445.738 262.434C446.047 241.618 454.587 222.291 469.784 207.993C483.212 195.323 501.191 188.357 520.405 188.357C542.176 188.357 563.582 197.262 579.06 212.74L588.246 221.954L608.107 241.815L627.968 221.954L637.153 212.768C652.66 197.262 674.038 188.357 695.837 188.357C715.051 188.357 733.03 195.323 746.485 207.993C761.683 222.291 770.223 241.618 770.532 262.434C770.841 283.25 762.919 302.829 748.199 317.549Z" fill="#86868B"/>
<path d="M922.729 592.598C898.149 575.94 869.187 580.659 843.539 595.464C817.892 610.268 670.636 736.174 670.636 736.174L525.684 736.202C518.942 736.202 511.639 728.617 511.639 721.903C511.639 714.01 518.521 707.857 525.684 707.857H614.369C645.41 707.857 680.159 687.632 680.159 651.675C680.159 613.47 645.41 595.492 614.369 595.492C560.518 595.492 550.04 595.716 550.04 595.716C528.465 595.716 506.582 594.424 489.727 585.407C467.254 573.889 441.354 567.372 413.712 567.372C367.305 567.372 325.757 585.884 297.273 615.071L146 764.012L314.549 932.561L370.732 876.378H655.214C683.53 876.378 710.863 865.984 732.016 847.191L924.639 631.112C936.41 620.662 935.735 601.447 922.729 592.598ZM712.212 827.134C696.34 840.758 676.142 848.259 655.214 848.259L357.135 848.315L314.549 892.812L185.89 764.153L317.386 634.679C341.685 609.762 376.799 595.464 413.712 595.464C435.96 595.464 457.843 600.604 476.468 610.099C498.885 622.094 525.066 623.752 550.04 623.752C550.04 623.752 560.799 623.527 614.369 623.527C614.734 623.527 652.068 623.836 652.068 651.618C652.068 670.777 629.566 679.71 614.369 679.71H523.353C503.773 679.71 483.098 693.896 483.098 723.729C483.098 745.921 501.048 763.984 523.353 763.984L680.609 763.956C680.609 763.956 846.067 626.027 859.411 618.723C872.754 611.419 889.019 606.588 902.784 613.358L712.212 827.134Z" fill="#86868B"/>
</g>
<defs>
<clipPath id="clip0">
<rect width="787" height="787" fill="white" transform="translate(146 146)"/>
</clipPath>
</defs>
</svg>
