<svg width="1080" height="1080" viewBox="0 0 1080 1080" fill="none" xmlns="http://www.w3.org/2000/svg">
<path d="M493.131 891.041H296.262C257.157 888.654 217.944 888.654 178.839 891.041C170.591 892.078 162.248 892.078 153.999 891.041C161.8 891.041 162.621 909.3 165.085 896.435C165.906 886.216 165.906 875.946 165.085 865.727C165.085 801.612 162.005 730.027 247.199 720.482C281.386 718.534 315.655 718.534 349.842 720.482C411.428 720.482 473.013 724.84 481.635 804.724C484.92 837.3 481.635 871.951 481.635 904.735C482.031 907.892 483.553 910.795 485.915 912.898C488.277 915.002 491.317 916.163 494.466 916.163C497.614 916.163 500.655 915.002 503.017 912.898C505.379 910.795 506.9 907.892 507.296 904.735C507.296 853.069 518.587 786.465 487.999 741.439C449.405 685.209 382.688 694.546 323.771 694.546C264.854 694.546 203.884 685.209 163.853 734.799C127.518 780.033 140.04 850.787 140.04 904.735C140.093 908.13 141.451 911.371 143.826 913.772C146.202 916.173 149.408 917.546 152.767 917.599H494.774C498.258 917.379 501.514 915.769 503.824 913.123C506.133 910.477 507.309 907.012 507.091 903.49C506.873 899.968 505.28 896.678 502.662 894.343C500.044 892.008 496.616 890.82 493.131 891.041V891.041Z" fill="#86868B"/>
<path d="M207.988 730.455L315.353 813.452C317.296 814.664 319.535 815.306 321.819 815.306C324.103 815.306 326.342 814.664 328.286 813.452L436.266 730.455C449.199 720.496 436.266 698.086 423.333 708.046L369.343 749.544L334.855 775.896C329.723 780.046 310.015 790.42 321.922 790.42C333.829 790.42 316.995 782.12 311.658 777.971L274.706 749.544L220.921 708.046C207.783 697.879 195.055 720.496 207.988 730.455V730.455Z" fill="#86868B"/>
<path d="M953.178 891.041H755.282C716.245 888.655 677.101 888.655 638.064 891.041C629.747 892.074 621.336 892.074 613.019 891.041C620.82 891.041 621.641 909.3 624.105 896.435C624.926 886.216 624.926 875.946 624.105 865.727C624.105 801.612 621.231 730.027 706.219 720.482C740.406 718.542 774.675 718.542 808.862 720.482C870.448 720.482 932.034 724.84 940.45 804.724C943.735 837.3 940.45 871.951 940.45 904.735C940.846 907.892 942.368 910.795 944.73 912.898C947.092 915.002 950.132 916.163 953.281 916.163C956.429 916.163 959.469 915.002 961.831 912.898C964.193 910.795 965.715 907.892 966.111 904.735C966.111 853.069 977.607 786.465 946.814 741.439C908.22 685.209 841.502 694.546 782.585 694.546C723.668 694.546 662.698 685.209 622.462 734.799C586.127 780.033 598.649 850.787 598.649 904.735C598.754 908.149 600.157 911.39 602.566 913.786C604.974 916.182 608.203 917.548 611.582 917.599H953.178C956.662 917.599 960.004 916.2 962.468 913.71C964.932 911.22 966.316 907.842 966.316 904.32C966.316 900.798 964.932 897.42 962.468 894.93C960.004 892.439 956.662 891.041 953.178 891.041V891.041Z" fill="#86868B"/>
<path d="M665.762 728.373C696.555 766.759 727.348 822.99 782.364 822.99C837.381 822.99 868.379 766.759 899.172 728.373C909.436 715.716 891.577 697.25 881.107 710.114C856.883 740.201 825.474 797.053 782.364 797.053C739.254 797.053 708.051 740.201 683.827 710.114C673.563 697.25 655.498 715.509 665.762 728.373Z" fill="#86868B"/>
<path d="M398.901 631.685C417.43 618.119 432.203 599.972 441.805 578.982C446.224 568.685 449.395 557.887 451.249 546.821C458.092 543.848 464.075 539.165 468.636 533.213C473.196 527.26 476.185 520.233 477.32 512.792C498.045 504.945 515.056 489.448 524.923 469.426C534.79 449.403 536.779 426.343 530.489 404.896C525.11 386.775 514.055 370.909 498.988 359.683C483.921 348.458 465.655 342.48 446.937 342.649V342.649C436.156 328.886 422.426 317.776 406.779 310.156C391.133 302.537 373.979 298.606 356.612 298.661H289.278C271.925 298.514 254.77 302.405 239.143 310.033C223.516 317.661 209.834 328.82 199.158 342.649V342.649C180.44 342.48 162.174 348.458 147.107 359.683C132.04 370.909 120.985 386.775 115.606 404.896C109.316 426.343 111.306 449.403 121.172 469.426C131.039 489.448 148.05 504.945 168.775 512.792C170.034 520.187 173.07 527.157 177.616 533.09C182.161 539.023 188.078 543.738 194.847 546.821C196.71 557.884 199.88 568.682 204.29 578.982C213.688 600.101 228.501 618.297 247.194 631.685L255.611 637.702C276.812 652.971 302.432 660.686 328.444 659.634C354.456 658.582 379.384 648.824 399.311 631.892L398.901 631.685ZM462.334 369.415C474.965 372.306 486.373 379.148 494.936 388.968C503.499 398.788 508.782 411.087 510.032 424.116C511.282 437.145 508.437 450.241 501.901 461.542C495.365 472.842 485.471 481.773 473.625 487.063C470.488 479.448 465.021 473.049 458.023 468.804C466.203 453.665 470.827 436.828 471.539 419.593C472.251 402.359 469.031 385.191 462.129 369.415H462.334ZM171.033 487.063C159.187 481.773 149.293 472.842 142.757 461.542C136.221 450.241 133.375 437.145 134.626 424.116C135.876 411.087 141.158 398.788 149.722 388.968C158.285 379.148 169.693 372.306 182.324 369.415C175.494 385.193 172.279 402.327 172.919 419.537C173.559 436.747 178.037 453.589 186.019 468.804C179.6 473.592 174.394 479.849 170.828 487.063H171.033ZM225.845 568.192C221.469 557.725 218.567 546.69 217.223 535.409C216.795 532.759 215.618 530.29 213.833 528.302C212.048 526.314 209.732 524.89 207.164 524.204C202.774 523.687 198.736 521.524 195.847 518.143C192.959 514.763 191.429 510.41 191.562 505.945C191.456 501.585 192.916 497.334 195.671 493.978C198.425 490.621 202.289 488.386 206.548 487.686C209.37 487.025 211.885 485.41 213.677 483.108C215.468 480.807 216.43 477.957 216.402 475.029V475.029C216.466 473.779 216.281 472.528 215.858 471.352C215.435 470.176 214.782 469.098 213.938 468.181C204.597 454.415 199.15 438.332 198.184 421.668C197.219 405.003 200.773 388.388 208.462 373.614C216.15 358.839 227.683 346.467 241.816 337.829C255.949 329.191 272.146 324.616 288.662 324.597H355.996C372.512 324.616 388.709 329.191 402.842 337.829C416.975 346.467 428.508 358.839 436.196 373.614C443.885 388.388 447.439 405.003 446.474 421.668C445.508 438.332 440.062 454.415 430.72 468.181C429.352 470.452 428.51 473.005 428.256 475.651C428.106 478.609 429.022 481.521 430.834 483.848C432.646 486.175 435.231 487.76 438.11 488.308C442.314 489.125 446.107 491.393 448.84 494.723C451.574 498.054 453.078 502.24 453.096 506.567C453.229 511.032 451.7 515.385 448.811 518.766C445.922 522.147 441.884 524.309 437.494 524.827C434.885 525.39 432.522 526.78 430.75 528.796C428.977 530.811 427.888 533.346 427.641 536.031C426.303 547.337 423.329 558.383 418.813 568.815C410.54 587.703 397.018 603.756 379.89 615.024C362.762 626.293 342.766 632.291 322.329 632.291C301.892 632.291 281.896 626.293 264.768 615.024C247.64 603.756 234.118 587.703 225.845 568.815V568.192ZM247.605 386.222C247.605 384.57 247.93 382.934 248.562 381.41C249.194 379.885 250.119 378.504 251.285 377.345C252.45 376.186 253.833 375.273 255.351 374.66C256.869 374.047 258.493 373.745 260.128 373.773H384.531C386.296 373.543 388.089 373.696 389.791 374.222C391.493 374.747 393.064 375.634 394.4 376.822C395.737 378.009 396.807 379.471 397.541 381.11C398.274 382.749 398.653 384.527 398.653 386.326C398.653 388.125 398.274 389.903 397.541 391.542C396.807 393.18 395.737 394.643 394.4 395.83C393.064 397.018 391.493 397.905 389.791 398.43C388.089 398.956 386.296 399.109 384.531 398.879H260.128C258.466 398.907 256.815 398.6 255.272 397.976C253.729 397.352 252.324 396.424 251.14 395.246C249.955 394.068 249.014 392.663 248.372 391.114C247.73 389.565 247.399 387.902 247.4 386.222H247.605ZM372.213 436.643C372.161 439.983 370.824 443.171 368.487 445.533C366.15 447.896 362.996 449.246 359.691 449.3H284.967C281.646 449.3 278.461 447.966 276.112 445.592C273.764 443.219 272.445 439.999 272.445 436.643C272.445 433.286 273.764 430.067 276.112 427.693C278.461 425.319 281.646 423.986 284.967 423.986H359.691C362.96 424.092 366.063 425.466 368.356 427.822C370.649 430.179 371.957 433.337 372.008 436.643H372.213Z" fill="#86868B"/>
<path d="M655.732 404.479C695.776 413.783 737.745 409.329 775.004 391.822C777.205 390.851 779.581 390.35 781.983 390.35C784.385 390.35 786.762 390.851 788.963 391.822C809.492 400.33 871.077 422.116 912.134 403.027" stroke="#86868B" stroke-width="27.3236" stroke-miterlimit="10"/>
<path d="M917.865 468.599C923.998 456.544 928.224 443.591 930.387 430.213C933.086 409.503 930.251 388.44 922.176 369.211V369.211C918.051 359.292 912.367 350.113 905.343 342.029C894.624 328.182 880.91 316.999 865.253 309.338C849.596 301.678 832.412 297.742 815.017 297.833H747.888C730.483 297.679 713.278 301.587 697.611 309.253C681.944 316.918 668.239 328.135 657.563 342.029V342.029C650.595 350.232 644.917 359.47 640.729 369.418H641.756C633.469 389.026 630.63 410.548 633.544 431.666C635.814 444.46 639.966 456.839 645.861 468.392C639.328 473.567 634.152 480.285 630.788 487.954C627.423 495.624 625.973 504.011 626.564 512.38C627.824 519.778 630.885 526.744 635.472 532.648C640.059 538.553 646.028 543.21 652.841 546.201C655.39 563.208 661.325 579.516 670.287 594.138C679.249 608.76 691.053 621.393 704.984 631.273L713.401 637.29C734.641 652.457 760.242 660.109 786.227 659.058C812.212 658.008 837.127 648.313 857.101 631.48V631.48C875.539 617.731 890.287 599.543 900.005 578.57C904.32 568.252 907.421 557.458 909.243 546.408C916.109 543.499 922.127 538.865 926.726 532.946C931.324 527.027 934.351 520.02 935.52 512.587C936.253 504.364 935.033 496.083 931.963 488.432C928.892 480.781 924.059 473.982 917.865 468.599V468.599ZM897.336 523.999C894.673 524.565 892.259 525.978 890.449 528.032C888.638 530.086 887.526 532.672 887.277 535.411C885.982 546.702 883.078 557.745 878.655 568.195C870.343 587.07 856.796 603.105 839.654 614.359C822.512 625.612 802.509 631.601 782.068 631.601C761.628 631.601 741.625 625.612 724.483 614.359C707.341 603.105 693.793 587.07 685.482 568.195C681.141 557.716 678.24 546.686 676.859 535.411C676.522 532.704 675.38 530.164 673.584 528.126C671.788 526.089 669.423 524.65 666.801 523.999C662.429 523.48 658.413 521.31 655.557 517.923C652.702 514.537 651.219 510.185 651.404 505.74C651.333 501.421 652.779 497.217 655.485 493.874C658.191 490.531 661.982 488.266 666.185 487.481C669.028 486.904 671.586 485.348 673.42 483.077C675.255 480.807 676.253 477.963 676.244 475.031V475.031C676.313 473.75 676.131 472.466 675.708 471.256C675.285 470.045 674.63 468.931 673.78 467.977C664.344 454.245 658.82 438.159 657.809 421.471C656.799 404.784 660.341 388.137 668.05 373.345C675.759 358.553 687.339 346.185 701.526 337.589C715.714 328.993 731.964 324.5 748.504 324.6H815.633C832.173 324.5 848.423 328.993 862.61 337.589C876.798 346.185 888.377 358.553 896.087 373.345C903.796 388.137 907.338 404.784 906.328 421.471C905.317 438.159 899.793 454.245 890.357 467.977C888.986 470.321 888.144 472.943 887.893 475.654C887.757 478.617 888.709 481.527 890.565 483.825C892.422 486.123 895.052 487.646 897.952 488.103C902.101 488.998 905.825 491.294 908.511 494.613C911.198 497.931 912.686 502.075 912.733 506.363C912.763 510.702 911.209 514.9 908.368 518.154C905.528 521.408 901.6 523.489 897.336 523.999V523.999Z" fill="#86868B"/>
<path d="M815.435 308.418C823.499 308.506 831.539 309.34 839.454 310.907C851.843 299.19 860.459 283.977 864.182 267.246C867.905 250.515 866.564 233.038 860.332 217.087C854.1 201.137 843.265 187.449 829.236 177.804C815.208 168.158 798.633 163 781.666 163C764.699 163 748.124 168.158 734.095 177.804C720.066 187.449 709.232 201.137 703 217.087C696.768 233.038 695.426 250.515 699.15 267.246C702.873 283.977 711.489 299.19 723.878 310.907C731.839 309.167 739.956 308.263 748.101 308.21L815.435 308.418Z" stroke="#86868B" stroke-width="27.3236" stroke-miterlimit="10"/>
</svg>
