<svg width="1080" height="1080" viewBox="0 0 1080 1080" fill="none" xmlns="http://www.w3.org/2000/svg">
<path d="M830.001 845.898H279.906C262.459 845.898 239.539 850.948 235.433 828.326C231.328 805.703 235.433 777.823 235.433 754.716V472.732C235.433 448.933 230.097 417.94 235.433 394.626C240.77 371.311 261.638 376.085 279.906 376.085H783.681C797.365 376.085 816.454 372.418 829.728 376.085C856.138 383.003 845.875 435.65 845.875 456.889V765.163C845.875 787.993 857.027 842.3 824.87 846.659C804.96 849.357 809.475 885.262 829.728 882.495C870.779 876.891 882 847.489 882 810.477V408.6C882 374.01 868.864 342.186 829.591 339.419C810.365 338.104 790.591 339.419 771.297 339.419H476.271C402.925 339.419 328.553 335.752 255.344 339.419C179.603 343.154 199.308 443.191 199.308 495.493V792.835C199.308 821.546 194.998 853.439 221.544 872.602C240.018 885.954 264.923 882.633 286.543 882.633H830.001C852.922 882.772 852.99 845.898 830.001 845.898Z" fill="#86868B"/>
<path d="M240.082 374.488L483.861 286.489L614.201 239.376C648 227.2 661.342 244.772 686.999 267.049L802.628 367.155C819.254 381.614 843.68 357.262 826.781 342.734L723.056 252.797C694.525 228.03 663.736 188.32 622.069 200.15C526.623 227.2 433.162 268.087 340.385 301.64L230.913 341.142C210.387 348.545 219.145 381.96 240.013 374.488H240.082Z" fill="#86868B"/>
<path d="M617.012 534.233H864.213V684.98H617.012C601.57 684.98 586.76 678.777 575.841 667.736C564.922 656.695 558.787 641.72 558.787 626.106V593.037C558.805 577.435 564.948 562.478 575.865 551.452C586.783 540.426 601.582 534.233 617.012 534.233Z" stroke="#86868B" stroke-width="20.7173" stroke-miterlimit="10"/>
<path d="M646.429 646.787C666.721 646.787 683.17 630.154 683.17 609.636C683.17 589.118 666.721 572.485 646.429 572.485C626.137 572.485 609.688 589.118 609.688 609.636C609.688 630.154 626.137 646.787 646.429 646.787Z" stroke="#86868B" stroke-width="20.7173" stroke-miterlimit="10"/>
</svg>
