<svg width="204" height="49" viewBox="0 0 204 49" fill="none" xmlns="http://www.w3.org/2000/svg">
<path d="M17.7202 6.61276L17.7202 9.3052L8.5987 9.30519L8.5985 18.4265L5.90626 18.4267L5.90626 6.61276L17.7202 6.61276Z" fill="black"/>
<path d="M186.28 42.8174L186.28 40.125L195.401 40.125L195.401 31.0037L198.094 31.0035L198.094 42.8174L186.28 42.8174Z" fill="black"/>
<path d="M33.5471 23.9448C33.5771 23.6751 33.607 23.3155 33.607 22.836C33.607 20.3487 32.9178 18.3708 31.5392 16.8424C30.1607 15.314 28.2427 14.5648 25.8153 14.5648C23.5078 14.5648 21.5898 15.374 20.0614 16.9922C18.5331 18.6105 17.7539 20.5584 17.7539 22.866C17.7539 25.2335 18.563 27.2413 20.1514 28.8296C21.7696 30.418 23.7775 31.1971 26.145 31.1971C29.0219 31.1971 31.6291 29.8186 32.9777 27.3312L30.4004 25.6231C29.5314 27.2713 28.0929 28.1104 26.085 28.1104C24.8563 28.1104 23.7775 27.7208 22.8485 26.9417C21.9195 26.1325 21.44 25.1436 21.41 23.9448H33.5471ZM25.8153 17.6216C28.0929 17.6216 29.861 19.0001 29.9809 21.2477H21.5898C21.9195 19.06 23.6277 17.6216 25.8153 17.6216Z" fill="black"/>
<path d="M50.4353 30.8974V21.967C50.4353 19.5395 51.7838 17.9213 53.9715 17.9213C56.339 17.9213 57.3879 19.4496 57.3879 21.877V30.8974H60.9541V21.008C60.9541 17.1721 59.0061 14.5349 55.1403 14.5349C52.7728 14.5349 51.2144 15.374 49.5662 17.1721C48.5772 15.4039 46.929 14.5349 44.6215 14.5349C42.7035 14.5349 41.1152 15.374 39.8565 17.0522V14.8945H36.3802V30.8974H39.9464V21.9969C39.9464 19.5695 41.295 17.9213 43.4527 17.9213C45.8202 17.9213 46.899 19.5096 46.899 21.907V30.8974H50.4353Z" fill="black"/>
<path d="M81.3604 22.836C81.3604 20.7083 80.6412 18.7903 79.1728 17.1121C77.7343 15.4339 75.8463 14.5948 73.5088 14.5948C72.5798 14.5948 71.5908 14.8345 70.542 15.314C69.4931 15.7636 68.7439 16.4229 68.2344 17.262V6.50342H64.6682V30.8974H68.1445V28.4401C68.654 29.2792 69.4331 29.9385 70.482 30.4179C71.5309 30.8974 72.5198 31.1372 73.4189 31.1372C75.7264 31.1372 77.6144 30.328 79.1128 28.6798C80.6112 27.0316 81.3604 25.0836 81.3604 22.836ZM69.4931 19.2698C70.3921 18.2809 71.5609 17.8014 72.9694 17.8014C74.3779 17.8014 75.5466 18.2809 76.4157 19.2698C77.3147 20.2588 77.7643 21.4575 77.7643 22.866C77.7643 24.2745 77.3147 25.4732 76.4157 26.4622C75.5466 27.4211 74.3779 27.9006 72.9694 27.9006C71.5609 27.9006 70.3921 27.4211 69.4931 26.4622C68.624 25.4732 68.1745 24.2745 68.1745 22.866C68.1745 21.4575 68.624 20.2588 69.4931 19.2698Z" fill="black"/>
<path d="M98.8908 23.9448C98.9208 23.6751 98.9507 23.3155 98.9507 22.836C98.9507 20.3487 98.2615 18.3708 96.8829 16.8424C95.5044 15.314 93.5865 14.5648 91.159 14.5648C88.8515 14.5648 86.9335 15.374 85.4052 16.9922C83.8768 18.6105 83.0976 20.5584 83.0976 22.866C83.0976 25.2335 83.9068 27.2413 85.4951 28.8296C87.1133 30.418 89.1212 31.1971 91.4887 31.1971C94.3656 31.1971 96.9729 29.8186 98.3214 27.3312L95.7442 25.6231C94.8751 27.2713 93.4366 28.1104 91.4288 28.1104C90.2001 28.1104 89.1212 27.7208 88.1922 26.9417C87.2632 26.1325 86.7837 25.1436 86.7537 23.9448H98.8908ZM91.159 17.6216C93.4366 17.6216 95.2047 19.0001 95.3246 21.2477H86.9335C87.2632 19.06 88.9714 17.6216 91.159 17.6216Z" fill="black"/>
<path d="M100.615 22.866C100.615 25.0836 101.364 27.0316 102.863 28.6798C104.361 30.328 106.249 31.1372 108.497 31.1372C109.336 31.1372 110.295 30.9274 111.374 30.4779C112.482 30.0284 113.292 29.3391 113.861 28.4101V30.8974H117.337V6.50342H113.771V17.1721C113.232 16.303 112.453 15.6737 111.404 15.2541C110.385 14.8046 109.456 14.5948 108.587 14.5948C106.219 14.5948 104.271 15.4339 102.803 17.1121C101.334 18.7903 100.615 20.7083 100.615 22.866ZM109.036 17.8014C110.445 17.8014 111.583 18.2809 112.482 19.2698C113.382 20.2588 113.831 21.4575 113.831 22.866C113.831 24.2745 113.382 25.4732 112.482 26.4622C111.613 27.4211 110.445 27.9006 109.036 27.9006C107.628 27.9006 106.459 27.4211 105.56 26.4622C104.691 25.4732 104.241 24.2745 104.241 22.866C104.241 21.4575 104.691 20.2588 105.56 19.2698C106.459 18.2809 107.628 17.8014 109.036 17.8014Z" fill="black"/>
<path d="M134.374 31.403C137.476 31.403 140.234 30.4003 142.082 28.8961C143.931 27.392 145.122 25.7312 145.717 24.0077L142.208 22.4096C141.612 24.0077 140.578 25.3238 139.137 26.3266C137.727 27.298 136.16 27.7994 134.468 27.7994C132.212 27.7994 130.237 26.9533 128.577 25.2925C126.916 23.6004 126.101 21.4382 126.101 18.806C126.101 16.1424 126.947 14.0116 128.608 12.3507C130.269 10.6899 132.243 9.84387 134.468 9.84387C138.322 9.84387 140.892 12.0374 142.114 15.2023L145.592 13.6042C145.059 11.8494 143.869 10.1886 142.114 8.71577C140.359 7.21165 137.633 6.24023 134.53 6.24023C131.115 6.24023 128.201 7.46234 125.725 9.87521C123.249 12.2881 122.027 15.2963 122.027 18.9313C122.027 22.7856 123.531 26.0759 125.882 28.1754C128.232 30.2122 131.24 31.403 134.374 31.403Z" fill="#FA620E"/>
<path d="M156.817 19.7774C156.817 20.7174 156.284 21.1875 155.25 21.1875H153.182C150.237 21.1875 146.226 22.4096 146.226 26.2953V26.4833C146.226 27.9247 146.758 29.1155 147.824 30.0242C148.889 30.933 150.237 31.403 151.866 31.403C154.122 31.403 155.752 30.5569 156.786 28.8335V31.121H160.452V20.4668C160.452 19.3073 160.264 18.3046 159.888 17.4585C158.854 15.171 156.754 14.0429 153.621 14.0429C150.205 14.0429 147.824 15.453 146.508 18.3046L149.359 19.9341C150.205 18.1479 151.615 17.2705 153.527 17.2705C155.626 17.2705 156.817 18.3986 156.817 19.7774ZM156.786 24.3524C156.786 26.8593 155.156 28.4261 152.618 28.4261C151.02 28.4261 149.955 27.5174 149.955 26.1386C149.955 25.4178 150.299 24.8538 150.957 24.4464C151.647 24.0391 152.399 23.8197 153.182 23.8197H156.786V24.3524Z" fill="#FA620E"/>
<path d="M168.801 31.403C170.681 31.403 172.217 30.933 173.376 29.9616C174.535 28.9901 175.131 27.7367 175.131 26.2012C175.131 23.6004 173.125 21.7829 169.334 20.9368C167.171 20.4668 166.231 19.9027 166.231 18.806C166.231 17.8972 167.422 17.1765 168.582 17.1765C170.18 17.1765 171.339 17.9285 172.091 19.4327L174.974 17.8032C173.815 15.2963 171.715 14.0429 168.707 14.0429C167.077 14.0429 165.667 14.5129 164.445 15.4843C163.223 16.4558 162.628 17.6779 162.628 19.182C162.628 20.3728 163.035 21.3755 163.819 22.2216C164.727 23.193 166.137 23.851 167.986 24.2271C170.274 24.6971 171.433 25.4492 171.433 26.4206C171.433 27.5487 170.211 28.2694 168.801 28.2694C167.015 28.2694 165.699 27.3607 164.79 25.5745L161.876 27.204C163.16 29.9929 165.479 31.403 168.801 31.403Z" fill="#FA620E"/>
<path d="M186.079 17.7405V14.3876H181.974V9.21715H178.245V14.3876H175.174V17.7405H178.245V25.7312C178.245 29.3662 180.376 31.309 184.042 31.309C184.763 31.309 185.452 31.1837 186.048 30.9643V27.7994C185.64 27.8934 185.233 27.9247 184.857 27.9247C182.945 27.9247 181.974 27.1413 181.974 25.1358V17.7405H186.079Z" fill="#FA620E"/>
</svg>
