<svg width="1948" height="1654" viewBox="0 0 1948 1654" fill="none" xmlns="http://www.w3.org/2000/svg">
<path opacity="0.31" d="M1906.28 1282.98H41.7204C18.6694 1282.98 0 1264.31 0 1241.26C0 1218.21 18.6694 1199.55 41.7204 1199.55H1906.23C1929.28 1199.55 1947.95 1218.21 1947.95 1241.26C1948 1264.31 1929.33 1282.98 1906.28 1282.98Z" fill="#C4C4C4"/>
<path d="M72.6289 1220.5V705.659H358.909V784.044H156.975V921.623H330.81V998.533H156.975V1140.54H358.957V1220.45H72.6289V1220.5Z" fill="#FA620E"/>
<path d="M649.66 1220.5L572.744 1005.96H506.925V1220.5H422.531V705.659H588.222C609.416 705.659 629.133 708.754 647.421 714.897C665.662 721.088 681.331 730.327 694.381 742.613C707.43 754.947 717.67 770.377 725.099 788.854C732.482 807.331 736.196 828.904 736.196 853.572C736.196 886.145 729.291 914.242 715.479 937.91C701.667 961.578 681.188 979.579 654.089 991.913L742.102 1220.5H649.66ZM653.327 853.62C653.327 829.475 647.136 811.57 634.848 799.997C622.513 788.425 604.748 782.615 581.602 782.615H506.877V929.814H580.84C603.034 929.814 620.656 923.433 633.753 910.575C646.802 897.765 653.327 878.764 653.327 853.62Z" fill="#FA620E"/>
<path d="M1040.24 1220.5L963.325 1005.96H897.506V1220.5H813.16V705.659H978.851C1000.04 705.659 1019.81 708.754 1038.05 714.897C1056.29 721.088 1071.96 730.327 1085.01 742.613C1098.06 754.947 1108.3 770.377 1115.73 788.854C1123.16 807.331 1126.83 828.904 1126.83 853.572C1126.83 886.145 1119.92 914.242 1106.11 937.91C1092.3 961.578 1071.82 979.579 1044.72 991.913L1132.73 1220.5H1040.24ZM1043.96 853.62C1043.96 829.475 1037.76 811.57 1025.48 799.997C1013.14 788.425 995.377 782.615 972.231 782.615H897.506V929.814H971.469C993.663 929.814 1011.28 923.433 1024.38 910.575C1037.38 897.765 1043.96 878.764 1043.96 853.62Z" fill="#FA620E"/>
<path d="M1505.55 1064.44C1505.55 1089.11 1501.74 1111.3 1494.07 1131.02C1486.41 1150.73 1475.6 1167.64 1461.5 1181.69C1447.45 1195.74 1430.78 1206.45 1411.59 1213.88C1392.35 1221.26 1371.15 1224.98 1347.96 1224.98C1319.86 1224.98 1295.66 1220.4 1275.47 1211.31C1255.23 1202.21 1238.85 1189.88 1226.27 1174.31C1213.7 1158.78 1204.46 1140.78 1198.51 1120.3C1192.6 1099.82 1189.65 1078.25 1189.65 1055.58V861.002C1189.65 842.762 1192.51 824.285 1198.17 805.522C1203.84 786.807 1212.99 769.758 1225.56 754.472C1238.13 739.185 1254.42 726.613 1274.38 716.755C1294.33 706.897 1318.86 701.945 1348.01 701.945C1375.1 701.945 1398.54 706.659 1418.3 715.993C1438.02 725.375 1454.4 737.566 1467.5 752.614C1480.55 767.663 1490.17 784.664 1496.36 803.665C1502.5 822.666 1505.6 841.762 1505.6 861.002V1064.44H1505.55ZM1419.73 859.716C1419.73 853.287 1418.63 845.763 1416.4 837.095C1414.16 828.428 1410.35 820.142 1404.92 812.237C1399.49 804.332 1392.2 797.522 1383.11 791.855C1373.96 786.188 1362.25 783.331 1347.96 783.331C1333.62 783.331 1321.67 785.95 1312.1 791.14C1302.47 796.331 1294.81 802.76 1289.14 810.427C1283.47 818.094 1279.38 826.381 1276.95 835.286C1274.47 844.191 1273.23 852.573 1273.23 860.478L1273.99 1057.63C1273.99 1082.35 1279.66 1103.11 1291 1119.87C1302.33 1136.68 1321.57 1145.07 1348.72 1145.07C1367.96 1145.07 1384.58 1138.54 1398.68 1125.45C1412.73 1112.35 1419.78 1094.44 1419.78 1071.68V859.716H1419.73Z" fill="#FA620E"/>
<path d="M1812.55 1220.5L1735.63 1005.96H1669.81V1220.5H1585.46V705.659H1751.16C1772.35 705.659 1792.07 708.754 1810.35 714.897C1828.6 721.088 1844.26 730.327 1857.31 742.613C1870.36 754.947 1880.6 770.377 1888.03 788.854C1895.41 807.331 1899.13 828.904 1899.13 853.572C1899.13 886.145 1892.22 914.242 1878.41 937.91C1864.6 961.578 1844.12 979.579 1817.02 991.913L1905.04 1220.5H1812.55ZM1816.26 853.62C1816.26 829.475 1810.07 811.57 1797.78 799.997C1785.45 788.425 1767.68 782.615 1744.54 782.615H1669.81V929.814H1743.77C1765.97 929.814 1783.59 923.433 1796.69 910.575C1809.74 897.765 1816.26 878.764 1816.26 853.62Z" fill="#FA620E"/>
<path d="M649.332 155.866V261.158" stroke="#262525" stroke-width="3" stroke-miterlimit="10"/>
<path d="M849.452 0H449.25V185.344H849.452V0Z" fill="#FA620E"/>
<path d="M597.984 121.817V138.532H579.791V121.817H538.309V105.768L570.361 23.478H589.554L557.978 104.626H579.791V75.5286H597.984V104.626H606.414V121.817H597.984Z" fill="white"/>
<path d="M679.523 110.578C679.523 115.197 678.713 119.292 677.141 122.816C675.57 126.34 673.379 129.341 670.617 131.817C667.854 134.293 664.711 136.15 661.139 137.436C657.567 138.722 653.805 139.341 649.852 139.341C645.899 139.341 642.136 138.722 638.564 137.436C634.992 136.15 631.849 134.293 629.182 131.817C626.467 129.341 624.324 126.34 622.752 122.816C621.181 119.292 620.371 115.197 620.371 110.578V51.5742C620.371 46.9549 621.181 42.8594 622.752 39.2401C624.324 35.6685 626.515 32.6207 629.277 30.1444C632.04 27.668 635.135 25.8108 638.66 24.525C642.184 23.2392 645.899 22.6201 649.852 22.6201C653.805 22.6201 657.615 23.2392 661.234 24.525C664.854 25.8108 667.997 27.668 670.712 30.1444C673.379 32.6207 675.57 35.6685 677.141 39.2401C678.713 42.8118 679.523 46.9072 679.523 51.5742V110.578ZM661.33 51.5742C661.33 47.9549 660.282 45.0976 658.186 43.0499C656.091 41.0021 653.328 40.0021 649.899 40.0021C646.47 40.0021 643.708 41.0021 641.612 43.0499C639.517 45.0976 638.469 47.9073 638.469 51.5742V110.435C638.469 114.197 639.517 117.054 641.612 119.054C643.708 121.054 646.47 122.007 649.899 122.007C653.328 122.007 656.091 121.007 658.186 119.054C660.282 117.054 661.33 114.197 661.33 110.435V51.5742Z" fill="white"/>
<path d="M751.726 121.817V138.532H733.533V121.817H692.051V105.768L724.103 23.478H743.296L711.72 104.626H733.533V75.5286H751.726V104.626H760.156V121.817H751.726Z" fill="white"/>
<path d="M1401.4 671.706C1405.64 675.992 1407.92 683.183 1409.69 688.278C1413.21 698.374 1416.54 708.517 1419.83 718.708C1423.16 728.947 1426.55 739.71 1424.69 750.329C1423.97 754.568 1422.12 758.949 1418.35 761.044C1415.92 762.378 1412.92 762.568 1410.21 761.949C1403.02 760.33 1397.92 753.853 1395.06 747.091C1392.21 740.329 1391.11 732.947 1388.44 726.042C1383.82 713.994 1374.54 701.66 1361.15 700.231C1354.3 699.469 1345.39 698.803 1340.63 693.04C1335.72 687.135 1335.39 674.182 1342.2 669.61C1344.44 668.134 1347.06 667.372 1349.68 666.896C1358.2 665.277 1366.63 666.134 1375.16 666.848C1382.59 667.42 1390.64 665.991 1397.59 669.134C1399.06 669.706 1400.3 670.61 1401.4 671.706Z" fill="white" stroke="black" stroke-miterlimit="10"/>
<path d="M672.38 297.207C673.714 291.207 674.999 285.159 676.19 279.111C678.762 266.348 685.763 253.11 675.857 241.871C667.046 231.87 648.805 235.299 638.327 241.395C628.088 247.347 620.992 259.539 623.468 271.158C625.611 281.159 635.089 289.064 645.281 289.445C642.519 298.35 639.994 307.303 637.708 316.351C634.422 329.257 642.328 333.781 653.901 331.352C656.806 330.733 659.807 330.066 662.14 328.209C665.57 325.495 666.808 320.971 667.856 316.732C669.427 310.208 670.951 303.732 672.38 297.207Z" fill="white" stroke="black" stroke-miterlimit="10"/>
<path d="M1360.92 656.181C1359.2 655.8 1357.44 655.419 1355.73 655.085C1301.24 645.037 1241.95 628.322 1186.27 633.417C1174.27 634.513 1162.41 636.799 1150.41 637.56C1109.88 640.132 1070.97 625.75 1031.97 617.226C1016.06 613.75 1000.2 611.892 984.34 608.606C964.956 604.606 944.953 608.702 925.427 606.13C908.376 603.892 891.66 596.51 874.562 598.653C852.463 601.415 832.937 615.131 827.174 637.037C824.269 647.99 825.65 659.657 828.222 670.705C830.603 681.039 834.747 692.04 843.986 697.326C863.275 708.326 899.708 701.231 921.093 701.612C950.049 702.088 979.006 703.088 1007.91 704.04C1064.97 705.945 1122.03 707.898 1179.08 706.469C1237.81 704.993 1296.58 706.374 1355.35 708.469C1357.35 691.04 1359.2 673.61 1360.92 656.181Z" fill="black"/>
<path d="M396.015 770.615C387.443 779.758 383.109 791.95 379.918 803.903C378.06 810.951 377.251 818.475 379.346 825.428C381.966 834.143 390.062 842.238 399.778 840.238C405.874 839 410.922 832.333 410.684 826.142C410.589 822.713 408.97 819.332 406.35 817.141C406.636 814.189 407.064 811.236 407.684 808.332C407.922 807.236 408.208 806.141 408.97 805.331C411.732 802.569 412.589 806.903 412.399 808.76C412.208 810.808 410.208 816.046 412.637 817.284C414.256 817.903 415.542 815.808 415.971 814.141C417.542 808.093 418.019 801.807 418.495 795.616C418.923 789.902 419.4 784.235 419.828 778.52C419.971 776.663 420.114 774.758 419.781 772.901C418.781 767.567 412.923 762.71 407.35 763.472C403.302 764.138 399.159 767.281 396.015 770.615Z" fill="white" stroke="black" stroke-miterlimit="10"/>
<path opacity="0.31" d="M1510.65 461.599L1506.32 463.646C1505.08 464.218 1503.51 463.789 1502.7 462.694C1498.65 457.265 1494.41 453.741 1489.55 450.741C1488.41 450.027 1487.88 448.598 1488.36 447.312L1490.46 441.121C1490.98 439.597 1490.17 437.978 1488.69 437.407L1476.12 432.835C1474.6 432.311 1472.93 433.073 1472.36 434.55L1470.02 440.74C1469.55 441.979 1468.36 442.788 1467.02 442.645C1461.31 442.026 1454.64 442.645 1449.02 443.836C1447.69 444.122 1445.83 443.693 1445.26 442.455L1442.5 436.645C1441.78 435.169 1440.64 433.026 1439.21 433.74L1427.07 439.502C1425.59 440.217 1425.07 443.169 1425.73 444.598L1428.49 450.408C1429.07 451.646 1428.92 453.027 1427.83 453.884C1423.49 457.36 1419.87 461.503 1416.83 466.17C1416.06 467.313 1414.68 467.837 1413.4 467.361L1407.59 465.218C1406.06 464.647 1404.35 465.456 1403.82 466.98L1399.44 479.409C1398.92 480.886 1399.68 482.552 1401.16 483.124L1407.49 485.6C1408.73 486.076 1409.54 487.362 1409.35 488.696C1408.59 494.363 1408.68 499.887 1410.3 506.458C1410.63 507.792 1409.97 509.268 1408.73 509.84L1403.3 512.411C1401.82 513.125 1400.73 514.887 1401.44 516.316L1407.21 528.46C1407.92 529.936 1409.78 529.888 1411.25 529.174L1416.64 526.602C1417.83 526.031 1419.4 526.555 1420.26 527.602C1423.68 531.793 1428.11 535.936 1432.92 539.079C1434.07 539.841 1434.54 541.318 1434.07 542.603L1432.11 547.794C1431.54 549.318 1432.35 551.08 1433.88 551.604L1446.12 555.89C1447.69 556.414 1449.35 555.604 1449.88 554.033L1451.55 548.889C1451.97 547.556 1453.31 546.746 1454.74 546.889C1460.45 547.556 1466.07 547.365 1471.6 546.223C1472.93 545.937 1474.12 546.699 1474.69 547.937L1477.31 553.509C1478.03 554.985 1479.93 554.89 1481.36 554.175L1493.5 548.413C1494.98 547.699 1494.74 546.985 1494.08 545.556L1491.46 539.984C1490.88 538.794 1491.74 537.079 1492.79 536.222C1497.31 532.555 1501.98 527.793 1505.17 522.793C1505.89 521.697 1507.46 521.174 1508.7 521.602L1514.32 523.507C1515.84 524.031 1517.51 523.221 1518.08 521.697L1522.56 509.316C1523.13 507.744 1522.27 506.03 1520.7 505.506L1515.75 503.934C1514.41 503.506 1513.55 502.22 1513.7 500.887C1514.32 495.172 1513.89 489.029 1512.84 483.743C1512.55 482.457 1513.13 480.886 1514.36 480.314L1518.65 478.266C1520.13 477.552 1519.89 476.838 1519.17 475.361L1513.41 463.218C1512.7 461.884 1512.13 460.932 1510.65 461.599ZM1472.79 520.316C1458.69 526.983 1441.88 520.983 1435.21 506.887C1428.54 492.791 1434.54 475.981 1448.64 469.313C1462.74 462.646 1479.55 468.647 1486.22 482.743C1492.88 496.839 1486.84 513.649 1472.79 520.316Z" fill="#C4C4C4"/>
<path opacity="0.31" d="M1662.58 542.889L1656.77 545.651C1655.1 546.461 1653.01 545.842 1651.91 544.366C1646.43 537.032 1640.72 532.27 1634.15 528.269C1632.58 527.317 1631.91 525.364 1632.53 523.65L1635.34 515.269C1636.05 513.221 1634.96 510.983 1632.96 510.268L1615.95 504.125C1613.91 503.411 1611.67 504.411 1610.91 506.459L1607.76 514.792C1607.14 516.459 1605.48 517.507 1603.71 517.316C1596 516.459 1587 517.316 1579.38 518.936C1577.62 519.317 1575.09 518.745 1574.33 517.078L1570.61 509.268C1569.66 507.316 1568.14 504.411 1566.14 505.316L1549.75 513.078C1547.8 514.03 1547.04 517.983 1547.94 519.983L1551.66 527.793C1552.47 529.46 1552.23 531.317 1550.75 532.508C1544.9 537.222 1539.99 542.842 1535.9 549.128C1534.89 550.699 1532.99 551.366 1531.28 550.699L1523.46 547.794C1521.42 547.032 1519.13 548.08 1518.37 550.175L1512.46 566.938C1511.75 568.938 1512.8 571.177 1514.75 571.939L1523.32 575.272C1524.99 575.939 1526.08 577.653 1525.8 579.415C1524.75 587.035 1524.89 594.511 1527.08 603.417C1527.51 605.226 1526.66 607.226 1524.99 607.988L1517.65 611.465C1515.7 612.417 1514.23 614.798 1515.13 616.751L1522.89 633.133C1523.85 635.085 1526.42 635.037 1528.37 634.085L1535.66 630.656C1537.28 629.894 1539.37 630.609 1540.51 632.037C1545.13 637.704 1551.14 643.276 1557.61 647.514C1559.14 648.514 1559.8 650.562 1559.14 652.277L1556.52 659.277C1555.71 661.372 1556.8 663.706 1558.9 664.42L1575.42 670.23C1577.52 670.944 1579.81 669.849 1580.52 667.706L1582.76 660.753C1583.33 658.944 1585.14 657.848 1587.05 658.086C1594.71 658.991 1602.33 658.706 1609.76 657.182C1611.57 656.801 1613.14 657.801 1613.95 659.467L1617.53 666.944C1618.48 668.897 1621.05 668.801 1623 667.849L1639.39 660.087C1641.34 659.134 1641.1 658.182 1640.15 656.182L1636.58 648.705C1635.81 647.086 1636.96 644.752 1638.34 643.609C1644.48 638.657 1650.72 632.228 1655.06 625.465C1656.01 623.942 1658.1 623.275 1659.82 623.846L1667.39 626.418C1669.44 627.132 1671.72 626.037 1672.44 623.989L1678.49 607.274C1679.25 605.179 1678.11 602.845 1675.96 602.131L1669.3 600.035C1667.53 599.464 1666.34 597.75 1666.53 595.892C1667.39 588.178 1666.77 579.844 1665.34 572.701C1665.01 570.939 1665.77 568.843 1667.39 568.081L1673.15 565.367C1675.11 564.414 1674.77 563.462 1673.87 561.462L1666.1 545.08C1665.29 543.27 1664.53 541.937 1662.58 542.889ZM1611.38 622.132C1592.38 631.132 1569.61 623.037 1560.61 603.988C1551.61 584.987 1559.71 562.224 1578.76 553.223C1597.76 544.223 1620.53 552.318 1629.53 571.367C1638.53 590.368 1630.43 613.131 1611.38 622.132Z" fill="#C4C4C4"/>
<path opacity="0.31" d="M97.88 1509.47C84.6399 1507.33 71.0665 1506.42 58.6838 1501.37C43.7768 1495.28 30.4891 1480.37 33.5848 1464.56C36.2519 1450.94 50.3016 1441.99 64.1131 1440.37C77.9247 1438.75 91.641 1442.75 105.119 1446.18C127.98 1451.99 151.221 1456.28 174.653 1458.94C208.658 1462.8 245.521 1464.28 272.096 1485.75C289.765 1499.99 302.624 1522.8 324.913 1526.99C329.533 1527.85 334.343 1527.85 338.82 1529.28C343.297 1530.71 347.679 1534.04 348.298 1538.71C349.631 1548.33 326.009 1549.42 319.293 1551.28C299.814 1556.61 281.335 1563.71 262.19 1569.23C241.996 1575.04 220.374 1573.28 199.752 1571.42C179.035 1569.52 155.698 1566.19 143.696 1549.19C137.457 1540.38 135.219 1528.85 127.551 1521.18C121.836 1515.47 113.835 1512.71 105.929 1510.99C103.262 1510.42 100.547 1509.9 97.88 1509.47Z" fill="#C4C4C4"/>
<path d="M40.97 1426.18C38.5411 1437.13 41.1605 1448.04 47.2566 1456.46C52.4479 1463.66 60.1633 1468.99 69.4504 1471.08C79.7852 1473.37 89.7867 1471.66 97.8355 1466.23L304.818 1510.9L316.487 1458.37L109.075 1413.61C101.407 1404.6 93.7873 1399.32 85.7385 1397.56C75.9751 1395.41 65.926 1397.22 57.4486 1402.65C48.9712 1408.03 43.1132 1416.42 40.97 1426.18ZM69.5456 1424.42C69.7361 1424.32 69.9266 1424.13 70.1171 1424.03C71.022 1423.61 71.8793 1423.32 72.7366 1423.13C72.9271 1423.08 73.1176 1422.99 73.2605 1422.99C73.2605 1423.03 73.2605 1423.03 73.2605 1423.08C75.1655 1422.75 77.0705 1422.8 79.1185 1423.22C79.1661 1423.22 79.2613 1423.27 79.309 1423.27C84.2144 1424.27 88.0722 1430.27 87.6911 1435.13C87.2625 1440.32 83.6906 1445.18 78.4041 1446.23C78.3564 1446.23 78.3088 1446.23 78.2612 1446.27C78.8803 1446.04 79.4995 1445.85 80.071 1445.61C77.4039 1446.61 74.7845 1447.04 71.9269 1446.13C69.1646 1445.27 66.2118 1443.04 64.9259 1440.32C62.4493 1435.04 63.7352 1427.13 69.5456 1424.42Z" fill="black"/>
<path d="M100.27 1450.23L307.252 1494.85" stroke="white" stroke-miterlimit="10"/>
<path d="M105.074 1429.65L312.009 1474.28" stroke="white" stroke-miterlimit="10"/>
<path d="M280.433 1481.89C277.528 1495.09 279.909 1508.61 287.148 1519.99C287.672 1520.85 288.244 1521.71 288.863 1522.52C296.102 1532.56 306.675 1539.52 318.867 1542.18C330.297 1544.71 342.347 1543.18 352.777 1537.85L359.635 1534.33L321.248 1507.85L342.013 1477.75L379.733 1503.8L380.21 1495.66C381.638 1470.8 365.017 1448.8 340.728 1443.42C313.533 1437.46 286.482 1454.7 280.433 1481.89Z" fill="white" stroke="black" stroke-miterlimit="10"/>
<path opacity="0.31" d="M428.486 1450.61C402.578 1447.7 371.525 1438.37 365.858 1412.94C360.952 1390.84 380.193 1369.36 401.863 1362.94C423.533 1356.51 446.774 1360.84 469.159 1364.08C502.164 1368.84 738.008 1372.03 731.34 1418.7C728.006 1442.23 615.371 1447.18 593.51 1449.46C538.74 1455.27 483.351 1456.75 428.486 1450.61Z" fill="#C4C4C4"/>
<path d="M626.812 1375.89L623.002 1390.89L444.262 1359.55L448.072 1344.55L626.812 1375.89Z" fill="black"/>
<path d="M756.396 1379.41C756.777 1379.89 757.11 1380.36 757.443 1380.84C762.111 1387.46 763.921 1395.46 762.492 1403.32C759.587 1419.7 743.394 1430.7 726.486 1427.84L552.461 1398.37L561.415 1340.98L736.726 1367.79C744.584 1369.17 751.538 1373.27 756.396 1379.41Z" fill="white" stroke="black" stroke-miterlimit="10"/>
<path d="M479.783 1322.55L502.786 1355.36L498.357 1368.7L468.591 1388.79L400.914 1360.27L407.915 1322.41L479.783 1322.55Z" fill="white" stroke="black" stroke-miterlimit="10"/>
<path d="M602.508 1367.46L762.865 1393.13" stroke="black" stroke-miterlimit="10"/>
<path d="M598.988 1387.32L759.393 1412.99" stroke="black" stroke-miterlimit="10"/>
<path d="M566.508 1400.75L577.843 1342.65" stroke="black" stroke-miterlimit="10"/>
<path d="M422.105 1358.65L459.921 1373.13" stroke="black" stroke-miterlimit="10"/>
<path d="M561.889 620.797C543.934 618.273 525.408 623.797 508.262 626.559C501.261 627.94 494.26 629.321 487.211 630.702C478.448 632.512 469.256 633.702 461.112 637.559C448.634 643.417 439.728 654.846 432.68 666.656C425.44 678.752 419.63 691.658 413.867 704.516C404.485 725.422 396.15 746.566 387.53 767.567C387.006 768.805 387.578 770.234 388.816 770.805C401.532 776.71 414.01 783.139 426.393 789.759C426.965 790.044 427.631 789.806 427.822 789.187C431.156 778.568 474.114 708.23 484.211 703.278C489.497 700.706 497.356 700.373 503.119 698.706C516.073 694.944 528.694 690.134 540.886 684.372C552.126 679.038 562.937 672.847 573.224 665.894C576.701 663.561 579.606 660.37 581.32 656.608C589.417 638.798 580.368 623.368 561.889 620.797Z" fill="white" stroke="black" stroke-miterlimit="10"/>
<path d="M1106.5 873.002C1102.92 867.049 1099.21 861.097 1096.26 854.668C1094.54 850.953 1092.83 847.096 1089.83 844.334C1085.44 840.333 1079.16 839.381 1073.25 838.571C1064.63 837.428 1055.77 836.286 1047.3 838.381C1043.82 839.238 1040.34 840.714 1037.82 843.286C1030.72 850.524 1037.49 863.43 1044.44 868.383C1052.01 873.716 1061.06 874.859 1068.39 880.86C1075.68 886.86 1080.06 895.67 1084.06 904.004C1088.02 912.195 1091.97 920.338 1095.92 928.529C1096.68 930.053 1097.59 931.767 1099.21 932.291C1100.11 932.577 1101.11 932.434 1102.07 932.243C1112.16 929.958 1118.16 918.909 1118.5 908.575C1118.97 894.86 1113.02 883.955 1106.5 873.002Z" fill="white" stroke="black" stroke-miterlimit="10"/>
<path d="M483.026 689.944C489.741 696.087 497.933 700.944 505.505 703.135C514.554 705.754 525.413 703.992 531.366 696.706C536.796 689.992 538.748 678.658 547.321 677.372C549.845 676.991 552.369 677.705 554.751 678.515C566.705 682.467 578.564 689.087 591.042 687.229C598.995 686.039 606.187 681.42 611.569 675.372C617.712 668.419 621.761 658.99 619.951 649.846C616.331 631.56 592.709 627.655 577.659 626.797C557.275 625.559 536.462 625.797 516.555 621.321C501.838 617.987 489.313 618.702 477.692 630.798C466.738 642.227 464.785 660.704 471.548 675.038C474.025 680.324 478.121 685.467 483.026 689.944Z" fill="white" stroke="black" stroke-miterlimit="10"/>
<path d="M597.472 576.939C573.135 579.415 565.42 595.606 552.847 613.988C542.464 629.227 532.653 651.8 546.084 667.801C556.895 680.706 571.183 686.469 585.28 694.612C597.234 701.47 606.855 706.803 622.047 706.184C658.957 704.66 696.296 708.803 733.587 708.613C757.448 708.47 780.356 708.66 803.312 701.422C823.41 695.088 830.649 675.563 835.936 656.134C841.318 636.323 844.128 607.988 830.316 590.558C828.554 588.32 826.506 586.272 824.125 584.415C820.648 581.701 816.6 579.891 812.504 578.224C804.741 575.034 796.216 572.224 788.024 574.129C786.167 574.557 784.405 575.224 782.595 575.796C765.926 580.844 749.59 582.987 732.206 584.844C712.632 586.939 692.391 585.034 672.912 583.034C648.289 580.51 622.381 574.415 597.472 576.939Z" fill="white" stroke="black" stroke-miterlimit="10"/>
<path d="M1054.58 861.003C1055.68 854.526 1057.92 837.144 1053.58 832.906C1049.44 828.858 1043.63 828.429 1038.39 827.239C1031.53 825.667 1024.72 823.286 1017.96 821.334C1003.96 817.286 989.956 813.238 975.954 809.142C953.141 802.475 931.471 794.237 909.563 785.093C879.892 772.759 849.078 758.854 817.121 762.14C809.501 762.902 802.5 765.759 795.118 767.331C786.926 769.093 778.259 772.093 771.496 777.141C761.066 784.903 758.494 798.475 762.971 810.333C773.829 839.097 803.31 840.478 828.742 847.288C841.935 850.812 855.984 851.478 869.558 852.669C915.183 856.574 960.714 861.955 1005.96 868.765C1017.44 870.479 1028.87 872.289 1040.3 874.242C1043.44 874.765 1047.44 876.003 1051.16 876.384C1052.44 871.289 1053.68 866.193 1054.58 861.003Z" fill="black"/>
<path d="M781.156 831.573C783.109 832.097 785.109 832.144 787.205 831.62C811.399 825.43 832.449 803.857 846.975 784.713C870.264 753.949 884.457 717.9 906.365 686.517C913.08 676.897 922.129 670.23 927.701 659.896C937.608 641.562 942.37 616.989 938.56 596.416C931.131 556.652 885.076 544.937 850.071 550.842C827.115 554.7 806.636 568.034 783.776 572.32C780.918 572.844 777.87 573.32 775.584 575.129C774.822 575.701 774.298 576.844 773.917 578.272C774.012 606.131 774.155 633.942 773.727 661.849C773.488 679.183 775.489 701.422 773.155 715.661C771.726 724.424 764.773 734.091 762.01 742.806C755.533 763.236 753.485 785.142 760.677 805.714C763.535 814 771.155 828.906 781.156 831.573Z" fill="black"/>
<path d="M656.812 652.181C657.241 653.086 657.717 653.991 658.146 654.848L656.812 652.181Z" fill="#262525"/>
<path d="M649.529 622.703C657.531 609.655 664.722 594.845 670.533 579.368C678.057 559.462 683.344 538.46 685.439 518.888C687.392 500.649 686.297 482.219 685.154 463.932C681.915 410.215 681.106 355.64 675.248 302.161C669.723 304.923 629.765 308.638 629.955 307.304C622.668 366.832 615.334 426.359 608.047 485.886C606.333 499.934 604.57 514.078 599.998 527.46C595.236 541.318 587.616 553.985 580.519 566.795C568.422 588.606 540.371 627.227 545.752 652.419" fill="white"/>
<path d="M649.529 622.703C657.531 609.655 664.722 594.845 670.533 579.368C678.057 559.462 683.344 538.46 685.439 518.888C687.392 500.649 686.297 482.219 685.154 463.932C681.915 410.215 681.106 355.64 675.248 302.161C669.723 304.923 629.765 308.638 629.955 307.304C622.668 366.832 615.334 426.359 608.047 485.886C606.333 499.934 604.57 514.078 599.998 527.46C595.236 541.318 587.616 553.985 580.519 566.795C568.422 588.606 540.371 627.227 545.752 652.419" stroke="black" stroke-miterlimit="10"/>
<path d="M774.926 711.232C790.023 682.325 808.264 655.085 829.219 630.084" stroke="white" stroke-miterlimit="10"/>
<path d="M661.185 642.846C660.28 635.131 658.709 627.702 657.899 619.94C657.518 616.13 657.089 612.273 655.994 608.606C655.899 608.273 655.756 607.939 655.613 607.606C648.088 623.131 634.562 635.084 620.703 645.322C633.657 652.609 646.564 659.847 659.518 667.133C663.186 669.229 661.519 645.656 661.185 642.846Z" fill="black"/>
<path d="M524.121 649.8C524.169 652.324 522.025 655.229 520.549 656.991C543.219 668.42 547.22 714.661 545.029 736.567C543.552 751.33 539.218 765.711 538.028 780.474C536.218 802.428 541.838 825.715 556.888 841.763C575.128 861.288 605.752 867.289 630.756 857.812C655.759 848.383 674.381 824.858 679.858 798.713C693.336 734.472 630.756 677.802 590.75 636.371C574.986 620.037 554.983 608.56 531.646 609.465C524.597 609.75 517.644 611.084 510.738 612.655C493.212 616.703 477.305 623.037 468.256 639.085C462.779 648.752 453.063 656.134 450.158 666.896C448.015 674.849 450.348 684.04 456.492 689.517C462.636 695.041 472.352 696.327 479.448 692.088C495.117 682.754 490.021 648.324 511.167 649.372C510.69 647.514 512.119 645.562 513.834 644.8C515.596 643.99 517.596 644.038 519.501 644.086C520.359 644.133 521.263 644.133 522.073 644.514C523.835 645.324 524.121 648.038 524.121 649.8Z" fill="black"/>
<path d="M512.209 698.04C510.59 693.087 511.78 687.325 515.257 683.468L512.209 698.04Z" fill="white"/>
<path d="M512.209 698.04C510.59 693.087 511.78 687.325 515.257 683.468" stroke="black" stroke-miterlimit="10"/>
<path d="M933.56 636.799C924.511 659.896 906.794 678.802 898.031 702.041" stroke="white" stroke-miterlimit="10"/>
<path opacity="0.31" d="M1570.47 1412.7C1568.57 1416.18 1567.57 1419.94 1567.71 1424.13C1568.04 1431.94 1573.95 1438.7 1581.04 1441.99C1588.14 1445.27 1596.19 1445.65 1604 1445.42C1628.62 1444.56 1652.58 1437.65 1675.34 1428.56C1695.49 1420.51 1719.59 1412.37 1735.26 1396.94C1739.21 1393.03 1741.88 1386.7 1738.83 1382.08C1736.59 1378.65 1732.11 1377.56 1728.07 1376.89C1697.54 1371.65 1665.91 1373.13 1635.91 1380.75C1618.91 1384.98 1581.04 1393.6 1570.47 1412.7Z" fill="#C4C4C4"/>
<path d="M1698.11 1180.21C1698.16 1179.4 1698.26 1178.59 1698.4 1177.78C1699.87 1168.88 1706.88 1162.11 1711.69 1154.45C1716.35 1147.02 1719.02 1138.35 1719.4 1129.59C1720.07 1113.16 1719.59 1092.06 1726.69 1076.82C1733.07 1063.11 1748.26 1055.63 1756.03 1042.77C1760.31 1035.63 1761.65 1027.2 1763.55 1019.11C1766.6 1006.2 1771.5 993.486 1780.12 983.438C1786.84 975.628 1795.56 969.818 1804.13 964.104C1812.46 958.532 1820.89 952.912 1830.37 949.579C1842.8 945.198 1856.56 943.769 1862.33 956.532C1866.99 966.866 1864.61 981.486 1859.71 991.2C1855.47 999.677 1848.71 1006.53 1842.37 1013.58C1831.37 1025.77 1821.27 1038.82 1812.22 1052.49C1809.7 1056.3 1807.18 1060.35 1806.6 1064.92C1806.03 1069.35 1807.41 1073.73 1807.94 1078.16C1810.75 1100.54 1801.51 1118.64 1784.22 1132.26C1770.55 1143.02 1762.07 1149.11 1758.6 1167.73C1756.45 1179.26 1755.5 1191.5 1749.12 1201.31C1746.5 1205.31 1743.07 1208.74 1739.98 1212.36C1728.45 1225.88 1721.31 1243.02 1719.73 1260.69C1718.97 1269.55 1717.07 1289.5 1702.88 1285.46C1685.49 1280.55 1687.59 1229.74 1692.68 1217.69C1694.87 1212.59 1698.11 1207.83 1699.16 1202.36C1700.54 1195.12 1697.73 1187.55 1698.11 1180.21Z" fill="black"/>
<path d="M1624.43 1217.26C1624.29 1210.78 1625.24 1204.07 1627.48 1197.07C1630.24 1188.59 1634.72 1180.12 1633.38 1171.31C1631.15 1156.73 1614.38 1148.83 1609.14 1135.07C1602 1116.21 1618.81 1097.25 1622.57 1077.44C1625.76 1060.63 1619.34 1043.73 1615 1027.2C1613.14 1020.06 1602.52 979.438 1623.62 985.915C1626.96 986.962 1629.1 990.153 1630.72 993.201C1640.96 1012.68 1643.53 1037.35 1659.86 1053.35C1666.53 1059.92 1675.2 1064.3 1681.53 1071.16C1691.58 1082.11 1694.54 1098.25 1692.25 1112.97C1688.25 1138.64 1662.91 1155.83 1673.06 1182.12C1677.25 1193.07 1684.49 1202.55 1690.39 1212.64C1702.63 1233.64 1727.54 1317.93 1677.44 1288.84C1650.86 1273.41 1625.1 1248.31 1624.43 1217.26Z" fill="white" stroke="black" stroke-miterlimit="10"/>
<path d="M1723.21 1219.02C1723.5 1218.45 1723.79 1217.93 1724.07 1217.36C1730.31 1205.45 1738.6 1194.74 1745.03 1182.93C1750.22 1173.35 1754.17 1163.07 1759.98 1153.83C1765.79 1144.59 1773.89 1136.21 1784.32 1133.02C1790.75 1131.07 1801.18 1132.26 1806.23 1137.07C1807.89 1138.64 1809.13 1140.59 1810.75 1142.21C1813.66 1145.16 1817.51 1146.92 1821.04 1149.07C1839.09 1159.97 1846.85 1180.54 1853.42 1199.5C1860.61 1220.26 1869.38 1237.88 1872.28 1259.74C1872.95 1264.64 1873.38 1270.31 1869.95 1273.93C1867.09 1276.98 1862.23 1277.41 1858.28 1276.07C1854.33 1274.74 1851.04 1271.93 1847.99 1269.07C1843.99 1265.36 1840.09 1261.41 1837.66 1256.55C1835.61 1252.41 1834.71 1247.79 1832.37 1243.79C1829.61 1239.02 1825.04 1235.64 1820.89 1232.02C1808.75 1221.55 1801.32 1208.97 1792.7 1195.93C1783.98 1199.5 1775.41 1210.88 1765.98 1215.88C1757.74 1220.26 1743.98 1221.83 1739.41 1230.98C1734.88 1239.98 1736.98 1253.02 1733.74 1262.88C1726.5 1284.84 1709.59 1281.69 1711.93 1258.31C1713.21 1244.64 1717.07 1231.26 1723.21 1219.02Z" fill="white" stroke="black" stroke-miterlimit="10"/>
<path d="M1776.55 1260.93H1614.76V1281.17H1627.72L1646.77 1389.03H1744.54L1763.55 1281.17H1776.55V1260.93Z" fill="black"/>
<path d="M1623.19 1282.84H1768.12" stroke="white" stroke-miterlimit="10"/>
<path d="M1622.62 1125.68C1624.8 1125.68 1626.57 1123.91 1626.57 1121.73C1626.57 1119.55 1624.8 1117.78 1622.62 1117.78C1620.44 1117.78 1618.67 1119.55 1618.67 1121.73C1618.67 1123.91 1620.44 1125.68 1622.62 1125.68Z" fill="black"/>
<path d="M1662.11 1137.5C1662.11 1139.69 1660.34 1141.45 1658.15 1141.45C1655.96 1141.45 1654.2 1139.69 1654.2 1137.5C1654.2 1135.3 1655.96 1133.54 1658.15 1133.54C1660.34 1133.59 1662.11 1135.35 1662.11 1137.5Z" fill="black"/>
<path d="M1654.2 1180.92C1654.2 1183.12 1652.44 1184.88 1650.25 1184.88C1648.06 1184.88 1646.29 1183.12 1646.29 1180.92C1646.29 1178.73 1648.06 1176.97 1650.25 1176.97C1652.44 1176.97 1654.2 1178.73 1654.2 1180.92Z" fill="black"/>
<path d="M1677.87 1094.11C1677.87 1096.3 1676.1 1098.06 1673.91 1098.06C1671.72 1098.06 1669.96 1096.3 1669.96 1094.11C1669.96 1091.92 1671.72 1090.16 1673.91 1090.16C1676.1 1090.16 1677.87 1091.92 1677.87 1094.11Z" fill="black"/>
<path d="M1630.52 1015.2C1630.52 1017.39 1628.76 1019.15 1626.57 1019.15C1624.38 1019.15 1622.61 1017.39 1622.61 1015.2C1622.61 1013.01 1624.38 1011.25 1626.57 1011.25C1628.76 1011.25 1630.52 1013.01 1630.52 1015.2Z" fill="black"/>
<path d="M1681.82 1232.21C1684 1232.21 1685.77 1230.44 1685.77 1228.26C1685.77 1226.08 1684 1224.31 1681.82 1224.31C1679.64 1224.31 1677.87 1226.08 1677.87 1228.26C1677.87 1230.44 1679.64 1232.21 1681.82 1232.21Z" fill="black"/>
<path d="M1650.24 1220.4C1650.24 1222.59 1648.48 1224.36 1646.29 1224.36C1644.09 1224.36 1642.33 1222.59 1642.33 1220.4C1642.33 1218.21 1644.09 1216.45 1646.29 1216.45C1648.48 1216.45 1650.24 1218.21 1650.24 1220.4Z" fill="black"/>
<path d="M1646.33 1074.4C1646.33 1076.59 1644.57 1078.35 1642.38 1078.35C1640.19 1078.35 1638.43 1076.59 1638.43 1074.4C1638.43 1072.21 1640.19 1070.44 1642.38 1070.44C1644.52 1070.44 1646.33 1072.21 1646.33 1074.4Z" fill="black"/>
<path opacity="0.31" d="M884.233 1642.1C857.467 1636.76 830.892 1630 804.602 1622.67C779.884 1615.81 753.833 1607.52 737.211 1588C687.204 1529.37 768.74 1468.85 811.889 1443.61C847.132 1422.99 889.091 1398.75 931.144 1404.84C955.005 1408.27 977.485 1418.04 999.44 1428.04C1072.64 1461.37 1145.8 1498.85 1225.52 1509.61C1242.24 1511.85 1380.73 1515.52 1374.4 1538.09C1373.3 1542.04 1370.02 1544.99 1366.83 1547.61C1337.73 1571.19 1301.44 1583.76 1265.91 1595.71C1176.18 1625.81 1084.12 1654.95 989.486 1653.95C954.005 1653.62 918.952 1649.05 884.233 1642.1Z" fill="#C4C4C4"/>
<path d="M933.486 1465.56C921.865 1486.8 940.011 1502.13 955.156 1516.42C959.299 1520.33 963.776 1524.04 968.967 1526.28C978.016 1530.14 988.304 1529.23 998.115 1528.14C1068.41 1520.33 1140.04 1510.85 1209.15 1495.99C1225.39 1492.51 1241.48 1488.23 1257.68 1484.56C1278.77 1479.8 1300.73 1470.61 1320.88 1462.56C1341.36 1454.42 1360.45 1442.89 1377.22 1428.61C1377.5 1428.37 1377.79 1428.08 1378.08 1427.84C1380.98 1426.08 1383.5 1423.99 1385.5 1420.41C1394.17 1410.51 1400.17 1398.18 1395.17 1386.65C1389.41 1373.36 1372.6 1369.55 1358.17 1368.41C1315.07 1364.98 1271.87 1369.65 1229.24 1376.03C1200.53 1380.36 1172.04 1386.46 1143.18 1390.03C1113.85 1393.65 1085.84 1390.41 1056.65 1391.08C1006.26 1392.32 957.775 1421.18 933.486 1465.56Z" fill="black"/>
<path d="M1058.64 1360.65C1040.78 1353.6 1022.4 1360.22 1012.59 1339.89C1009.01 1332.55 1007.35 1324.46 1004.78 1316.74C996.679 1292.84 978.962 1272.41 956.435 1260.98C974.009 1244.45 997.536 1236.17 1018.92 1225.02C1038.54 1214.83 1056.78 1201.88 1072.88 1186.73C1087.74 1172.78 1110.74 1142.87 1098.46 1121.16C1088.55 1103.68 1063.97 1109.16 1048.07 1113.21C1025.92 1118.87 1006.63 1119.92 986.63 1132.97C967.389 1145.54 951.577 1162.49 936.051 1179.45C911.809 1205.88 858.945 1257.55 893.521 1294.65C913.095 1315.65 933.289 1335.74 956.911 1352.17C963.579 1356.79 970.437 1361.22 977.819 1364.46C992.488 1370.94 998.155 1382.89 1012.87 1389.46C1025.11 1394.94 1038.16 1398.94 1051.59 1399.6C1061.55 1400.08 1077.69 1397.79 1078.64 1385.79C1079.5 1374.55 1068.02 1364.36 1058.64 1360.65Z" fill="white" stroke="black" stroke-miterlimit="10"/>
<path d="M1308.16 1328.27C1299.49 1339.74 1284.97 1347.27 1271.11 1344.03C1256.44 1340.6 1246.73 1326.93 1238.82 1314.08C1226.29 1293.65 1214.58 1272.36 1208.29 1249.22C1201.39 1223.74 1198.15 1183.21 1223.44 1166.31C1241.44 1154.26 1270.82 1161.12 1284.73 1176.5C1314.74 1209.74 1334.59 1282.12 1311.45 1323.36C1310.4 1325.03 1309.31 1326.7 1308.16 1328.27Z" fill="white" stroke="black" stroke-miterlimit="10"/>
<path d="M1262.24 1124.73C1240 1101.21 1213.57 1083.87 1178.9 1084.78C1169.56 1085.01 1160.27 1086.54 1150.94 1086.87C1118.17 1088.01 1085.74 1079.87 1054.16 1092.44C1020.49 1105.92 989.248 1125.16 959.72 1146.02C957.339 1147.68 1014.97 1226.74 1021.11 1233.93C1044.97 1216.45 1039.26 1298.79 1038.87 1309.93C1037.92 1337.65 1037.26 1365.7 1042.92 1392.98C1044.3 1391.08 1045.92 1388.98 1048.21 1388.51C1051.02 1387.89 1052.78 1391.27 1055.31 1391.89C1060.64 1393.22 1068.16 1391.84 1073.69 1391.79C1084.26 1391.75 1094.88 1391.79 1105.5 1391.7C1129.94 1391.51 1154.42 1391.41 1178.61 1387.98C1191.28 1386.22 1203.8 1384.41 1216.38 1384.6C1223 1361.6 1220.71 1333.89 1221.33 1311.03C1222 1289.03 1220.23 1267.5 1221.95 1245.6C1253.14 1237.88 1283.82 1227.98 1313.63 1215.97C1315.44 1215.26 1299.34 1178.69 1297.58 1175.16C1290.72 1161.45 1282.53 1148.35 1272.67 1136.54C1269.34 1132.49 1265.86 1128.54 1262.24 1124.73Z" fill="black"/>
<path d="M1088.5 1535.28C1083.98 1539.8 988.68 1560.71 988.68 1560.71L984.203 1512.28L1072.84 1480.56L1088.5 1535.28Z" fill="white" stroke="black" stroke-miterlimit="10"/>
<path d="M1329.58 1477.42C1340.73 1471.04 1351.82 1464.66 1363.83 1460.13C1376.54 1455.37 1390.59 1452.42 1400.4 1443.04C1410.74 1433.08 1414.02 1418.03 1416.79 1403.94C1419.88 1388.27 1419.83 1370.7 1415.5 1355.22C1409.36 1333.22 1391.54 1314.74 1369.11 1309.65C1355.59 1306.6 1341.01 1308.36 1328.58 1314.6C1319.44 1319.22 1311.63 1326.08 1302.58 1330.89C1295.05 1334.89 1286.81 1337.41 1278.86 1340.51C1254.67 1349.94 1232.43 1363.98 1210.42 1377.32C1188.28 1390.7 1168.46 1407.51 1147.08 1421.99C1138.65 1427.7 1049.88 1470.8 1049.88 1470.8C1061.4 1496.42 1071.45 1522.8 1081.97 1548.9C1139.36 1541.14 1194.71 1523.09 1250.52 1508.09C1261.57 1505.13 1271.86 1500.66 1282.96 1498.13C1295.48 1495.28 1307.2 1489.75 1318.39 1483.66C1322.2 1481.66 1325.92 1479.51 1329.58 1477.42Z" fill="black"/>
<path d="M985.496 1565.8C967.922 1569.28 950.301 1565.52 931.346 1563.47C916.581 1561.9 901.436 1564.61 886.768 1562.33C867.146 1559.33 851.905 1545.42 850.477 1525.85C849.667 1514.8 849.238 1502.51 856.525 1494.18C862.478 1487.37 872.337 1485.08 881.338 1485.94C890.34 1486.75 898.865 1490.23 907.437 1493.18C922.058 1498.23 937.156 1501.85 952.301 1505.04C964.541 1507.66 975.114 1513.75 987.258 1507.71C987.925 1507.37 988.64 1507.04 989.354 1507.28C990.068 1507.51 990.449 1508.37 990.688 1509.09C995.022 1521.28 998.927 1533.56 1002.36 1546.04C1004.17 1552.52 1007.12 1556.28 1001.83 1560.28C997.641 1563.38 990.545 1564.8 985.496 1565.8Z" fill="black"/>
<path d="M1175.38 1535.28C1179.9 1539.8 1275.2 1560.71 1275.2 1560.71L1279.68 1512.28L1191.04 1480.56L1175.38 1535.28Z" fill="white" stroke="black" stroke-miterlimit="10"/>
<path d="M931.054 1483.09C912.718 1476.18 894.906 1468.04 878.046 1457.89C872.379 1454.47 866.759 1450.75 862.711 1445.51C856.996 1438.13 855.091 1428.56 853.328 1419.37C846.804 1385.13 837.612 1359.03 862.425 1329.93C882.618 1306.27 915.099 1297.08 942.58 1314.17C960.439 1325.27 972.441 1345.41 992.254 1352.41C1002.92 1356.17 1015.16 1355.41 1025.45 1360.22C1034.93 1364.6 1044.31 1371.89 1053.41 1377.37C1075.55 1390.75 1095.36 1407.56 1116.75 1422.04C1125.18 1427.75 1213.95 1470.85 1213.95 1470.85C1202.43 1496.47 1192.38 1522.85 1181.85 1548.95C1124.46 1541.18 1069.12 1523.14 1013.3 1508.14C985.681 1500.71 957.82 1493.18 931.054 1483.09Z" fill="black"/>
<path d="M1278.39 1565.8C1295.97 1569.28 1313.59 1565.52 1332.54 1563.47C1347.31 1561.9 1362.45 1564.61 1377.12 1562.33C1395.69 1559.47 1416.84 1541.04 1417.7 1521.37C1417.94 1515.23 1416.36 1509.13 1414.03 1503.42C1412.79 1500.42 1411.36 1497.47 1409.36 1494.94C1404.84 1489.23 1397.69 1485.9 1390.41 1485.23C1379.26 1484.18 1368.12 1487.8 1357.59 1490.9C1346.73 1494.09 1336.73 1495.8 1326.21 1500.32C1312.73 1506.13 1297.63 1508.23 1283.06 1506.28C1279.25 1505.75 1275.34 1504.99 1271.68 1506.09C1263.44 1508.52 1264.25 1520.9 1263.63 1527.71C1262.67 1537.95 1262.2 1548.47 1258.05 1558.04C1264.87 1562.04 1271.63 1564.42 1278.39 1565.8Z" fill="black"/>
<path d="M1235.91 1167.54C1235.91 1167.4 1235.91 1167.26 1235.91 1167.12C1235.67 1163.11 1235.43 1159.07 1235.19 1155.07C1235.05 1152.97 1234.95 1150.88 1235.29 1148.83C1236.29 1142.54 1241.29 1137.78 1245.96 1133.49C1249.48 1130.26 1279.44 1101.02 1281.72 1102.73C1291.06 1109.83 1296.82 1103.49 1303.63 1096.21C1305.73 1093.97 1307.82 1091.35 1307.77 1088.3C1307.68 1085.25 1304.01 1082.4 1301.58 1084.21C1307.01 1078.21 1312.3 1072.06 1317.4 1065.82C1321.92 1060.3 1326.4 1056.92 1323.3 1049.63C1318.35 1037.87 1308.01 1029.01 1296.58 1023.44C1287.53 1019.01 1273.01 1012.82 1262.72 1013.58C1251.34 1014.44 1245.48 1024.01 1236.95 1029.87C1236.57 1030.11 1236.15 1030.39 1235.72 1030.35C1235.19 1030.3 1234.76 1029.87 1234.34 1029.49C1231.19 1026.63 1226 1027.15 1222.57 1029.73C1219.14 1032.25 1217.19 1036.3 1215.62 1040.25C1214.62 1042.77 1213.76 1045.54 1214.24 1048.2C1214.76 1050.87 1217.14 1053.39 1219.86 1053.11C1217.71 1053.44 1214.19 1069.63 1213.62 1071.73C1210.71 1082.02 1204.38 1087.83 1197.19 1095.78C1190.71 1102.97 1182.85 1110.68 1173.18 1110.3C1168.9 1110.11 1163.56 1108.68 1161.09 1112.21C1160.23 1113.4 1160.04 1114.87 1159.9 1116.35C1158.18 1137.54 1171.8 1156.35 1188.9 1167.5C1197.85 1173.26 1236.76 1189.21 1235.91 1167.54Z" fill="white" stroke="black" stroke-miterlimit="10"/>
<path d="M1229.95 1417.42H986.062C981.681 1417.42 978.156 1413.89 978.156 1409.51V1262.41C978.156 1258.03 981.681 1254.5 986.062 1254.5H1229.95C1234.34 1254.5 1237.86 1258.03 1237.86 1262.41V1409.51C1237.86 1413.89 1234.34 1417.42 1229.95 1417.42Z" fill="#FA620E"/>
<path d="M1123.28 1330.89C1123.28 1339.31 1116.42 1346.17 1107.99 1346.17C1099.56 1346.17 1092.7 1339.31 1092.7 1330.89C1092.7 1322.46 1099.56 1315.6 1107.99 1315.6C1116.46 1315.6 1123.28 1322.41 1123.28 1330.89Z" fill="black"/>
<path d="M1346.55 1020.87C1346.31 1019.3 1345.88 1017.68 1345.31 1016.2C1343.74 1012.2 1341.02 1008.63 1337.21 1006.68C1334.26 1005.15 1330.93 1004.63 1327.64 1004.39C1323.78 1004.06 1319.92 1004.01 1316.07 1004.25C1312.35 1004.44 1308.64 1004.92 1304.92 1004.68C1299.11 1004.3 1293.59 1002.25 1288.21 1000.15C1282.78 998.105 1277.25 995.962 1271.49 995.534C1259.49 994.581 1250.96 1003.77 1243.72 1012.2C1235.63 1021.68 1229.44 1032.63 1223.58 1043.58C1212.15 1064.78 1208.67 1091.02 1230.2 1107.49C1258.39 1129.06 1291.97 1099.63 1313.07 1081.63C1317.4 1077.97 1322.26 1075.49 1326.12 1071.16C1330.4 1066.39 1333.69 1060.82 1336.69 1055.2C1339.64 1049.73 1342.36 1044.11 1344.36 1038.2C1346.21 1032.63 1347.45 1026.73 1346.55 1020.87ZM1250.58 1092.25C1246.25 1091.25 1241.48 1089.87 1237.91 1087.11C1235.34 1085.16 1238.29 1080.97 1240.77 1083.01C1243.77 1085.49 1248.2 1086.44 1251.87 1087.44C1254.63 1088.21 1253.34 1092.87 1250.58 1092.25ZM1317.83 1055.06C1317.02 1058.11 1315.21 1060.82 1313.21 1063.44C1304.3 1075.2 1291.4 1090.06 1278.44 1097.4C1277.97 1097.68 1277.44 1097.92 1276.97 1098.16C1273.44 1086.06 1269.06 1074.11 1257.96 1066.97C1248.25 1060.73 1236.72 1059.73 1225.53 1061.2C1229.53 1044.44 1242.34 1018.73 1261.92 1018.49C1269.2 1018.39 1276.06 1021.77 1282.01 1025.92C1287.97 1030.11 1293.3 1035.11 1299.4 1039.06C1306.3 1043.58 1320.64 1044.39 1317.83 1055.06Z" fill="black"/>
<path d="M1276.01 1111.11C1276.58 1109.63 1277.24 1108.21 1277.91 1106.78C1283.2 1095.78 1294.91 1091.2 1304.01 1083.35C1309.63 1078.54 1315.39 1074.73 1321.25 1070.25C1324.06 1068.11 1326.39 1064.87 1329.3 1063.06C1331.2 1061.92 1333.82 1061.68 1335.49 1063.2C1336.78 1064.35 1337.16 1066.25 1337.25 1067.97C1338.01 1079.3 1331.68 1088.11 1326.16 1097.25C1321.3 1105.25 1313.73 1110.25 1308.68 1118.02C1303.72 1125.64 1304.53 1135.49 1305.53 1144.54C1307.2 1159.73 1308.87 1174.92 1310.53 1190.12C1312.11 1204.35 1315.68 1216.26 1319.06 1230.07C1324.3 1251.21 1323.97 1275.83 1324.35 1297.5C1324.77 1319.27 1310.34 1345.36 1287.77 1349.93C1242.33 1359.13 1252.19 1294.93 1251 1269.12C1250.05 1248.59 1254.95 1227.64 1259.57 1207.88C1264.43 1187.21 1264.96 1165.83 1267.96 1144.87C1269.58 1133.54 1271.67 1121.78 1276.01 1111.11Z" fill="white" stroke="black" stroke-miterlimit="10"/>
<path d="M1275.83 1326.93C1275.87 1328.84 1275.83 1330.65 1275.54 1332.27C1274.87 1336.27 1272.02 1340.17 1268.02 1340.79C1263.73 1341.46 1259.87 1338.31 1256.97 1335.12C1245.39 1322.36 1239.39 1305.84 1239.58 1288.69C1239.63 1283.84 1240.15 1278.69 1242.96 1274.74C1245.77 1270.74 1251.54 1268.5 1255.68 1271.07C1258.49 1272.79 1259.82 1276.12 1260.97 1279.22C1264.82 1289.6 1268.68 1300.03 1272.54 1310.41C1274.21 1314.88 1275.64 1321.31 1275.83 1326.93Z" fill="white"/>
<path d="M1291.92 1330.89C1289.73 1332.31 1287.35 1333.31 1284.73 1333.03C1282.78 1332.79 1282.54 1335.79 1284.3 1336.31C1288.2 1337.46 1291.87 1336.55 1294.35 1333.27C1295.44 1331.89 1293.35 1329.98 1291.92 1330.89Z" fill="black"/>
<path d="M899.958 1272.31C898.005 1270.45 896.767 1267.88 897.148 1265.12C897.434 1263.12 896.624 1261.12 894.529 1260.5C892.766 1259.98 890.195 1261.12 889.909 1263.12C889.099 1268.55 890.576 1273.79 894.624 1277.6C898.148 1280.93 903.482 1275.6 899.958 1272.31Z" fill="black"/>
<path d="M1043.12 1520.04C1066.84 1525.85 1090.79 1530.66 1114.89 1534.47" stroke="white" stroke-miterlimit="10"/>
<path d="M1202.71 1497.42C1205.95 1489.9 1209.33 1482.42 1212.9 1475.04C1181.99 1457.7 1151.89 1439.23 1121.32 1421.42" stroke="white" stroke-miterlimit="10"/>
<path d="M1003.59 1504.18C981.112 1498.8 959.014 1491.75 937.582 1483.13" stroke="white" stroke-miterlimit="10"/>
</svg>
