<svg width="4021" height="5170" viewBox="0 0 4021 5170" fill="none" xmlns="http://www.w3.org/2000/svg">
<path d="M3741.64 674.506L3741.64 537.956L3279.03 537.956L3279.02 75.3591L3142.48 75.3502L3142.48 674.506L3741.64 674.506Z" fill="#FA620E" fill-opacity="0.04"/>
<path d="M1373.14 2243.91L1373.14 2107.36L910.537 2107.36L910.527 1644.77L773.987 1644.76L773.987 2243.91L1373.14 2243.91Z" fill="#FA620E" fill-opacity="0.04"/>
<path d="M4867.69 -95.8102L4867.69 -232.36L4405.08 -232.36L4405.07 -694.957L4268.53 -694.966L4268.53 -95.8102L4867.69 -95.8102Z" fill="#FA620E" fill-opacity="0.04"/>
<path d="M2499.19 1473.6L2499.19 1337.05L2036.58 1337.05L2036.57 874.448L1900.03 874.439L1900.03 1473.6L2499.19 1473.6Z" fill="#FA620E" fill-opacity="0.04"/>
<path d="M4761.75 1701.16L4761.75 1564.61L4299.14 1564.61L4299.13 1102.01L4162.59 1102L4162.59 1701.16L4761.75 1701.16Z" fill="#FA620E" fill-opacity="0.04"/>
<path d="M2393.26 3270.56L2393.26 3134.01L1930.65 3134.01L1930.64 2671.42L1794.1 2671.41L1794.1 3270.56L2393.26 3270.56Z" fill="#FA620E" fill-opacity="0.04"/>
<path d="M3519.3 2500.25L3519.3 2363.7L3056.7 2363.7L3056.69 1901.1L2920.15 1901.09L2920.15 2500.25L3519.3 2500.25Z" fill="#FA620E" fill-opacity="0.04"/>
<path d="M3466.99 4327.3L3466.99 4190.75L3004.38 4190.75L3004.37 3728.15L2867.83 3728.14L2867.83 4327.3L3466.99 4327.3Z" fill="#FA620E" fill-opacity="0.04"/>
<path d="M4593.04 3556.98L4593.04 3420.43L4130.43 3420.43L4130.42 2957.83L3993.88 2957.83L3993.88 3556.98L4593.04 3556.98Z" fill="#FA620E" fill-opacity="0.04"/>
<path d="M2374.96 674.506L2374.96 537.956L2837.57 537.956L2837.58 75.3591L2974.12 75.3502L2974.12 674.506L2374.96 674.506Z" fill="#FA620E" fill-opacity="0.04"/>
<path d="M6.47051 2243.91L6.47009 2107.36L469.077 2107.36L469.087 1644.77L605.626 1644.76L605.626 2243.91L6.47051 2243.91Z" fill="#FA620E" fill-opacity="0.04"/>
<path d="M3501.01 -95.8102L3501.01 -232.36L3963.62 -232.36L3963.63 -694.957L4100.17 -694.966L4100.17 -95.8102L3501.01 -95.8102Z" fill="#FA620E" fill-opacity="0.04"/>
<path d="M1132.52 1473.6L1132.52 1337.05L1595.12 1337.05L1595.13 874.448L1731.67 874.439L1731.67 1473.6L1132.52 1473.6Z" fill="#FA620E" fill-opacity="0.04"/>
<path d="M3395.08 1701.16L3395.08 1564.61L3857.69 1564.61L3857.7 1102.01L3994.24 1102L3994.24 1701.16L3395.08 1701.16Z" fill="#FA620E" fill-opacity="0.04"/>
<path d="M1026.58 3270.56L1026.58 3134.01L1489.19 3134.01L1489.2 2671.42L1625.74 2671.41L1625.74 3270.56L1026.58 3270.56Z" fill="#FA620E" fill-opacity="0.04"/>
<path d="M2152.63 2500.25L2152.63 2363.7L2615.24 2363.7L2615.25 1901.1L2751.79 1901.09L2751.79 2500.25L2152.63 2500.25Z" fill="#FA620E" fill-opacity="0.04"/>
<path d="M2100.32 4327.3L2100.32 4190.75L2562.92 4190.75L2562.93 3728.15L2699.47 3728.14L2699.47 4327.3L2100.32 4327.3Z" fill="#FA620E" fill-opacity="0.04"/>
<path d="M3226.37 3556.98L3226.36 3420.43L3688.97 3420.43L3688.98 2957.83L3825.52 2957.83L3825.52 3556.98L3226.37 3556.98Z" fill="#FA620E" fill-opacity="0.04"/>
<path d="M3741.64 849.406L3741.64 985.956L3279.03 985.956L3279.02 1448.55L3142.48 1448.56L3142.48 849.406L3741.64 849.406Z" fill="#FA620E" fill-opacity="0.04"/>
<path d="M1373.14 2418.81L1373.14 2555.36L910.537 2555.36L910.527 3017.96L773.987 3017.97L773.987 2418.81L1373.14 2418.81Z" fill="#FA620E" fill-opacity="0.04"/>
<path d="M4867.69 79.0895L4867.69 215.64L4405.08 215.639L4405.07 678.237L4268.53 678.245L4268.53 79.0895L4867.69 79.0895Z" fill="#FA620E" fill-opacity="0.04"/>
<path d="M2499.19 1648.5L2499.19 1785.05L2036.58 1785.05L2036.57 2247.64L1900.03 2247.65L1900.03 1648.5L2499.19 1648.5Z" fill="#FA620E" fill-opacity="0.04"/>
<path d="M4761.75 1876.06L4761.75 2012.61L4299.14 2012.61L4299.13 2475.21L4162.59 2475.21L4162.59 1876.06L4761.75 1876.06Z" fill="#FA620E" fill-opacity="0.04"/>
<path d="M2393.26 3445.46L2393.26 3582.01L1930.65 3582.01L1930.64 4044.61L1794.1 4044.62L1794.1 3445.46L2393.26 3445.46Z" fill="#FA620E" fill-opacity="0.04"/>
<path d="M3519.3 2675.15L3519.3 2811.7L3056.7 2811.7L3056.69 3274.29L2920.15 3274.3L2920.15 2675.15L3519.3 2675.15Z" fill="#FA620E" fill-opacity="0.04"/>
<path d="M3466.99 4502.2L3466.99 4638.75L3004.38 4638.75L3004.37 5101.34L2867.83 5101.35L2867.83 4502.2L3466.99 4502.2Z" fill="#FA620E" fill-opacity="0.04"/>
<path d="M4593.04 3731.88L4593.04 3868.43L4130.43 3868.43L4130.42 4331.03L3993.88 4331.04L3993.88 3731.88L4593.04 3731.88Z" fill="#FA620E" fill-opacity="0.04"/>
<path d="M2374.96 849.406L2374.96 985.956L2837.57 985.956L2837.58 1448.55L2974.12 1448.56L2974.12 849.406L2374.96 849.406Z" fill="#FA620E" fill-opacity="0.04"/>
<path d="M6.47051 2418.81L6.47009 2555.36L469.077 2555.36L469.087 3017.96L605.626 3017.97L605.626 2418.81L6.47051 2418.81Z" fill="#FA620E" fill-opacity="0.04"/>
<path d="M3501.01 79.0895L3501.01 215.64L3963.62 215.639L3963.63 678.237L4100.17 678.245L4100.17 79.0895L3501.01 79.0895Z" fill="#FA620E" fill-opacity="0.04"/>
<path d="M1132.52 1648.5L1132.52 1785.05L1595.12 1785.05L1595.13 2247.64L1731.67 2247.65L1731.67 1648.5L1132.52 1648.5Z" fill="#FA620E" fill-opacity="0.04"/>
<path d="M3395.08 1876.06L3395.08 2012.61L3857.69 2012.61L3857.7 2475.21L3994.24 2475.21L3994.24 1876.06L3395.08 1876.06Z" fill="#FA620E" fill-opacity="0.04"/>
<path d="M1026.58 3445.46L1026.58 3582.01L1489.19 3582.01L1489.2 4044.61L1625.74 4044.62L1625.74 3445.46L1026.58 3445.46Z" fill="#FA620E" fill-opacity="0.04"/>
<path d="M2152.63 2675.15L2152.63 2811.7L2615.24 2811.7L2615.25 3274.29L2751.79 3274.3L2751.79 2675.15L2152.63 2675.15Z" fill="#FA620E" fill-opacity="0.04"/>
<path d="M2100.32 4502.2L2100.32 4638.75L2562.92 4638.75L2562.93 5101.34L2699.47 5101.35L2699.47 4502.2L2100.32 4502.2Z" fill="#FA620E" fill-opacity="0.04"/>
<path d="M3226.37 3731.88L3226.36 3868.43L3688.97 3868.43L3688.98 4331.03L3825.52 4331.04L3825.52 3731.88L3226.37 3731.88Z" fill="#FA620E" fill-opacity="0.04"/>
</svg>
