<svg width="4021" height="1805" viewBox="0 0 4021 1805" fill="none" xmlns="http://www.w3.org/2000/svg">
<path d="M3744.64 605.506L3744.64 468.956L3282.03 468.956L3282.02 6.35908L3145.48 6.35022L3145.48 605.506L3744.64 605.506Z" fill="#FA620E" fill-opacity="0.09"/>
<path d="M1376.15 2174.91L1376.15 2038.36L913.539 2038.36L913.529 1575.77L776.989 1575.76L776.989 2174.91L1376.15 2174.91Z" fill="#FA620E" fill-opacity="0.09"/>
<path d="M4870.69 -164.81L4870.69 -301.36L4408.08 -301.36L4408.07 -763.957L4271.53 -763.966L4271.53 -164.81L4870.69 -164.81Z" fill="#FA620E" fill-opacity="0.09"/>
<path d="M2502.19 1404.6L2502.19 1268.05L2039.59 1268.05L2039.58 805.448L1903.04 805.439L1903.04 1404.6L2502.19 1404.6Z" fill="#FA620E" fill-opacity="0.09"/>
<path d="M4764.75 1632.16L4764.75 1495.61L4302.15 1495.61L4302.14 1033.01L4165.6 1033L4165.6 1632.16L4764.75 1632.16Z" fill="#FA620E" fill-opacity="0.09"/>
<path d="M3522.31 2431.25L3522.31 2294.7L3059.7 2294.7L3059.69 1832.1L2923.15 1832.09L2923.15 2431.25L3522.31 2431.25Z" fill="#FA620E" fill-opacity="0.09"/>
<path d="M2377.97 605.506L2377.97 468.956L2840.57 468.956L2840.58 6.35908L2977.12 6.35022L2977.12 605.506L2377.97 605.506Z" fill="#FA620E" fill-opacity="0.09"/>
<path d="M9.47247 2174.91L9.47205 2038.36L472.079 2038.36L472.088 1575.77L608.628 1575.76L608.628 2174.91L9.47247 2174.91Z" fill="#FA620E" fill-opacity="0.09"/>
<path d="M3504.02 -164.81L3504.02 -301.36L3966.62 -301.36L3966.63 -763.957L4103.17 -763.966L4103.17 -164.81L3504.02 -164.81Z" fill="#FA620E" fill-opacity="0.09"/>
<path d="M1135.52 1404.6L1135.52 1268.05L1598.13 1268.05L1598.14 805.448L1734.68 805.439L1734.68 1404.6L1135.52 1404.6Z" fill="#FA620E" fill-opacity="0.09"/>
<path d="M3398.08 1632.16L3398.08 1495.61L3860.69 1495.61L3860.7 1033.01L3997.24 1033L3997.24 1632.16L3398.08 1632.16Z" fill="#FA620E" fill-opacity="0.09"/>
<path d="M2155.63 2431.25L2155.63 2294.7L2618.24 2294.7L2618.25 1832.1L2754.79 1832.09L2754.79 2431.25L2155.63 2431.25Z" fill="#FA620E" fill-opacity="0.09"/>
<path d="M3744.64 780.406L3744.64 916.956L3282.03 916.956L3282.02 1379.55L3145.48 1379.56L3145.48 780.406L3744.64 780.406Z" fill="#FA620E" fill-opacity="0.09"/>
<path d="M4870.69 10.0895L4870.69 146.64L4408.08 146.639L4408.07 609.237L4271.53 609.245L4271.53 10.0895L4870.69 10.0895Z" fill="#FA620E" fill-opacity="0.09"/>
<path d="M2502.19 1579.5L2502.19 1716.05L2039.59 1716.05L2039.58 2178.64L1903.04 2178.65L1903.04 1579.5L2502.19 1579.5Z" fill="#FA620E" fill-opacity="0.09"/>
<path d="M4764.75 1807.06L4764.75 1943.61L4302.15 1943.61L4302.14 2406.21L4165.6 2406.21L4165.6 1807.06L4764.75 1807.06Z" fill="#FA620E" fill-opacity="0.09"/>
<path d="M2377.97 780.406L2377.97 916.956L2840.57 916.956L2840.58 1379.55L2977.12 1379.56L2977.12 780.406L2377.97 780.406Z" fill="#FA620E" fill-opacity="0.09"/>
<path d="M3504.02 10.0895L3504.02 146.64L3966.62 146.639L3966.63 609.237L4103.17 609.245L4103.17 10.0895L3504.02 10.0895Z" fill="#FA620E" fill-opacity="0.09"/>
<path d="M1135.52 1579.5L1135.52 1716.05L1598.13 1716.05L1598.14 2178.64L1734.68 2178.65L1734.68 1579.5L1135.52 1579.5Z" fill="#FA620E" fill-opacity="0.09"/>
<path d="M3398.08 1807.06L3398.08 1943.61L3860.69 1943.61L3860.7 2406.21L3997.24 2406.21L3997.24 1807.06L3398.08 1807.06Z" fill="#FA620E" fill-opacity="0.09"/>
</svg>
