<svg width="653" height="410" viewBox="0 0 653 410" fill="none" xmlns="http://www.w3.org/2000/svg">
<g clip-path="url(#clip0)">
<path d="M440.217 180.453H0V0.0761719H440.217V180.453ZM1.3396 179.113H438.878V1.41577H1.3396V179.113Z" fill="#3F3D56"/>
<path d="M62.1759 68.8224H34.5107C32.6227 57.9083 32.6227 46.7511 34.5107 35.837H62.1759C59.0592 46.6113 59.0592 58.0482 62.1759 68.8224Z" fill="#FF6584"/>
<path d="M86.127 82.8733H113.792C115.68 71.9592 115.68 60.802 113.792 49.8879H86.127C89.2437 60.6622 89.2437 72.0991 86.127 82.8733Z" fill="#E6E6E6"/>
<path d="M264.657 89.6178H302.251C302.511 89.6088 302.758 89.499 302.939 89.3116C303.12 89.1241 303.221 88.8737 303.221 88.6131C303.221 88.3525 303.12 88.1021 302.939 87.9147C302.758 87.7272 302.511 87.6175 302.251 87.6084H264.657C264.397 87.6175 264.15 87.7272 263.969 87.9147C263.788 88.1021 263.687 88.3525 263.687 88.6131C263.687 88.8737 263.788 89.1241 263.969 89.3116C264.15 89.499 264.397 89.6088 264.657 89.6178Z" fill="#E6E6E6"/>
<path d="M301.273 80.1391L307.147 85.5002C307.818 86.1133 309.666 87.3791 310.083 88.1807C310.946 89.8381 310.019 89.46 308.541 90.0344C304.907 91.4802 301.559 93.5593 298.652 96.1748C297.68 97.0314 299.105 98.4481 300.073 97.5956C302.724 95.2126 305.77 93.3096 309.075 91.972C310.26 91.5033 312.508 91.2288 313.071 89.8174C313.76 88.09 311.565 86.8153 310.525 85.8663L302.694 78.7182C301.741 77.8478 300.316 79.265 301.273 80.139L301.273 80.1391Z" fill="#E6E6E6"/>
<path d="M53.9766 130.429H81.6418C83.5297 119.515 83.5297 108.358 81.6418 97.4437H53.9766C57.0933 108.218 57.0933 119.655 53.9766 130.429Z" fill="#FA620E"/>
<path d="M268.983 66.1283H296.648C298.536 55.2142 298.536 44.0569 296.648 33.1428H268.983C272.1 43.9171 272.1 55.354 268.983 66.1283Z" fill="#FA620E"/>
<path d="M181.398 120.327V38.9145L174.03 37.2721V127.695L229.624 127.127L229.436 119.836L181.398 120.327Z" fill="#F2F2F2"/>
<path d="M236.323 134.494H169.343V26.6565H236.323V134.494ZM170.683 133.155H234.984V27.9961H170.683V133.155Z" fill="#3F3D56"/>
<path d="M186.22 33.3545H175.372V34.6941H186.22V33.3545Z" fill="#3F3D56"/>
<path d="M186.22 36.7035H175.372V38.0431H186.22V36.7035Z" fill="#3F3D56"/>
<path d="M186.22 40.0525H175.372V41.3921H186.22V40.0525Z" fill="#3F3D56"/>
<path d="M227.078 97.6554H180.729V98.995H227.078V97.6554Z" fill="#3F3D56"/>
<path d="M227.078 105.023H180.729V106.363H227.078V105.023Z" fill="#3F3D56"/>
<path d="M227.078 112.391H180.729V113.731H227.078V112.391Z" fill="#3F3D56"/>
<path d="M226.276 42.0619C225.349 42.0619 224.442 41.787 223.671 41.2718C222.9 40.7566 222.299 40.0243 221.944 39.1676C221.589 38.3109 221.497 37.3681 221.677 36.4586C221.858 35.5491 222.305 34.7137 222.961 34.058C223.616 33.4023 224.452 32.9557 225.361 32.7748C226.271 32.5939 227.214 32.6868 228.07 33.0416C228.927 33.3965 229.659 33.9974 230.174 34.7685C230.69 35.5395 230.965 36.446 230.965 37.3733C230.963 38.6164 230.469 39.8081 229.59 40.6871C228.711 41.5661 227.519 42.0605 226.276 42.0619ZM226.276 34.0243C225.614 34.0243 224.966 34.2207 224.415 34.5887C223.865 34.9567 223.435 35.4798 223.182 36.0917C222.928 36.7037 222.862 37.377 222.991 38.0267C223.121 38.6763 223.44 39.2731 223.908 39.7414C224.376 40.2098 224.973 40.5288 225.623 40.658C226.272 40.7872 226.946 40.7209 227.558 40.4674C228.17 40.2139 228.693 39.7847 229.061 39.2339C229.429 38.6832 229.625 38.0357 229.625 37.3733C229.624 36.4854 229.271 35.6342 228.643 35.0063C228.015 34.3785 227.164 34.0253 226.276 34.0243Z" fill="#3F3D56"/>
<path d="M227.615 82.25H180.06V51.4391H227.615V82.25ZM181.399 80.9104H226.276V52.7787H181.399V80.9104Z" fill="#3F3D56"/>
<path d="M181.09 51.5444L180.37 52.674L226.586 82.1454L227.307 81.0158L181.09 51.5444Z" fill="#3F3D56"/>
<path d="M226.585 51.5444L180.369 81.0152L181.089 82.1448L227.306 52.674L226.585 51.5444Z" fill="#3F3D56"/>
<path d="M351.528 120.327V38.9145L344.16 37.2721V127.695L399.754 127.127L399.566 119.836L351.528 120.327Z" fill="#F2F2F2"/>
<path d="M407.122 133.155H340.142V25.3169H407.122V133.155ZM341.482 131.815H405.783V26.6565H341.482V131.815Z" fill="#3F3D56"/>
<path d="M357.02 32.0149H346.171V33.3545H357.02V32.0149Z" fill="#3F3D56"/>
<path d="M357.02 35.3639H346.171V36.7035H357.02V35.3639Z" fill="#3F3D56"/>
<path d="M357.02 38.7129H346.171V40.0525H357.02V38.7129Z" fill="#3F3D56"/>
<path d="M397.075 40.7223C396.148 40.7223 395.242 40.4474 394.47 39.9322C393.699 39.417 393.098 38.6847 392.744 37.828C392.389 36.9713 392.296 36.0285 392.477 35.119C392.658 34.2095 393.104 33.3741 393.76 32.7184C394.416 32.0627 395.251 31.6161 396.161 31.4352C397.07 31.2543 398.013 31.3472 398.87 31.702C399.726 32.0569 400.459 32.6578 400.974 33.4289C401.489 34.1999 401.764 35.1064 401.764 36.0337C401.763 37.2768 401.268 38.4686 400.389 39.3475C399.51 40.2265 398.318 40.7209 397.075 40.7223ZM397.075 32.6847C396.413 32.6847 395.765 32.8811 395.215 33.2491C394.664 33.6171 394.235 34.1402 393.981 34.7521C393.728 35.3641 393.661 36.0374 393.791 36.6871C393.92 37.3367 394.239 37.9335 394.707 38.4018C395.176 38.8702 395.772 39.1892 396.422 39.3184C397.072 39.4476 397.745 39.3813 398.357 39.1278C398.969 38.8743 399.492 38.4451 399.86 37.8943C400.228 37.3436 400.424 36.6961 400.424 36.0337C400.423 35.1458 400.07 34.2946 399.442 33.6667C398.814 33.0389 397.963 32.6857 397.075 32.6847Z" fill="#3F3D56"/>
<path d="M398.415 80.9104H350.859V50.0995H398.415V80.9104ZM352.199 79.5708H397.076V51.4391H352.199V79.5708Z" fill="#3F3D56"/>
<path d="M351.888 50.2046L351.167 51.3341L397.384 80.8054L398.104 79.6758L351.888 50.2046Z" fill="#3F3D56"/>
<path d="M397.387 50.2071L351.167 79.6731L351.887 80.8028L398.107 51.3368L397.387 50.2071Z" fill="#3F3D56"/>
<path d="M398.415 121.098H350.859V90.2876H398.415V121.098ZM352.199 119.759H397.076V91.6272H352.199V119.759Z" fill="#3F3D56"/>
<path d="M351.888 90.3926L351.167 91.5222L397.384 120.993L398.104 119.864L351.888 90.3926Z" fill="#3F3D56"/>
<path d="M397.387 90.3952L351.167 119.861L351.887 120.991L398.107 91.5248L397.387 90.3952Z" fill="#3F3D56"/>
<path d="M192.625 155.212H220.291C222.179 144.298 222.179 133.14 220.291 122.226H192.625C195.742 133.001 195.742 144.438 192.625 155.212Z" fill="#FA620E"/>
<path d="M535.477 150.036C544.977 144.843 548.468 132.933 543.275 123.434C538.082 113.935 526.172 110.443 516.673 115.636C507.173 120.829 503.682 132.739 508.875 142.238C514.068 151.738 525.978 155.229 535.477 150.036Z" fill="#FFB8B8"/>
<path d="M556.807 125.838C566.385 125.838 574.149 118.074 574.149 108.497C574.149 98.9197 566.385 91.1557 556.807 91.1557C547.23 91.1557 539.466 98.9197 539.466 108.497C539.466 118.074 547.23 125.838 556.807 125.838Z" fill="#2F2E41"/>
<path d="M571.765 122.857C569.52 124.479 566.92 125.54 564.181 125.951C561.442 126.363 558.645 126.112 556.023 125.221C553.401 124.329 551.031 122.822 549.11 120.827C547.19 118.832 545.775 116.405 544.985 113.751C545.284 116.13 546.073 118.42 547.302 120.479C548.531 122.537 550.174 124.318 552.126 125.709C554.078 127.101 556.297 128.072 558.644 128.563C560.991 129.053 563.413 129.052 565.76 128.559C568.106 128.065 570.324 127.091 572.274 125.697C574.225 124.304 575.865 122.521 577.092 120.461C578.318 118.401 579.105 116.11 579.401 113.731C579.697 111.352 579.497 108.937 578.813 106.64C579.202 109.727 578.752 112.861 577.512 115.714C576.272 118.568 574.287 121.035 571.765 122.857Z" fill="#2F2E41"/>
<path d="M503.328 122.876C506.355 117.456 507.513 115.192 511.417 111.897C514.869 108.982 519.114 108.126 522.539 110.888C526.59 109.137 531.098 108.74 535.393 109.756C539.688 110.771 543.54 113.145 546.379 116.525C549.217 119.904 550.889 124.109 551.147 128.515C551.406 132.921 550.236 137.292 547.811 140.98C545.387 144.668 541.838 147.475 537.691 148.985C533.545 150.495 529.021 150.628 524.793 149.362C520.565 148.097 516.858 145.502 514.223 141.962C511.587 138.422 510.164 134.126 510.164 129.713C510.168 128.938 510.214 128.164 510.304 127.394C507.327 126.976 506.304 123.294 503.328 122.876Z" fill="#2F2E41"/>
<path d="M478.604 400.421L469.639 397.816L475.417 361.995L488.649 365.839L478.604 400.421Z" fill="#FFB8B8"/>
<path d="M462.668 393.014L481.271 398.417L478.109 409.304L449.93 401.119L450.311 399.808C450.677 398.55 451.286 397.377 452.105 396.355C452.923 395.333 453.935 394.482 455.083 393.852C456.23 393.221 457.491 392.822 458.792 392.678C460.094 392.534 461.411 392.648 462.668 393.014Z" fill="#2F2E41"/>
<path d="M571.26 400.635L561.924 400.634L557.482 364.622L571.262 364.623L571.26 400.635Z" fill="#FFB8B8"/>
<path d="M553.889 397.967H573.261V409.304H543.918V407.938C543.918 406.628 544.176 405.332 544.677 404.122C545.178 402.912 545.913 401.813 546.838 400.887C547.764 399.961 548.864 399.227 550.073 398.726C551.283 398.224 552.58 397.967 553.889 397.967Z" fill="#2F2E41"/>
<path d="M549.292 275.276C548.579 274.412 548.065 273.403 547.785 272.319C547.505 271.235 547.466 270.102 547.671 269.002C547.876 267.901 548.32 266.859 548.971 265.948C549.622 265.038 550.465 264.281 551.44 263.731L546.593 236.953L559.596 242.511L562.206 267.088C563.021 268.788 563.184 270.727 562.664 272.539C562.144 274.351 560.978 275.909 559.386 276.918C557.794 277.927 555.887 278.317 554.026 278.015C552.166 277.712 550.481 276.737 549.292 275.276V275.276Z" fill="#FFB8B8"/>
<path d="M556.264 211.161L541.008 164.846C540.689 164.314 536.892 158.338 528.623 160.88C527.71 161.137 526.86 161.578 526.125 162.178C525.39 162.777 524.786 163.521 524.351 164.363C521.931 169.004 524.188 176.173 524.198 176.211L542.982 218.301L543.001 218.345L548.93 261.571L561.733 258.972L556.264 211.161Z" fill="#FA620E"/>
<path d="M454.859 382.502L477.822 312.087L504.447 251.23L504.064 221.714L535.659 214.346L539.338 226.716C560.618 240.757 553.608 267.767 553.108 269.577L585.17 387.904L550.21 391.788L526.743 279.754L505.101 325.277L489.799 393.373L454.859 382.502Z" fill="#2F2E41"/>
<path d="M501.786 196.936C495.504 184.895 500.046 180.31 506.914 173.374C509.721 170.635 512.354 167.723 514.8 164.657C525.514 150.881 537.95 157.647 538.074 157.717L538.144 157.756L541.217 162.365C551.342 172.555 535.988 200.555 534.822 202.641L535.592 222.663L502.94 225.772L501.786 196.936Z" fill="#FA620E"/>
<path d="M514.227 274.234C513.756 273.218 513.514 272.111 513.518 270.992C513.521 269.872 513.77 268.767 514.246 267.754C514.723 266.741 515.416 265.845 516.277 265.129C517.137 264.412 518.144 263.894 519.227 263.609L521.312 236.475L532.487 245.142L528.793 269.58C529.151 271.431 528.818 273.348 527.857 274.969C526.895 276.591 525.373 277.803 523.577 278.377C521.782 278.95 519.838 278.845 518.115 278.082C516.392 277.318 515.008 275.949 514.227 274.234Z" fill="#FFB8B8"/>
<path d="M516.592 261.512L521.867 217.579L514.348 172.116C514.331 171.797 513.957 164.258 517.661 160.171C518.354 159.399 519.198 158.778 520.142 158.346C521.085 157.914 522.107 157.681 523.144 157.661C532.538 157.25 534.784 165.076 534.806 165.155L537.865 213.995L530.963 262.311L516.592 261.512Z" fill="#FA620E"/>
<path d="M397.136 409.924H652.33C652.507 409.924 652.678 409.853 652.803 409.728C652.929 409.602 653 409.432 653 409.254C653 409.077 652.929 408.906 652.803 408.781C652.678 408.655 652.507 408.584 652.33 408.584H397.136C396.958 408.584 396.788 408.655 396.662 408.781C396.536 408.906 396.466 409.077 396.466 409.254C396.466 409.432 396.536 409.602 396.662 409.728C396.788 409.853 396.958 409.924 397.136 409.924Z" fill="#CCCCCC"/>
</g>
<defs>
<clipPath id="clip0">
<rect width="653" height="409.848" fill="white" transform="translate(0 0.0761719)"/>
</clipPath>
</defs>
</svg>
