<svg width="653" height="457" viewBox="0 0 653 457" fill="none" xmlns="http://www.w3.org/2000/svg">
<g clip-path="url(#clip0)">
<path d="M314.353 98.9884V182.999H474.559" fill="#F2F2F2"/>
<path d="M498.004 183.65H313.702V17.583H315.004V182.348H498.004V183.65Z" fill="#3F3D56"/>
<path d="M316.364 183.839L315.199 183.256C323.21 167.228 339.919 155.858 357.768 154.291C360.848 154.02 364.074 153.994 367.194 153.968C375.817 153.896 384.733 153.822 391.234 148.55C396.046 144.647 398.372 138.907 400.836 132.829C402.04 129.66 403.451 126.573 405.058 123.588C408.17 118.269 412.531 113.789 417.765 110.537C422.999 107.285 428.948 105.358 435.094 104.925C435.57 104.897 436.055 104.88 436.548 104.875C437.599 103.471 438.752 102.146 439.997 100.911C446.309 94.6694 454.39 90.5778 462.206 86.6211L464.056 85.683C472.326 81.475 480.891 76.7554 486.739 69.4439C490.396 64.7635 492.834 59.2493 493.837 53.3951C494.839 47.5409 494.374 41.5295 492.483 35.8992L493.713 35.4705C495.674 41.3093 496.156 47.5433 495.117 53.6142C494.077 59.6851 491.549 65.4035 487.757 70.2573C481.745 77.7717 473.044 82.5715 464.646 86.8437L462.794 87.783C455.068 91.6946 447.079 95.7391 440.913 101.837C439.939 102.802 439.024 103.824 438.173 104.898C445.533 105.187 454.095 108.028 458.906 115.387C460.257 117.538 461.145 119.946 461.513 122.459C461.881 124.972 461.721 127.534 461.044 129.982C459.883 134.253 457.298 137.573 453.764 139.329C450.032 141.183 445.622 141.129 441.346 139.177C438.855 138.047 436.64 136.388 434.854 134.316C433.068 132.244 431.755 129.808 431.006 127.177C429.037 119.565 431.63 112.033 435.598 106.204C435.456 106.21 435.313 106.217 435.17 106.225C429.239 106.644 423.5 108.502 418.45 111.64C413.4 114.778 409.192 119.1 406.191 124.232C404.613 127.168 403.227 130.203 402.043 133.319C399.626 139.282 397.127 145.448 392.054 149.562C385.199 155.121 376.051 155.197 367.205 155.27C364.11 155.296 360.91 155.322 357.883 155.588C340.473 157.117 324.177 168.206 316.364 183.839ZM437.207 106.175C433.122 111.836 430.319 119.322 432.266 126.851C432.966 129.295 434.189 131.557 435.85 133.481C437.511 135.405 439.571 136.944 441.887 137.992C445.799 139.778 449.812 139.838 453.184 138.162C456.38 136.574 458.725 133.547 459.787 129.64C460.403 127.368 460.546 124.995 460.207 122.665C459.868 120.336 459.054 118.102 457.816 116.1C453.843 110.022 445.902 106.246 437.207 106.175Z" fill="#3F3D56"/>
<path d="M404.225 138.063C410.699 138.063 415.947 132.815 415.947 126.341C415.947 119.867 410.699 114.618 404.225 114.618C397.751 114.618 392.502 119.867 392.502 126.341C392.502 132.815 397.751 138.063 404.225 138.063Z" fill="#FA620E"/>
<path d="M281.968 339.266H0V205.141H281.968V339.266ZM1.30249 337.964H280.665V206.444H1.30249V337.964Z" fill="#3F3D56"/>
<path d="M643.231 440.24H210.154V441.543H643.231V440.24Z" fill="#3F3D56"/>
<path d="M542.061 151.953L536.706 178.731C536.706 178.731 529.82 194.033 532.88 204.744L535.176 209.335L549.712 196.328L555.068 160.369L542.061 151.953Z" fill="#A0616A"/>
<path d="M512.222 399.843L503.806 431.977L513.753 436.567L522.933 428.917L528.289 404.434L512.222 399.843Z" fill="#A0616A"/>
<path d="M625.073 387.219L629.281 433.507H650.704L640.375 382.628L625.073 387.219Z" fill="#A0616A"/>
<path d="M591.793 216.986L596.128 195.793L545.887 184.087L535.176 200.919C535.176 200.919 516.814 229.992 512.223 318.743C507.633 407.494 506.103 406.729 506.103 406.729L543.592 410.554L562.719 286.609L610.155 399.843L646.115 389.897L600.974 253.71C600.974 253.71 604.034 233.818 591.793 216.986Z" fill="#2F2E41"/>
<path d="M514.518 425.091L509.162 430.447L506.102 427.386L507.772 416.144L499.216 421.266C499.216 421.266 483.914 418.97 485.444 435.037C485.444 435.037 483.149 440.393 496.155 446.514C509.162 452.635 516.048 456.46 516.048 456.46C516.048 456.46 528.289 455.695 528.289 451.869C528.289 448.044 524.432 422.068 524.432 422.068L514.518 425.091Z" fill="#2F2E41"/>
<path d="M639.228 425.091L633.873 430.447L630.812 427.386L627.601 416.144L623.926 421.266C623.926 421.266 608.625 418.97 610.155 435.037C610.155 435.037 607.859 440.393 620.866 446.514C633.873 452.635 640.758 456.46 640.758 456.46C640.758 456.46 653 455.695 653 451.869C653 448.044 649.142 422.068 649.142 422.068L639.228 425.091Z" fill="#2F2E41"/>
<path d="M578.786 107.577C591.04 107.577 600.974 97.6437 600.974 85.3898C600.974 73.1359 591.04 63.2021 578.786 63.2021C566.532 63.2021 556.598 73.1359 556.598 85.3898C556.598 97.6437 566.532 107.577 578.786 107.577Z" fill="#A0616A"/>
<path d="M571.901 102.222L573.431 128.235H602.505L594.089 93.0406L571.901 102.222Z" fill="#A0616A"/>
<path d="M555.068 117.524L578.786 115.994L604.034 117.524C604.034 117.524 625.457 129 613.98 160.369C602.504 191.738 594.088 201.684 594.088 201.684L569.605 190.973H561.954C561.954 190.973 559.659 188.677 558.894 188.677C558.129 188.677 543.592 190.973 543.592 190.973C543.592 190.973 539.766 174.906 545.122 173.376C550.478 171.845 553.538 163.429 553.538 163.429L555.068 117.524Z" fill="#D0CDE1"/>
<path d="M559.659 119.819L555.069 117.523L539.002 155.014L556.598 166.49L559.659 119.819Z" fill="#D0CDE1"/>
<path d="M547.035 83.477C547.035 83.477 536.324 55.9337 557.499 53.298C557.499 53.298 584.197 36.8977 601.357 64.3497L614.899 97.7763L610.374 96.8771L609.8 101.381L604.027 104.922L599.685 100.435L600.404 107.304L550.664 128.428C550.664 128.428 569.416 107.662 562.183 83.1785L559.246 89.172L547.035 83.477Z" fill="#2F2E41"/>
<path d="M237.704 424.227C234.922 434.51 225.393 440.879 225.393 440.879C225.393 440.879 220.375 430.575 223.157 420.292C225.939 410.008 235.467 403.639 235.467 403.639C235.467 403.639 240.486 413.943 237.704 424.227Z" fill="#FA620E"/>
<path d="M212.396 424.227C215.178 434.51 224.707 440.879 224.707 440.879C224.707 440.879 229.725 430.575 226.943 420.292C224.161 410.008 214.633 403.639 214.633 403.639C214.633 403.639 209.614 413.943 212.396 424.227Z" fill="#FA620E"/>
<path d="M216.484 422.017C224.118 429.448 225.05 440.871 225.05 440.871C225.05 440.871 213.606 440.246 205.973 432.815C198.339 425.384 197.407 413.961 197.407 413.961C197.407 413.961 208.851 414.586 216.484 422.017Z" fill="#3F3D56"/>
<path d="M233.616 422.017C225.983 429.448 225.05 440.871 225.05 440.871C225.05 440.871 236.494 440.246 244.128 432.815C251.761 425.384 252.694 413.961 252.694 413.961C252.694 413.961 241.25 414.586 233.616 422.017Z" fill="#3F3D56"/>
<path d="M121.669 55.7975C124.5 46.5235 129.724 38.1587 136.815 31.5448C143.905 24.931 152.613 20.3014 162.062 18.122C155.448 11.0284 147.084 5.8008 137.809 2.96495C128.534 0.129105 118.677 -0.215093 109.227 1.96697C99.7769 4.14903 91.068 8.78044 83.9757 15.3956C76.8834 22.0107 71.6577 30.3764 68.8238 39.6516C65.9899 48.9269 65.6478 58.7847 67.8318 68.2341C70.0159 77.6834 74.6492 86.3913 81.2658 93.4822C87.8824 100.573 96.2492 105.797 105.525 108.629C114.801 111.461 124.659 111.801 134.108 109.615C127.491 102.527 122.857 93.8212 120.674 84.3737C118.49 74.9262 118.833 65.0703 121.669 55.7975Z" fill="#FA620E"/>
<path d="M198.861 21.6184C189.588 18.774 179.727 18.434 170.28 20.633C176.895 27.7222 181.527 36.4279 183.711 45.875C185.894 55.322 185.552 65.1774 182.719 74.4504C179.886 83.7233 174.661 92.087 167.571 98.7005C160.48 105.314 151.773 109.944 142.326 112.126C148.105 118.322 155.233 123.106 163.157 126.108C171.081 129.109 179.59 130.247 188.024 129.434C196.458 128.62 204.593 125.878 211.797 121.418C219.002 116.958 225.084 110.9 229.573 103.714C234.063 96.5271 236.838 88.404 237.686 79.973C238.533 71.542 237.43 63.0291 234.461 55.0928C231.491 47.1566 226.736 40.0097 220.563 34.2051C214.39 28.4006 206.965 24.094 198.861 21.6184Z" fill="#3F3D56"/>
<path d="M178.023 73.0155C185.742 47.7505 180.173 23.6556 165.584 19.1982C150.995 14.7407 132.91 31.6086 125.191 56.8737C117.472 82.1387 123.041 106.234 137.63 110.691C152.219 115.148 170.304 98.2806 178.023 73.0155Z" fill="#D0CDE1"/>
<path d="M494.748 50.7967C501.222 50.7967 506.47 45.5484 506.47 39.0743C506.47 32.6002 501.222 27.3519 494.748 27.3519C488.274 27.3519 483.025 32.6002 483.025 39.0743C483.025 45.5484 488.274 50.7967 494.748 50.7967Z" fill="#FA620E"/>
<path d="M462.837 98.9886C469.311 98.9886 474.559 93.7403 474.559 87.2663C474.559 80.7922 469.311 75.5439 462.837 75.5439C456.363 75.5439 451.114 80.7922 451.114 87.2663C451.114 93.7403 456.363 98.9886 462.837 98.9886Z" fill="#FA620E"/>
<path d="M219.971 235.518H5.66406V330.18H219.971V235.518Z" fill="#F2F2F2"/>
<path d="M220.359 229.157H16.3091V247.262H220.359V229.157Z" fill="#FA620E"/>
<path d="M207.392 235.763H29.2766V240.656H207.392V235.763Z" fill="#3F3D56"/>
<path d="M118.09 244.815C121.873 244.815 124.94 241.748 124.94 237.965C124.94 234.181 121.873 231.114 118.09 231.114C114.306 231.114 111.239 234.181 111.239 237.965C111.239 241.748 114.306 244.815 118.09 244.815Z" fill="#3F3D56"/>
<path d="M171.426 261.453H64.7529V312.343H171.426V261.453Z" fill="#FA620E"/>
<path opacity="0.15" d="M118.09 296.684C123.495 296.684 127.877 292.303 127.877 286.898C127.877 281.493 123.495 277.111 118.09 277.111C112.685 277.111 108.303 281.493 108.303 286.898C108.303 292.303 112.685 296.684 118.09 296.684Z" fill="black"/>
<path opacity="0.3" d="M152.342 296.684C157.747 296.684 162.129 292.303 162.129 286.898C162.129 281.493 157.747 277.111 152.342 277.111C146.938 277.111 142.556 281.493 142.556 286.898C142.556 292.303 146.938 296.684 152.342 296.684Z" fill="white"/>
<path opacity="0.3" d="M83.8376 296.684C89.2426 296.684 93.6241 292.303 93.6241 286.898C93.6241 281.493 89.2426 277.111 83.8376 277.111C78.4326 277.111 74.051 281.493 74.051 286.898C74.051 292.303 78.4326 296.684 83.8376 296.684Z" fill="black"/>
</g>
<defs>
<clipPath id="clip0">
<rect width="653" height="455.92" fill="white" transform="translate(0 0.540039)"/>
</clipPath>
</defs>
</svg>
