<svg width="654" height="444" viewBox="0 0 654 444" fill="none" xmlns="http://www.w3.org/2000/svg">
<g clip-path="url(#clip0)">
<path opacity="0.4" d="M443.161 275.538C470.142 275.538 492.014 253.666 492.014 226.685C492.014 199.705 470.142 177.833 443.161 177.833C416.181 177.833 394.309 199.705 394.309 226.685C394.309 253.666 416.181 275.538 443.161 275.538Z" fill="#FA620E"/>
<path d="M444.277 294.282H171.855V368.116H444.277V294.282Z" fill="#3F3D56"/>
<path d="M426.827 111.355L415.95 116.503L425.577 109.304C424.012 106.862 422.254 104.549 420.32 102.387L373.145 114.113L415.758 97.8575C413.811 96.1394 411.743 94.5631 409.57 93.1409L337.686 104.72C330.054 114.264 325.893 126.119 325.887 138.34H434.092C434.088 128.862 431.582 119.553 426.827 111.355Z" fill="#F2F2F2"/>
<path d="M435.443 32.2311C392.204 11.1416 344.716 0.213632 296.608 0.28175C198.695 0.28175 111.157 44.6793 53.0132 114.437C152.578 92.6213 325.929 54.8572 435.443 32.2311Z" fill="#F2F2F2"/>
<path d="M649.229 441.95H0V443.223H649.229V441.95Z" fill="#2F2E41"/>
<path d="M379.267 138.34L342.436 83.6321C342.436 83.6321 398.213 103.104 391.883 138.34H379.267Z" fill="#3F3D56"/>
<path d="M380.713 138.34L417.544 83.6321C417.544 83.6321 361.767 103.104 368.097 138.34H380.713Z" fill="#FA620E"/>
<path d="M444.595 443.223H171.537V35.8633H444.595V443.223ZM172.81 441.95H443.322V37.1362H172.81V441.95Z" fill="#2F2E41"/>
<path d="M444.276 45.526H172.491V46.799H444.276V45.526Z" fill="#2F2E41"/>
<path d="M179.492 43.5012C180.898 43.5012 182.038 42.3613 182.038 40.9552C182.038 39.5491 180.898 38.4092 179.492 38.4092C178.086 38.4092 176.946 39.5491 176.946 40.9552C176.946 42.3613 178.086 43.5012 179.492 43.5012Z" fill="#FA620E"/>
<path d="M186.494 43.5012C187.9 43.5012 189.04 42.3613 189.04 40.9552C189.04 39.5491 187.9 38.4092 186.494 38.4092C185.088 38.4092 183.948 39.5491 183.948 40.9552C183.948 42.3613 185.088 43.5012 186.494 43.5012Z" fill="#FA620E"/>
<path d="M193.496 43.5012C194.902 43.5012 196.042 42.3613 196.042 40.9552C196.042 39.5491 194.902 38.4092 193.496 38.4092C192.09 38.4092 190.95 39.5491 190.95 40.9552C190.95 42.3613 192.09 43.5012 193.496 43.5012Z" fill="#FA620E"/>
<path d="M193.496 54.3217H182.039V60.6867H193.496V54.3217Z" fill="#FA620E"/>
<path d="M238.051 104.605H182.039V110.97H238.051V104.605Z" fill="#FA620E"/>
<path d="M381.263 60.6867L437.275 60.6867V54.3217L381.263 54.3217V60.6867Z" fill="#F2F2F2"/>
<path d="M276.241 115.426H182.039V119.245H276.241V115.426Z" fill="#F2F2F2"/>
<path d="M271.149 123.7H182.039V127.519H271.149V123.7Z" fill="#F2F2F2"/>
<path d="M246.962 131.975H182.039V135.794H246.962V131.975Z" fill="#F2F2F2"/>
<path d="M240.597 245.271H203.68V249.09H240.597V245.271Z" fill="#F2F2F2"/>
<path d="M238.601 253.546H203.68V257.365H238.601V253.546Z" fill="#F2F2F2"/>
<path d="M229.122 261.82H203.68V265.639H229.122V261.82Z" fill="#F2F2F2"/>
<path d="M326.524 245.271H289.607V249.09H326.524V245.271Z" fill="#F2F2F2"/>
<path d="M324.528 253.546H289.607V257.365H324.528V253.546Z" fill="#F2F2F2"/>
<path d="M315.05 261.82H289.607V265.639H315.05V261.82Z" fill="#F2F2F2"/>
<path d="M415.634 245.271H378.717V249.09H415.634V245.271Z" fill="#F2F2F2"/>
<path d="M413.638 253.546H378.717V257.365H413.638V253.546Z" fill="#F2F2F2"/>
<path d="M404.16 261.82H378.717V265.639H404.16V261.82Z" fill="#F2F2F2"/>
<path d="M316.976 389.757H260.964V396.122H316.976V389.757Z" fill="#FA620E"/>
<path d="M355.166 400.577H260.964V404.396H355.166V400.577Z" fill="#F2F2F2"/>
<path d="M350.074 408.852H260.964V412.671H350.074V408.852Z" fill="#F2F2F2"/>
<path d="M325.887 417.126H260.964V420.945H325.887V417.126Z" fill="#F2F2F2"/>
<path opacity="0.3" d="M420.407 173.347H198.906V174.62H420.407V173.347Z" fill="#FA620E"/>
<path opacity="0.3" d="M245.689 195.624H198.588V237.633H245.689V195.624Z" fill="#FA620E"/>
<path d="M331.616 195.624H284.515V237.633H331.616V195.624Z" fill="#3F3D56"/>
<path d="M420.726 195.624H373.625V237.633H420.726V195.624Z" fill="#3F3D56"/>
<path d="M301.929 237.457L301.308 237.445C301.321 236.757 301.709 220.538 308.094 216.056L308.451 216.564C302.324 220.866 301.932 237.291 301.929 237.457Z" fill="#FA620E"/>
<path d="M311.379 215.851C313.095 215.851 314.486 214.46 314.486 212.744C314.486 211.028 313.095 209.637 311.379 209.637C309.663 209.637 308.272 211.028 308.272 212.744C308.272 214.46 309.663 215.851 311.379 215.851Z" fill="#FA620E"/>
<path d="M310.75 223.714C309.134 224.222 307.413 224.296 305.759 223.93C306.809 222.593 308.224 221.588 309.832 221.036C311.44 220.485 313.173 220.41 314.823 220.821C313.742 222.125 312.338 223.123 310.75 223.714Z" fill="#FA620E"/>
<path d="M391.038 237.457L390.417 237.445C390.43 236.757 390.819 220.538 397.203 216.056L397.56 216.564C391.433 220.866 391.041 237.291 391.038 237.457Z" fill="#FA620E"/>
<path d="M400.489 215.851C402.205 215.851 403.596 214.46 403.596 212.744C403.596 211.028 402.205 209.637 400.489 209.637C398.773 209.637 397.382 211.028 397.382 212.744C397.382 214.46 398.773 215.851 400.489 215.851Z" fill="#FA620E"/>
<path d="M399.86 223.714C398.244 224.222 396.523 224.296 394.869 223.93C395.919 222.593 397.334 221.588 398.942 221.036C400.55 220.485 402.283 220.41 403.933 220.821C402.852 222.125 401.448 223.123 399.86 223.714Z" fill="#FA620E"/>
<path d="M238.051 317.832H182.039V324.197H238.051V317.832Z" fill="#FA620E"/>
<path d="M276.241 328.653H182.039V332.472H276.241V328.653Z" fill="#F2F2F2"/>
<path d="M271.149 336.927H182.039V340.746H271.149V336.927Z" fill="#F2F2F2"/>
<path d="M246.962 345.202H182.039V349.021H246.962V345.202Z" fill="#F2F2F2"/>
<path opacity="0.4" d="M389.379 346.505C400.364 346.505 409.268 337.6 409.268 326.616C409.268 315.631 400.364 306.727 389.379 306.727C378.394 306.727 369.49 315.631 369.49 326.616C369.49 337.6 378.394 346.505 389.379 346.505Z" fill="#FA620E"/>
<path opacity="0.4" d="M352.569 350.067C360.274 350.067 366.521 343.821 366.521 336.115C366.521 328.41 360.274 322.163 352.569 322.163C344.863 322.163 338.617 328.41 338.617 336.115C338.617 343.821 344.863 350.067 352.569 350.067Z" fill="#FA620E"/>
<path d="M106.614 421.263C134.385 421.263 156.897 398.751 156.897 370.98C156.897 343.209 134.385 320.697 106.614 320.697C78.8432 320.697 56.3306 343.209 56.3306 370.98C56.3306 398.751 78.8432 421.263 106.614 421.263Z" fill="#2F2E41"/>
<path d="M98.9757 410.443H83.6997V437.812H98.9757V410.443Z" fill="#2F2E41"/>
<path d="M129.527 410.443H114.251V437.812H129.527V410.443Z" fill="#2F2E41"/>
<path d="M96.4297 442.904C103.46 442.904 109.16 440.767 109.16 438.131C109.16 435.494 103.46 433.357 96.4297 433.357C89.3991 433.357 83.6997 435.494 83.6997 438.131C83.6997 440.767 89.3991 442.904 96.4297 442.904Z" fill="#2F2E41"/>
<path d="M126.981 442.268C134.012 442.268 139.711 440.13 139.711 437.494C139.711 434.858 134.012 432.72 126.981 432.72C119.951 432.72 114.251 434.858 114.251 437.494C114.251 440.13 119.951 442.268 126.981 442.268Z" fill="#2F2E41"/>
<path d="M107.887 375.435C117.378 375.435 125.072 367.741 125.072 358.25C125.072 348.759 117.378 341.064 107.887 341.064C98.3954 341.064 90.7012 348.759 90.7012 358.25C90.7012 367.741 98.3954 375.435 107.887 375.435Z" fill="white"/>
<path d="M107.887 356.34C111.05 356.34 113.615 353.776 113.615 350.612C113.615 347.448 111.05 344.883 107.887 344.883C104.723 344.883 102.158 347.448 102.158 350.612C102.158 353.776 104.723 356.34 107.887 356.34Z" fill="#3F3D56"/>
<path d="M57.8366 324.218C53.7765 306.035 66.7552 287.661 86.8254 283.18C106.896 278.698 126.457 289.806 130.517 307.989C134.577 326.172 121.276 332.878 101.206 337.36C81.1358 341.841 61.8968 342.401 57.8366 324.218Z" fill="#FA620E"/>
<path d="M151.818 318.666C157.67 306.074 159.209 294.377 155.255 292.54C151.302 290.703 143.354 299.422 137.503 312.014C131.652 324.606 130.113 336.303 134.066 338.14C138.019 339.977 145.967 331.258 151.818 318.666Z" fill="#2F2E41"/>
<path d="M64.131 352.837C67.9836 350.797 65.8408 339.196 59.3449 326.923C52.8489 314.651 44.4597 306.356 40.6071 308.395C36.7545 310.434 38.8974 322.036 45.3933 334.308C51.8892 346.581 60.2784 354.876 64.131 352.837Z" fill="#2F2E41"/>
<path d="M530.973 357.045C535.041 355.477 534.29 343.703 529.296 330.747C524.302 317.791 516.956 308.559 512.889 310.126C508.822 311.694 509.573 323.468 514.566 336.424C519.56 349.381 526.906 358.613 530.973 357.045Z" fill="#2F2E41"/>
<path d="M568.514 421.71C596.285 421.71 618.797 399.197 618.797 371.427C618.797 343.656 596.285 321.143 568.514 321.143C540.743 321.143 518.23 343.656 518.23 371.427C518.23 399.197 540.743 421.71 568.514 421.71Z" fill="#2F2E41"/>
<path d="M576.337 438.235L591.613 438.192L591.537 410.823L576.261 410.865L576.337 438.235Z" fill="#2F2E41"/>
<path d="M545.788 438.323L561.064 438.28L560.987 410.911L545.711 410.954L545.788 438.323Z" fill="#2F2E41"/>
<path d="M578.9 443.322C585.93 443.302 591.624 441.149 591.616 438.513C591.609 435.876 585.904 433.755 578.873 433.775C571.842 433.794 566.149 435.948 566.156 438.584C566.164 441.221 571.869 443.342 578.9 443.322Z" fill="#2F2E41"/>
<path d="M548.346 442.771C555.376 442.752 561.069 440.598 561.062 437.962C561.055 435.325 555.349 433.204 548.319 433.224C541.288 433.243 535.595 435.397 535.602 438.033C535.61 440.67 541.315 442.791 548.346 442.771Z" fill="#2F2E41"/>
<path d="M567.205 375.886C576.697 375.886 584.391 368.192 584.391 358.7C584.391 349.209 576.697 341.515 567.205 341.515C557.714 341.515 550.02 349.209 550.02 358.7C550.02 368.192 557.714 375.886 567.205 375.886Z" fill="white"/>
<path d="M567.205 364.429C570.369 364.429 572.934 361.864 572.934 358.7C572.934 355.537 570.369 352.972 567.205 352.972C564.041 352.972 561.477 355.537 561.477 358.7C561.477 361.864 564.041 364.429 567.205 364.429Z" fill="#3F3D56"/>
<path d="M617.16 324.528C621.169 306.334 608.139 287.997 588.056 283.571C567.974 279.146 548.443 290.308 544.434 308.503C540.425 326.697 553.745 333.366 573.828 337.792C593.91 342.217 613.151 342.723 617.16 324.528Z" fill="#FA620E"/>
<path d="M628.487 355.058C641.016 349.073 649.65 341.032 647.771 337.099C645.892 333.165 634.212 334.829 621.683 340.814C609.153 346.8 600.52 354.841 602.399 358.774C604.278 362.707 615.958 361.044 628.487 355.058Z" fill="#2F2E41"/>
<path d="M593.265 389.498C593.279 394.419 580.634 404.173 566.573 404.212C552.512 404.251 539.289 390.433 539.275 385.512C539.262 380.59 552.462 386.429 566.523 386.39C580.584 386.351 593.251 384.576 593.265 389.498Z" fill="white"/>
<path opacity="0.4" d="M583.827 368.783C622.583 368.783 654 337.365 654 298.61C654 259.855 622.583 228.437 583.827 228.437C545.072 228.437 513.655 259.855 513.655 298.61C513.655 337.365 545.072 368.783 583.827 368.783Z" fill="#FA620E"/>
<path d="M121.192 272.442C148.962 272.442 171.475 249.93 171.475 222.159C171.475 194.388 148.962 171.876 121.192 171.876C93.4209 171.876 70.9082 194.388 70.9082 222.159C70.9082 249.93 93.4209 272.442 121.192 272.442Z" fill="#2F2E41"/>
<path d="M106.647 259.63L91.6152 256.909L86.7398 283.841L101.771 286.562L106.647 259.63Z" fill="#2F2E41"/>
<path d="M136.71 265.073L121.678 262.351L116.803 289.283L131.834 292.004L136.71 265.073Z" fill="#2F2E41"/>
<path d="M136.654 302.256C138.358 300.244 135.39 294.93 130.025 290.386C124.66 285.842 118.93 283.79 117.226 285.802C115.522 287.814 118.49 293.128 123.855 297.672C129.22 302.216 134.951 304.268 136.654 302.256Z" fill="#2F2E41"/>
<path d="M107.218 296.927C108.922 294.915 105.954 289.601 100.589 285.057C95.2236 280.514 89.4931 278.461 87.7892 280.473C86.0854 282.485 89.0534 287.799 94.4184 292.343C99.7835 296.887 105.514 298.939 107.218 296.927Z" fill="#2F2E41"/>
<path d="M124.713 227.045C134.204 227.045 141.898 219.351 141.898 209.859C141.898 200.368 134.204 192.674 124.713 192.674C115.222 192.674 107.527 200.368 107.527 209.859C107.527 219.351 115.222 227.045 124.713 227.045Z" fill="white"/>
<path d="M131.776 209.428C134.94 209.428 137.505 206.863 137.505 203.699C137.505 200.536 134.94 197.971 131.776 197.971C128.613 197.971 126.048 200.536 126.048 203.699C126.048 206.863 128.613 209.428 131.776 209.428Z" fill="#3F3D56"/>
<path d="M81.5262 167.456C80.77 148.84 96.814 133.073 117.361 132.238C137.909 131.403 155.179 145.818 155.935 164.434C156.691 183.049 142.408 187.279 121.861 188.113C101.313 188.948 82.2823 186.072 81.5262 167.456Z" fill="#FA620E"/>
<path d="M169.386 220.691C182.92 217.589 193.102 211.63 192.128 207.381C191.154 203.132 179.393 202.203 165.859 205.305C152.324 208.407 142.142 214.367 143.116 218.615C144.09 222.864 155.851 223.794 169.386 220.691Z" fill="#2F2E41"/>
<path d="M70.6805 237.106C84.2148 234.004 94.3971 228.044 93.4232 223.795C92.4493 219.547 80.688 218.617 67.1536 221.719C53.6192 224.822 43.437 230.781 44.4109 235.03C45.3848 239.279 57.1461 240.208 70.6805 237.106Z" fill="#2F2E41"/>
<path d="M107.383 241.975C106.841 244.965 107.51 248.048 109.241 250.545C110.973 253.042 113.625 254.748 116.615 255.29C119.605 255.831 122.688 255.162 125.185 253.431C127.682 251.699 129.389 249.047 129.93 246.057C131.057 239.831 126.243 237.627 120.017 236.5C113.791 235.373 108.51 235.749 107.383 241.975Z" fill="white"/>
<path d="M239.59 181.313L194.473 167.787L182.409 208.026L227.526 221.552L239.59 181.313Z" fill="#3F3D56"/>
<path d="M199.14 212.858L198.548 212.668C198.758 212.013 203.788 196.589 211.191 194.129L211.387 194.718C204.282 197.079 199.19 212.7 199.14 212.858Z" fill="#FA620E"/>
<path d="M215.29 195.007C217.006 195.007 218.397 193.616 218.397 191.9C218.397 190.184 217.006 188.793 215.29 188.793C213.574 188.793 212.183 190.184 212.183 191.9C212.183 193.616 213.574 195.007 215.29 195.007Z" fill="#FA620E"/>
<path d="M211.537 202.228C209.843 202.25 208.173 201.827 206.694 201.001C208.084 200.022 209.727 199.465 211.426 199.399C213.125 199.332 214.807 199.758 216.269 200.626C214.859 201.565 213.227 202.117 211.537 202.228Z" fill="#FA620E"/>
</g>
<defs>
<clipPath id="clip0">
<rect width="654" height="443.041" fill="white" transform="translate(0 0.28125)"/>
</clipPath>
</defs>
</svg>
