<svg width="1080" height="1080" viewBox="0 0 1080 1080" fill="none" xmlns="http://www.w3.org/2000/svg">
<path d="M158.501 758.441C130.08 759.151 101.659 752.046 76.7901 738.546C53.3428 725.757 34.1586 707.283 20.6586 683.836C6.44803 659.678 -0.657237 631.967 0.0532895 604.257C-0.657237 576.546 5.7375 548.836 19.2375 523.967C31.3164 501.23 49.7901 482.046 72.527 469.257C95.9743 455.757 122.974 449.362 149.974 449.362C176.264 448.651 201.843 455.046 224.58 468.546C245.185 481.336 261.527 499.809 272.185 521.125C283.553 545.283 289.237 571.572 288.527 598.572C288.527 604.967 286.395 611.362 281.422 616.336C276.448 621.309 270.053 623.441 262.948 623.441H39.1322V579.388H261.527L238.79 595.02C238.79 577.967 235.237 560.915 227.422 545.283C221.027 531.072 210.369 518.993 197.58 510.467C183.369 501.941 167.027 496.967 150.685 497.678C131.501 496.967 113.027 501.941 96.6849 511.888C81.0533 521.125 68.9743 533.915 61.8691 549.546C53.3428 566.599 49.7901 585.783 49.7901 604.257C49.7901 623.441 54.7638 641.915 64.0006 658.967C73.2375 674.599 86.7375 688.099 102.369 696.625C119.422 706.572 138.606 710.836 158.501 710.836C170.58 710.836 182.659 708.704 194.027 704.441C204.685 700.888 214.632 695.915 223.159 689.52C228.132 685.257 234.527 683.125 240.922 683.125C247.316 683.125 253.001 685.257 257.974 688.809C263.659 693.072 267.211 700.178 267.922 707.283C267.922 714.388 265.08 720.783 259.395 724.336C245.185 734.993 229.553 743.52 212.501 748.494C194.737 754.888 176.974 758.441 158.501 758.441Z" fill="#86868B"/>
<path d="M432.764 756.309C417.132 756.309 402.211 752.046 389.422 742.809C376.632 733.572 365.975 720.783 359.58 706.572C352.475 690.23 348.922 671.757 348.922 653.283V349.888C348.922 334.257 361.001 322.178 376.632 322.178C392.264 322.178 405.053 334.257 405.053 349.888V653.283C404.343 665.362 407.185 676.73 412.869 687.388C416.422 695.204 424.238 700.178 432.764 700.888H446.975C454.08 700.888 460.475 703.73 464.738 708.704C469.711 714.388 471.843 721.493 471.843 728.599C471.843 736.415 467.58 744.23 461.185 748.493C453.369 754.178 443.422 757.02 434.185 756.309H432.764Z" fill="#86868B"/>
<path d="M648.056 758.441C593.345 759.151 542.187 730.73 515.187 683.125C501.687 658.967 494.582 631.967 495.293 604.257C494.582 576.546 500.977 549.546 513.766 525.388C525.845 502.651 542.898 484.178 564.924 470.678C586.951 457.178 611.819 450.072 637.398 450.783C678.608 450.783 718.398 469.257 744.687 501.23V350.599C744.687 342.783 747.53 335.678 752.503 329.993C763.872 319.336 781.635 319.336 793.003 329.993C798.687 335.678 800.819 342.783 800.819 350.599V604.257C801.529 631.967 794.424 658.967 780.214 683.125C753.924 730.02 702.766 759.151 648.056 758.441ZM648.056 708.704C665.819 708.704 683.582 704.441 698.503 695.204C713.424 685.967 725.503 673.178 733.319 657.546C741.845 641.204 746.108 622.73 746.108 604.257C746.108 585.783 741.845 567.309 733.319 550.967C724.793 536.046 712.714 523.257 698.503 514.02C667.24 495.546 628.872 495.546 597.608 514.02C582.687 523.257 570.608 536.046 562.082 550.967C552.845 567.309 548.582 585.783 549.293 604.257C549.293 622.73 553.556 641.204 562.082 657.546C570.608 673.178 582.687 685.967 597.608 695.204C613.24 703.73 631.003 708.704 648.056 708.704Z" fill="#86868B"/>
<path d="M896.029 756.308C888.213 757.019 881.107 754.177 875.423 749.203C870.45 743.519 867.607 735.703 868.318 728.598V479.914C867.607 472.098 870.45 464.992 875.423 459.308C887.502 450.071 904.555 450.071 916.634 459.308C921.608 464.992 924.45 472.808 923.739 479.914V727.887C924.45 735.703 921.608 742.808 916.634 748.492C910.95 754.177 903.134 757.019 896.029 756.308ZM895.318 565.887C895.318 544.571 901.002 523.966 911.66 506.203C922.318 488.44 937.95 474.229 955.713 464.282C974.186 453.624 995.502 448.65 1016.82 448.65C1038.84 448.65 1055.9 452.203 1066.55 459.308C1077.21 466.414 1081.48 474.94 1079.34 484.887C1078.63 489.15 1076.5 493.414 1072.95 496.966C1070.11 499.808 1065.84 501.229 1062.29 501.94C1058.03 502.65 1053.05 502.65 1048.79 501.229C1027.48 496.256 1006.16 496.256 984.844 499.808C967.792 502.65 952.16 510.466 940.081 522.545C929.423 533.914 923.029 549.545 923.739 565.177H895.318V565.887Z" fill="#86868B"/>
</svg>
