<svg width="1080" height="1080" viewBox="0 0 1080 1080" fill="none" xmlns="http://www.w3.org/2000/svg">
<g clip-path="url(#clip0)">
<path fill-rule="evenodd" clip-rule="evenodd" d="M131.16 278.865H1004.78V733.754C1004.78 769.484 979.942 798.735 949.571 798.735H75.9551V343.846C75.9551 308.097 100.789 278.865 131.16 278.865Z" stroke="#86868B" stroke-width="5.88955" stroke-miterlimit="22.93"/>
<path fill-rule="evenodd" clip-rule="evenodd" d="M242.944 639.188C242.95 639.404 242.881 639.616 242.749 639.788C242.616 639.96 242.429 640.08 242.218 640.13C241.886 640.242 241.544 640.321 241.197 640.365C240.652 640.453 240.1 640.492 239.548 640.483C239.009 640.491 238.47 640.451 237.938 640.365C237.577 640.325 237.222 640.246 236.878 640.13C236.657 640.061 236.465 639.924 236.328 639.737C236.227 639.572 236.172 639.382 236.171 639.188V593.426L217.482 639.325C217.399 639.517 217.279 639.69 217.128 639.835C216.935 639.986 216.715 640.099 216.48 640.169C216.149 640.276 215.807 640.342 215.46 640.365C214.995 640.39 214.53 640.39 214.066 640.365C213.582 640.39 213.097 640.39 212.613 640.365C212.266 640.321 211.924 640.242 211.592 640.13C211.367 640.052 211.155 639.939 210.964 639.796C210.818 639.675 210.714 639.51 210.669 639.325L192.785 593.426V639.188C192.793 639.383 192.738 639.576 192.628 639.737C192.492 639.933 192.29 640.072 192.058 640.13C191.715 640.248 191.36 640.327 190.998 640.365C189.911 640.523 188.807 640.523 187.72 640.365C187.366 640.323 187.017 640.244 186.679 640.13C186.469 640.062 186.289 639.923 186.169 639.737C186.073 639.57 186.026 639.38 186.031 639.188V590.874C185.982 590.427 186.036 589.976 186.189 589.553C186.342 589.131 186.591 588.75 186.915 588.439C187.466 587.978 188.16 587.722 188.878 587.713H193.099C193.866 587.698 194.632 587.784 195.376 587.968C195.989 588.103 196.569 588.356 197.084 588.714C197.568 589.088 197.981 589.547 198.301 590.069C198.655 590.69 198.938 591.348 199.146 592.032L214.36 630.039H214.557L230.38 592.15C230.604 591.438 230.907 590.753 231.283 590.108C231.586 589.591 231.978 589.133 232.441 588.753C232.85 588.413 233.325 588.159 233.835 588.007C234.417 587.849 235.019 587.776 235.621 587.791H240.039C240.438 587.79 240.835 587.85 241.217 587.968C241.562 588.088 241.877 588.283 242.139 588.537C242.408 588.815 242.621 589.142 242.767 589.499C242.937 589.964 243.017 590.457 243.003 590.952V639.188H242.944ZM301.408 637.754C301.591 638.213 301.71 638.696 301.761 639.188C301.774 639.343 301.752 639.499 301.698 639.645C301.644 639.791 301.558 639.923 301.447 640.032C301.127 640.251 300.754 640.38 300.367 640.405C299.876 640.405 299.209 640.405 298.404 640.405C297.599 640.405 296.892 640.405 296.441 640.405C296.054 640.391 295.671 640.325 295.302 640.208C295.083 640.137 294.886 640.008 294.733 639.835C294.602 639.64 294.484 639.437 294.38 639.227L289.884 626.447H267.994L263.675 639.05C263.609 639.277 263.503 639.49 263.361 639.678C263.204 639.874 263.002 640.029 262.772 640.13C262.421 640.274 262.051 640.367 261.673 640.405C261.202 640.405 260.593 640.405 259.828 640.405C259.171 640.416 258.515 640.376 257.864 640.287C257.485 640.27 257.12 640.133 256.824 639.894C256.712 639.791 256.626 639.662 256.575 639.518C256.524 639.375 256.508 639.221 256.529 639.07C256.57 638.576 256.69 638.093 256.883 637.637L274.551 588.891C274.641 588.62 274.788 588.372 274.983 588.164C275.197 587.953 275.46 587.797 275.749 587.713C276.176 587.585 276.618 587.512 277.064 587.497C277.575 587.497 278.242 587.497 279.027 587.497C279.813 587.497 280.598 587.497 281.167 587.497C281.632 587.513 282.094 587.586 282.542 587.713C282.851 587.8 283.134 587.962 283.366 588.184C283.552 588.406 283.698 588.658 283.798 588.93L301.467 637.676L301.408 637.754ZM278.812 594.721L269.781 620.891H288.019L278.851 594.721H278.812ZM345.56 637.303C345.595 637.741 345.595 638.18 345.56 638.618C345.53 638.938 345.443 639.251 345.304 639.541C345.209 639.758 345.052 639.942 344.853 640.071C344.661 640.178 344.444 640.232 344.225 640.228H313.148C312.834 640.241 312.521 640.191 312.227 640.08C311.933 639.968 311.666 639.798 311.44 639.58C310.959 639.006 310.726 638.265 310.792 637.519V636.007C310.77 635.687 310.77 635.366 310.792 635.045C310.847 634.717 310.933 634.395 311.047 634.083C311.213 633.692 311.403 633.312 311.616 632.945L312.519 631.472L336.725 593.583H312.853C312.614 593.594 312.377 593.54 312.166 593.426C311.977 593.302 311.822 593.133 311.714 592.935C311.571 592.652 311.478 592.347 311.44 592.032C311.407 591.607 311.407 591.181 311.44 590.756C311.406 590.292 311.406 589.826 311.44 589.362C311.475 589.04 311.568 588.728 311.714 588.439C311.81 588.222 311.967 588.038 312.166 587.909C312.38 587.804 312.615 587.75 312.853 587.752H342.065C342.378 587.731 342.692 587.777 342.986 587.885C343.28 587.993 343.548 588.162 343.773 588.38C344.012 588.644 344.193 588.955 344.305 589.293C344.416 589.632 344.456 589.989 344.421 590.344V591.934C344.444 592.313 344.444 592.693 344.421 593.072C344.36 593.429 344.261 593.777 344.127 594.113C343.976 594.507 343.792 594.888 343.577 595.252C343.341 595.644 343.047 596.135 342.674 596.685L318.586 634.378H344.205C344.432 634.379 344.653 634.447 344.841 634.572C345.029 634.698 345.177 634.876 345.265 635.085C345.556 635.8 345.683 636.571 345.638 637.342L345.56 637.303ZM398.939 620.851C398.986 623.754 398.507 626.64 397.525 629.372C396.696 631.753 395.356 633.924 393.599 635.732C391.814 637.501 389.653 638.843 387.277 639.659C384.555 640.589 381.693 641.047 378.816 641.013C376.145 641.036 373.49 640.605 370.963 639.737C368.681 638.962 366.597 637.695 364.858 636.027C363.097 634.305 361.754 632.203 360.931 629.882C359.967 627.154 359.502 624.274 359.557 621.381V588.793C359.551 588.576 359.621 588.364 359.753 588.192C359.885 588.021 360.073 587.9 360.284 587.85C360.628 587.736 360.983 587.657 361.344 587.615C361.902 587.526 362.467 587.487 363.032 587.497C363.591 587.489 364.149 587.528 364.701 587.615C365.068 587.653 365.43 587.732 365.781 587.85C366.004 587.914 366.198 588.052 366.33 588.243C366.432 588.408 366.486 588.598 366.487 588.793V620.518C366.457 622.67 366.755 624.815 367.371 626.878C367.881 628.567 368.767 630.117 369.962 631.413C371.086 632.612 372.47 633.539 374.006 634.123C375.714 634.757 377.525 635.069 379.346 635.045C381.19 635.075 383.025 634.776 384.764 634.162C386.261 633.576 387.604 632.656 388.691 631.472C389.837 630.195 390.7 628.689 391.223 627.055C391.829 625.057 392.12 622.978 392.087 620.891V588.753C392.071 588.536 392.133 588.32 392.264 588.145C392.4 587.949 392.602 587.81 392.833 587.752C393.184 587.636 393.546 587.557 393.913 587.517C395.013 587.36 396.13 587.36 397.231 587.517C397.592 587.555 397.948 587.634 398.291 587.752C398.514 587.815 398.708 587.954 398.841 588.145C398.971 588.298 399.041 588.493 399.037 588.694V620.753L398.939 620.851ZM475.032 639.188C475.04 639.383 474.985 639.576 474.875 639.737C474.734 639.928 474.534 640.066 474.305 640.13C473.974 640.244 473.632 640.323 473.284 640.365C472.739 640.453 472.187 640.493 471.635 640.483C471.096 640.49 470.558 640.45 470.026 640.365C469.671 640.325 469.322 640.246 468.985 640.13C468.757 640.066 468.556 639.928 468.416 639.737C468.32 639.57 468.272 639.38 468.278 639.188V593.426H468.18L449.491 639.325C449.415 639.521 449.294 639.695 449.137 639.835C448.95 639.984 448.737 640.097 448.509 640.169C448.177 640.272 447.835 640.338 447.488 640.365C447.017 640.39 446.546 640.39 446.075 640.365C445.505 640.365 445.034 640.365 444.622 640.365C444.275 640.321 443.933 640.242 443.601 640.13C443.378 640.047 443.166 639.935 442.973 639.796C442.839 639.664 442.738 639.503 442.678 639.325L424.794 593.426V639.188C424.795 639.385 424.733 639.578 424.617 639.737C424.481 639.933 424.279 640.072 424.048 640.13C423.711 640.246 423.362 640.325 423.007 640.365C422.456 640.453 421.897 640.493 421.339 640.483C420.8 640.492 420.261 640.453 419.729 640.365C419.374 640.325 419.025 640.246 418.688 640.13C418.47 640.067 418.282 639.928 418.158 639.737C418.062 639.57 418.015 639.38 418.021 639.188V590.874C417.977 590.428 418.034 589.978 418.187 589.556C418.34 589.135 418.585 588.753 418.904 588.439C419.456 587.98 420.149 587.723 420.867 587.713H425.088C425.849 587.699 426.608 587.785 427.346 587.968C427.958 588.103 428.539 588.356 429.054 588.714C429.543 589.083 429.956 589.543 430.271 590.069C430.625 590.69 430.908 591.348 431.115 592.032L446.33 630.039H446.526L462.35 592.071C462.608 591.357 462.93 590.667 463.311 590.01C463.62 589.497 464.012 589.04 464.47 588.655C464.887 588.316 465.367 588.062 465.883 587.909C466.465 587.749 467.067 587.677 467.67 587.693H472.087C472.48 587.694 472.87 587.753 473.245 587.87C473.593 587.985 473.909 588.18 474.168 588.439C474.437 588.717 474.65 589.043 474.796 589.401C474.965 589.866 475.045 590.359 475.032 590.854V639.188ZM534.555 613.215C534.629 617.256 534.039 621.281 532.808 625.131C531.784 628.292 530.044 631.174 527.723 633.553C525.407 635.837 522.591 637.551 519.498 638.559C515.749 639.752 511.828 640.315 507.895 640.228H496.784C496.146 640.229 495.528 640.007 495.036 639.6C494.73 639.328 494.493 638.986 494.346 638.604C494.199 638.221 494.146 637.808 494.192 637.401V590.54C494.146 590.133 494.199 589.72 494.346 589.337C494.493 588.955 494.73 588.613 495.036 588.341C495.528 587.934 496.146 587.712 496.784 587.713H508.681C512.594 587.617 516.495 588.209 520.204 589.46C523.169 590.547 525.852 592.285 528.057 594.545C530.218 596.837 531.859 599.57 532.867 602.555C534.012 605.977 534.569 609.567 534.516 613.175L534.555 613.215ZM527.213 613.489C527.226 610.837 526.876 608.195 526.173 605.637C525.524 603.308 524.394 601.14 522.855 599.276C521.307 597.465 519.357 596.04 517.162 595.114C514.33 594.015 511.304 593.501 508.268 593.602H501.181V634.456H508.347C511.227 634.528 514.097 634.096 516.828 633.18C519.053 632.381 521.039 631.03 522.6 629.254C524.216 627.369 525.395 625.15 526.055 622.756C526.877 619.731 527.267 616.604 527.213 613.47V613.489ZM588.582 637.715C588.766 638.174 588.885 638.657 588.935 639.148C588.948 639.303 588.927 639.459 588.873 639.605C588.818 639.751 588.733 639.883 588.621 639.992C588.301 640.211 587.929 640.34 587.542 640.365C587.051 640.365 586.383 640.365 585.578 640.365C584.774 640.365 584.067 640.365 583.615 640.365C583.229 640.352 582.846 640.286 582.477 640.169C582.257 640.098 582.06 639.969 581.907 639.796C581.777 639.601 581.659 639.398 581.554 639.188L577.058 626.407H555.208L550.889 639.011C550.823 639.237 550.717 639.45 550.575 639.639C550.418 639.835 550.216 639.989 549.986 640.091C549.635 640.235 549.264 640.327 548.887 640.365C548.415 640.365 547.807 640.365 547.041 640.365C546.385 640.376 545.728 640.337 545.078 640.248C544.698 640.231 544.334 640.093 544.038 639.855C543.925 639.752 543.84 639.623 543.789 639.479C543.737 639.335 543.722 639.182 543.743 639.031C543.784 638.537 543.903 638.053 544.096 637.597L561.765 588.852C561.855 588.581 562.002 588.333 562.197 588.125C562.411 587.913 562.674 587.758 562.963 587.674C563.39 587.546 563.832 587.473 564.278 587.458C564.788 587.458 565.456 587.458 566.241 587.458C567.026 587.458 567.812 587.458 568.381 587.458C568.846 587.474 569.308 587.546 569.755 587.674C570.062 587.752 570.341 587.915 570.56 588.145C570.76 588.36 570.913 588.614 571.012 588.891L588.68 637.637L588.582 637.715ZM565.986 594.682L556.955 620.851H575.193L566.025 594.682H565.986ZM637.544 639.188C637.547 639.377 637.506 639.565 637.426 639.737C637.307 639.936 637.118 640.084 636.896 640.149C636.53 640.286 636.147 640.372 635.757 640.405C635.267 640.405 634.619 640.405 633.794 640.405C632.97 640.405 632.518 640.405 632.067 640.405C631.702 640.363 631.345 640.271 631.007 640.13C630.748 640.022 630.524 639.846 630.359 639.619C630.196 639.363 630.071 639.086 629.986 638.795L625.156 626.447C624.593 625.033 624.005 623.724 623.389 622.52C622.82 621.402 622.085 620.377 621.21 619.477C620.372 618.629 619.37 617.961 618.265 617.514C616.958 617.011 615.563 616.771 614.162 616.807H609.51V639.188C609.502 639.383 609.441 639.573 609.333 639.737C609.18 639.915 608.984 640.05 608.764 640.13C608.414 640.248 608.051 640.327 607.684 640.365C607.132 640.453 606.574 640.493 606.015 640.483C605.45 640.491 604.885 640.452 604.327 640.365C603.966 640.325 603.611 640.246 603.267 640.13C603.036 640.072 602.833 639.933 602.697 639.737C602.581 639.578 602.519 639.385 602.521 639.188V590.54C602.479 590.133 602.534 589.722 602.681 589.34C602.827 588.958 603.062 588.616 603.365 588.341C603.858 587.937 604.475 587.715 605.112 587.713H616.283C617.598 587.713 618.697 587.713 619.581 587.811C620.464 587.909 621.25 587.968 621.956 588.027C623.811 588.334 625.614 588.896 627.316 589.696C628.8 590.393 630.134 591.373 631.242 592.582C632.281 593.724 633.088 595.057 633.618 596.508C634.159 598.107 634.424 599.787 634.403 601.475C634.427 603.08 634.188 604.678 633.696 606.206C633.251 607.557 632.551 608.81 631.635 609.897C630.724 610.991 629.643 611.932 628.435 612.685C627.115 613.486 625.713 614.144 624.253 614.648C625.106 615.005 625.9 615.488 626.609 616.081C627.341 616.697 628 617.395 628.572 618.162C629.235 619.045 629.819 619.985 630.319 620.969C630.849 622.01 631.399 623.207 631.929 624.542L636.641 636.105C637.014 637.067 637.269 637.754 637.367 638.069C637.455 638.369 637.507 638.679 637.524 638.991L637.544 639.188ZM627.041 602.319C627.105 600.481 626.628 598.665 625.667 597.097C624.547 595.546 622.899 594.457 621.034 594.034C620.282 593.83 619.513 593.699 618.737 593.642C617.634 593.536 616.526 593.49 615.419 593.504H609.529V611.173H616.342C617.95 611.201 619.554 610.976 621.092 610.505C622.328 610.122 623.471 609.487 624.449 608.64C625.317 607.874 625.99 606.911 626.413 605.833C626.837 604.704 627.05 603.506 627.041 602.299V602.319ZM711.674 625.445C711.712 627.704 711.249 629.944 710.319 632.002C709.43 633.89 708.137 635.559 706.53 636.891C704.868 638.276 702.936 639.299 700.857 639.894C698.581 640.601 696.211 640.952 693.828 640.935C692.187 640.946 690.549 640.788 688.94 640.464C687.604 640.213 686.29 639.852 685.014 639.384C683.992 639.018 683.001 638.572 682.049 638.049C681.449 637.723 680.889 637.328 680.381 636.871C680.061 636.516 679.826 636.093 679.693 635.634C679.531 634.993 679.458 634.332 679.477 633.671C679.443 633.181 679.443 632.689 679.477 632.199C679.518 631.876 679.597 631.56 679.713 631.256C679.791 631.045 679.936 630.866 680.125 630.746C680.298 630.648 680.496 630.6 680.695 630.608C681.275 630.685 681.824 630.916 682.285 631.276C683.132 631.842 684.017 632.347 684.935 632.788C686.2 633.405 687.513 633.917 688.861 634.319C690.577 634.816 692.357 635.055 694.142 635.026C695.559 635.035 696.969 634.829 698.324 634.417C699.503 634.05 700.602 633.464 701.563 632.689C702.459 631.953 703.171 631.019 703.644 629.961C704.15 628.79 704.398 627.525 704.371 626.25C704.411 624.908 704.056 623.584 703.35 622.442C702.644 621.357 701.738 620.418 700.68 619.674C699.492 618.818 698.223 618.082 696.891 617.475L692.533 615.512C691.044 614.828 689.596 614.061 688.194 613.215C686.812 612.398 685.544 611.401 684.425 610.25C683.292 609.116 682.374 607.786 681.716 606.324C680.295 602.656 680.359 598.579 681.892 594.957C682.658 593.286 683.793 591.809 685.21 590.638C686.715 589.43 688.442 588.529 690.295 587.988C692.349 587.36 694.487 587.049 696.636 587.065C697.814 587.073 698.989 587.178 700.15 587.379C701.276 587.563 702.386 587.839 703.468 588.204C704.422 588.493 705.349 588.867 706.236 589.323C706.815 589.59 707.357 589.933 707.846 590.344C708.043 590.521 708.215 590.726 708.356 590.952C708.45 591.131 708.516 591.323 708.552 591.521C708.607 591.794 708.646 592.069 708.67 592.346C708.67 592.68 708.67 593.092 708.67 593.602C708.67 594.113 708.67 594.525 708.67 594.918C708.641 595.237 708.582 595.552 708.493 595.86C708.438 596.082 708.314 596.281 708.14 596.429C707.997 596.548 707.816 596.611 707.63 596.606C707.129 596.519 706.654 596.324 706.236 596.037C705.607 595.664 704.822 595.232 703.919 594.761C702.863 594.242 701.766 593.808 700.641 593.465C699.271 593.057 697.848 592.858 696.42 592.876C695.119 592.849 693.824 593.048 692.592 593.465C691.606 593.806 690.698 594.34 689.922 595.036C689.212 595.668 688.667 596.463 688.331 597.352C687.975 598.252 687.795 599.212 687.801 600.179C687.773 601.507 688.128 602.816 688.822 603.948C689.53 605.049 690.452 605.997 691.531 606.736C692.726 607.603 694.001 608.353 695.34 608.974L699.738 610.937C701.21 611.644 702.682 612.39 704.115 613.215C705.549 614.009 706.87 614.993 708.042 616.14C709.246 617.364 710.188 618.82 710.812 620.42C711.437 622.019 711.73 623.729 711.674 625.445ZM764.68 639.188C764.679 639.382 764.624 639.572 764.523 639.737C764.378 639.924 764.179 640.061 763.953 640.13C763.602 640.244 763.24 640.323 762.874 640.365C762.328 640.451 761.776 640.49 761.224 640.483C760.653 640.492 760.082 640.452 759.516 640.365C759.162 640.323 758.814 640.244 758.476 640.13C758.245 640.072 758.042 639.933 757.907 639.737C757.79 639.578 757.729 639.385 757.73 639.188V615.845H733.858V639.188C733.859 639.385 733.797 639.578 733.681 639.737C733.552 639.932 733.357 640.071 733.131 640.13C732.781 640.246 732.419 640.325 732.052 640.365C731.493 640.452 730.928 640.492 730.363 640.483C729.811 640.49 729.26 640.451 728.714 640.365C728.34 640.329 727.971 640.25 727.615 640.13C727.384 640.072 727.181 639.933 727.045 639.737C726.929 639.578 726.867 639.385 726.869 639.188V588.753C726.867 588.556 726.929 588.363 727.045 588.204C727.181 588.008 727.384 587.869 727.615 587.811C727.971 587.691 728.34 587.612 728.714 587.575C729.26 587.49 729.811 587.45 730.363 587.458C730.928 587.449 731.493 587.489 732.052 587.575C732.419 587.616 732.781 587.695 733.131 587.811C733.357 587.869 733.552 588.009 733.681 588.204C733.797 588.363 733.859 588.556 733.858 588.753V609.74H757.73V588.753C757.729 588.556 757.79 588.363 757.907 588.204C758.042 588.008 758.245 587.869 758.476 587.811C758.814 587.697 759.162 587.618 759.516 587.575C760.082 587.489 760.653 587.449 761.224 587.458C761.776 587.45 762.328 587.49 762.874 587.575C763.24 587.618 763.602 587.697 763.953 587.811C764.179 587.88 764.378 588.017 764.523 588.204C764.624 588.369 764.679 588.559 764.68 588.753V639.188ZM823.124 637.754C823.307 638.213 823.426 638.696 823.477 639.188C823.494 639.343 823.475 639.5 823.42 639.647C823.366 639.794 823.277 639.925 823.163 640.032C822.845 640.254 822.471 640.384 822.083 640.405C821.592 640.405 820.925 640.405 820.12 640.405C819.315 640.405 818.608 640.405 818.157 640.405C817.77 640.389 817.387 640.323 817.018 640.208C816.804 640.127 816.609 639.999 816.449 639.835C816.318 639.644 816.206 639.44 816.115 639.227L811.6 626.447H789.691L785.391 639.05C785.318 639.274 785.213 639.486 785.077 639.678C784.917 639.879 784.707 640.034 784.469 640.13C784.125 640.278 783.761 640.371 783.389 640.405C782.918 640.405 782.309 640.405 781.543 640.405C780.887 640.416 780.231 640.377 779.58 640.287C779.194 640.274 778.822 640.136 778.52 639.894C778.415 639.786 778.335 639.656 778.284 639.514C778.233 639.372 778.213 639.22 778.226 639.07C778.276 638.578 778.395 638.096 778.579 637.637L796.248 588.891C796.335 588.613 796.482 588.358 796.68 588.145C796.898 587.929 797.168 587.773 797.465 587.693C797.885 587.563 798.321 587.491 798.76 587.477C799.291 587.477 799.938 587.477 800.724 587.477C801.509 587.477 802.294 587.477 802.864 587.477C803.329 587.492 803.79 587.564 804.238 587.693C804.55 587.772 804.836 587.935 805.062 588.164C805.26 588.378 805.407 588.633 805.494 588.91L823.163 637.656L823.124 637.754ZM800.606 594.682L791.575 620.851H809.813L800.606 594.682ZM884.179 638.658C884.09 638.99 883.93 639.298 883.707 639.561C883.46 639.816 883.148 639.999 882.804 640.091C882.35 640.227 881.883 640.319 881.41 640.365C880.841 640.365 880.174 640.365 879.349 640.365C878.525 640.365 877.798 640.365 877.229 640.365C876.737 640.321 876.25 640.229 875.776 640.091C875.449 640 875.156 639.815 874.932 639.561C874.723 639.295 874.575 638.987 874.5 638.658L863.428 599.021L853.278 638.658C853.22 638.989 853.078 639.3 852.866 639.561C852.658 639.815 852.377 640 852.061 640.091C851.62 640.23 851.166 640.322 850.706 640.365C850.137 640.365 849.43 640.365 848.586 640.365C847.742 640.365 846.937 640.365 846.348 640.365C845.856 640.325 845.369 640.232 844.895 640.091C844.559 639.996 844.254 639.813 844.012 639.561C843.792 639.302 843.643 638.991 843.58 638.658L829.622 590.108C829.486 589.626 829.394 589.134 829.347 588.636C829.337 588.485 829.362 588.334 829.419 588.194C829.477 588.054 829.567 587.93 829.681 587.831C830.014 587.609 830.4 587.481 830.8 587.458C831.31 587.458 831.997 587.458 832.763 587.458C833.528 587.458 834.274 587.458 834.726 587.458C835.108 587.468 835.486 587.541 835.845 587.674C836.069 587.757 836.257 587.917 836.375 588.125C836.493 588.351 836.567 588.598 836.591 588.852L848.37 632.807L859.58 588.93C859.644 588.669 859.743 588.418 859.874 588.184C860.021 587.973 860.225 587.809 860.463 587.713C860.836 587.577 861.226 587.491 861.622 587.458C862.112 587.458 862.78 587.458 863.585 587.458C864.39 587.458 864.939 587.458 865.391 587.458C865.761 587.491 866.125 587.577 866.471 587.713C866.712 587.804 866.918 587.969 867.06 588.184C867.199 588.414 867.299 588.666 867.354 588.93L879.408 632.807L890.971 588.891C891.038 588.651 891.117 588.416 891.207 588.184C891.311 587.968 891.493 587.799 891.717 587.713C892.069 587.575 892.44 587.489 892.817 587.458C893.288 587.458 893.916 587.458 894.78 587.458C895.436 587.444 896.093 587.483 896.743 587.575C897.12 587.603 897.482 587.74 897.783 587.968C897.889 588.068 897.97 588.191 898.021 588.327C898.072 588.463 898.091 588.609 898.078 588.753C898.046 589.249 897.974 589.742 897.862 590.226L884.179 638.658Z" fill="#86868B"/>
<path fill-rule="evenodd" clip-rule="evenodd" d="M529.035 461.245L515.057 474.987H543.013L529.035 461.245ZM573.108 506.555L556.598 523.066H589.619L573.108 506.555ZM622.502 471.218L581.687 509.893L573.108 501.314L564.883 509.618L539.184 482.84H562.056L541.049 462.187L577.643 426.183L622.502 471.336V471.218ZM580.294 423.513L626.468 469.962L627.822 471.316L626.448 472.612L584.318 512.543L598.531 526.757H547.685L562.252 512.19L534.041 482.742H524.225L495.994 512.19L510.561 526.757H459.656L473.869 512.543L431.739 472.612L430.365 471.316L431.7 469.962L477.874 423.532L465.33 411.184L529.094 348.362L592.858 411.184L580.294 423.532V423.513ZM485.079 506.536L468.569 523.046H501.57L485.079 506.536ZM435.685 471.198L480.525 426.045L517.059 461.991L496.014 482.703H518.983L493.285 509.618L485.079 501.392L476.5 509.971L435.685 471.297V471.198ZM529.094 363.361L480.466 411.184L524.637 454.649L529.035 450.33L533.491 454.708L577.722 411.204L529.094 363.361Z" fill="#86868B"/>
<path fill-rule="evenodd" clip-rule="evenodd" d="M236.425 712.159C236.427 712.384 236.358 712.604 236.229 712.787C236.052 713.006 235.812 713.163 235.542 713.239C235.104 713.364 234.658 713.456 234.207 713.514C232.816 713.645 231.416 713.645 230.025 713.514C229.581 713.454 229.141 713.362 228.71 713.239C228.447 713.159 228.215 713.001 228.042 712.787C227.907 712.605 227.832 712.386 227.826 712.159V675.487L214.968 712.12C214.884 712.404 214.729 712.661 214.516 712.866C214.278 713.091 213.988 713.253 213.672 713.337C213.238 713.469 212.79 713.548 212.337 713.573C211.768 713.573 211.1 713.573 210.374 713.573C209.72 713.606 209.065 713.606 208.411 713.573C207.948 713.533 207.493 713.434 207.056 713.278C206.747 713.185 206.46 713.032 206.212 712.827C206.008 712.653 205.863 712.42 205.799 712.159L193.373 675.526V712.199C193.374 712.423 193.305 712.643 193.176 712.827C192.995 713.049 192.747 713.208 192.469 713.278C192.031 713.399 191.585 713.491 191.135 713.553C190.443 713.623 189.748 713.655 189.054 713.651C188.359 713.655 187.664 713.622 186.973 713.553C186.528 713.495 186.088 713.403 185.657 713.278C185.384 713.197 185.139 713.041 184.95 712.827C184.835 712.637 184.774 712.42 184.774 712.199V672.012C184.737 671.522 184.8 671.029 184.959 670.563C185.117 670.098 185.368 669.669 185.696 669.303C186.026 668.984 186.417 668.736 186.846 668.574C187.274 668.412 187.732 668.339 188.19 668.361H194.079C194.996 668.343 195.911 668.428 196.808 668.616C197.517 668.771 198.185 669.072 198.771 669.499C199.337 669.926 199.806 670.468 200.146 671.089C200.55 671.872 200.872 672.695 201.107 673.543L210.707 700.38H210.845L220.779 673.602C221.028 672.756 221.357 671.934 221.76 671.148C222.07 670.535 222.489 669.982 222.997 669.519C223.479 669.097 224.049 668.789 224.666 668.616C225.397 668.433 226.15 668.347 226.904 668.361H233.009C233.557 668.345 234.103 668.431 234.619 668.616C235.041 668.751 235.42 668.995 235.718 669.323C236.02 669.65 236.247 670.038 236.386 670.461C236.533 670.965 236.606 671.487 236.602 672.012V712.159H236.425ZM275.277 709.803C275.28 710.368 275.247 710.932 275.178 711.492C275.141 711.868 275.056 712.237 274.923 712.591C274.839 712.836 274.69 713.053 274.491 713.219C274.326 713.338 274.126 713.4 273.922 713.396H251.581C251.204 713.424 250.826 713.367 250.474 713.228C250.123 713.09 249.807 712.874 249.55 712.597C249.294 712.319 249.103 711.988 248.992 711.626C248.882 711.265 248.854 710.884 248.911 710.51V671.246C248.873 670.846 248.921 670.443 249.053 670.063C249.185 669.684 249.398 669.337 249.677 669.048C250.22 668.578 250.922 668.332 251.64 668.361H273.883C274.08 668.359 274.273 668.421 274.432 668.537C274.618 668.703 274.76 668.912 274.845 669.146C274.966 669.51 275.051 669.884 275.1 670.265C275.135 670.84 275.135 671.417 275.1 671.993C275.134 672.548 275.134 673.106 275.1 673.661C275.063 674.037 274.977 674.407 274.845 674.761C274.755 674.992 274.614 675.2 274.432 675.369C274.279 675.499 274.084 675.569 273.883 675.566H257.981V686.54H271.389C271.587 686.538 271.779 686.6 271.939 686.716C272.133 686.879 272.282 687.088 272.371 687.325C272.516 687.669 272.609 688.033 272.646 688.405C272.68 688.947 272.68 689.492 272.646 690.034C272.681 690.596 272.681 691.16 272.646 691.723C272.605 692.081 272.512 692.431 272.371 692.763C272.293 692.995 272.141 693.195 271.939 693.332C271.779 693.448 271.587 693.51 271.389 693.509H257.981V706.211H273.981C274.185 706.207 274.385 706.269 274.55 706.388C274.749 706.553 274.898 706.771 274.982 707.016C275.115 707.363 275.201 707.726 275.237 708.095C275.306 708.662 275.339 709.233 275.335 709.803H275.277ZM323.041 690.172C323.124 693.777 322.586 697.37 321.451 700.792C320.551 703.503 318.996 705.95 316.924 707.915C314.852 709.881 312.327 711.305 309.573 712.061C306.251 712.985 302.812 713.422 299.365 713.357H288.724C288.347 713.384 287.968 713.326 287.616 713.188C287.264 713.05 286.947 712.834 286.689 712.558C286.431 712.281 286.238 711.95 286.125 711.588C286.012 711.227 285.981 710.845 286.035 710.471V671.207C285.995 670.805 286.045 670.4 286.18 670.02C286.316 669.639 286.535 669.294 286.82 669.008C287.36 668.533 288.064 668.286 288.783 668.321H300.209C303.627 668.24 307.035 668.718 310.3 669.735C312.92 670.552 315.311 671.975 317.279 673.888C319.247 675.802 320.737 678.152 321.627 680.748C322.661 683.78 323.159 686.969 323.1 690.172H323.041ZM313.676 690.505C313.685 688.518 313.434 686.538 312.93 684.616C312.494 682.878 311.683 681.257 310.555 679.865C309.431 678.486 307.99 677.402 306.354 676.704C304.208 675.88 301.917 675.499 299.62 675.585H295.065V706.132H299.777C301.907 706.195 304.031 705.862 306.04 705.151C307.676 704.546 309.134 703.54 310.28 702.226C311.479 700.806 312.344 699.135 312.813 697.337C313.42 695.125 313.71 692.838 313.676 690.545V690.505ZM342.319 712.1C342.315 712.331 342.232 712.552 342.084 712.729C341.887 712.943 341.636 713.099 341.357 713.18C340.905 713.3 340.446 713.392 339.983 713.455C339.394 713.455 338.668 713.553 337.765 713.553C336.862 713.553 336.174 713.553 335.586 713.455C335.115 713.398 334.649 713.306 334.192 713.18C333.907 713.098 333.65 712.943 333.446 712.729C333.303 712.551 333.226 712.329 333.23 712.1V669.617C333.219 669.388 333.296 669.163 333.446 668.989C333.649 668.764 333.916 668.607 334.211 668.537C334.664 668.395 335.132 668.302 335.605 668.262C336.322 668.176 337.043 668.136 337.765 668.145C338.506 668.136 339.247 668.175 339.983 668.262C340.449 668.306 340.91 668.398 341.357 668.537C341.639 668.612 341.892 668.769 342.084 668.989C342.238 669.161 342.322 669.386 342.319 669.617V712.159V712.1ZM385.509 706.545C385.509 707.114 385.509 707.624 385.509 708.017C385.496 708.369 385.444 708.718 385.352 709.057C385.303 709.326 385.21 709.585 385.077 709.823C384.924 710.08 384.739 710.318 384.528 710.53C384.092 710.934 383.603 711.278 383.075 711.551C382.222 712.01 381.336 712.403 380.425 712.729C379.26 713.134 378.065 713.449 376.852 713.671C375.414 713.938 373.955 714.069 372.493 714.064C369.68 714.098 366.885 713.612 364.248 712.63C361.853 711.726 359.706 710.266 357.985 708.37C356.181 706.319 354.841 703.901 354.059 701.283C353.1 698.101 352.637 694.79 352.685 691.467C352.631 688.01 353.148 684.567 354.216 681.278C355.101 678.525 356.537 675.98 358.437 673.799C360.23 671.795 362.46 670.23 364.955 669.224C367.616 668.146 370.466 667.612 373.337 667.654C374.536 667.649 375.732 667.754 376.91 667.968C377.993 668.15 379.057 668.426 380.091 668.793C380.999 669.104 381.879 669.492 382.722 669.951C383.306 670.268 383.853 670.65 384.351 671.089C384.581 671.334 384.791 671.597 384.979 671.875C385.115 672.126 385.208 672.398 385.254 672.68C385.342 673.053 385.395 673.435 385.411 673.818C385.411 674.27 385.411 674.8 385.411 675.448C385.446 676.036 385.446 676.626 385.411 677.215C385.39 677.617 385.311 678.013 385.176 678.393C385.09 678.643 384.949 678.871 384.763 679.06C384.61 679.19 384.415 679.26 384.214 679.256C383.732 679.195 383.281 678.989 382.918 678.667C382.29 678.178 381.635 677.726 380.955 677.313C380.005 676.754 378.998 676.3 377.951 675.958C376.615 675.521 375.214 675.316 373.809 675.35C372.19 675.304 370.587 675.667 369.146 676.405C367.705 677.142 366.473 678.231 365.563 679.57C364.519 681.058 363.767 682.73 363.345 684.498C362.285 688.885 362.285 693.461 363.345 697.848C363.78 699.583 364.561 701.212 365.642 702.638C366.595 703.854 367.836 704.812 369.254 705.426C370.757 706.059 372.375 706.373 374.005 706.348C375.413 706.371 376.817 706.179 378.167 705.779C379.196 705.446 380.194 705.026 381.151 704.522C381.995 704.051 382.682 703.639 383.232 703.266C383.589 702.965 384.025 702.774 384.488 702.716C384.675 702.702 384.862 702.75 385.018 702.854C385.189 702.997 385.312 703.189 385.372 703.403C385.476 703.789 385.542 704.183 385.568 704.581C385.602 705.235 385.602 705.891 385.568 706.545H385.509ZM431.232 709.941C431.458 710.581 431.635 711.237 431.762 711.904C431.801 712.096 431.796 712.295 431.749 712.485C431.701 712.675 431.612 712.852 431.487 713.003C431.094 713.293 430.62 713.451 430.132 713.455C429.504 713.455 428.601 713.455 427.482 713.455C426.363 713.455 425.401 713.455 424.753 713.455C424.243 713.435 423.737 713.363 423.242 713.239C422.965 713.166 422.718 713.008 422.535 712.787C422.378 712.573 422.259 712.334 422.181 712.081L419.256 703.03H402.471L399.664 711.826C399.587 712.12 399.461 712.398 399.291 712.65C399.119 712.895 398.87 713.074 398.584 713.16C398.129 713.318 397.652 713.404 397.171 713.416C396.562 713.416 395.757 713.416 394.775 713.416C393.794 713.416 392.812 713.416 392.302 713.318C391.84 713.31 391.398 713.128 391.065 712.807C390.944 712.646 390.858 712.462 390.814 712.265C390.77 712.069 390.769 711.866 390.81 711.668C390.935 711.001 391.113 710.345 391.34 709.705L405.082 669.735C405.189 669.394 405.355 669.075 405.573 668.793C405.793 668.516 406.096 668.317 406.437 668.223C406.987 668.074 407.555 667.995 408.125 667.988C408.832 667.988 409.774 667.988 410.932 667.988C412.091 667.988 413.367 667.988 414.172 667.988C414.833 667.988 415.492 668.068 416.135 668.223C416.504 668.316 416.838 668.514 417.097 668.793C417.31 669.121 417.475 669.478 417.588 669.853L431.33 709.784L431.232 709.941ZM410.795 676.861L404.611 696.12H417.117L410.854 676.959L410.795 676.861ZM464.684 709.509C464.688 710.099 464.655 710.689 464.586 711.276C464.546 711.677 464.461 712.072 464.331 712.454C464.257 712.714 464.107 712.947 463.899 713.121C463.738 713.266 463.527 713.343 463.31 713.337H442.893C442.516 713.365 442.138 713.308 441.787 713.169C441.435 713.031 441.119 712.815 440.863 712.538C440.606 712.26 440.415 711.929 440.305 711.568C440.194 711.206 440.166 710.825 440.223 710.451V669.617C440.213 669.388 440.29 669.163 440.439 668.989C440.697 668.781 441.012 668.658 441.342 668.635C441.795 668.491 442.262 668.399 442.736 668.361C444.198 668.204 445.672 668.204 447.134 668.361C447.601 668.4 448.062 668.492 448.508 668.635C448.793 668.714 449.051 668.871 449.254 669.087C449.394 669.267 449.47 669.488 449.47 669.715V705.936H463.467C463.681 705.928 463.89 705.998 464.056 706.132C464.255 706.298 464.404 706.516 464.488 706.761C464.622 707.134 464.708 707.523 464.743 707.919C464.812 708.499 464.844 709.082 464.841 709.666L464.684 709.509ZM513.764 672.051C513.8 672.64 513.8 673.23 513.764 673.818C513.73 674.209 513.637 674.593 513.489 674.957C513.391 675.184 513.251 675.39 513.077 675.566C512.923 675.709 512.718 675.787 512.508 675.781H497.921V687.894H511.663C511.862 687.887 512.056 687.949 512.213 688.071C512.412 688.225 512.568 688.428 512.665 688.66C512.797 689.021 512.883 689.397 512.92 689.779C512.989 690.359 513.022 690.942 513.018 691.526C513.022 692.104 512.989 692.681 512.92 693.254C512.88 693.649 512.794 694.037 512.665 694.412C512.567 694.66 512.412 694.882 512.213 695.06C512.056 695.182 511.862 695.244 511.663 695.237H497.921V712.022C497.928 712.26 497.859 712.493 497.725 712.689C497.521 712.908 497.264 713.07 496.979 713.16C496.524 713.3 496.057 713.398 495.585 713.455C494.854 713.524 494.12 713.557 493.386 713.553C492.503 713.553 491.776 713.553 491.187 713.455C490.715 713.398 490.249 713.3 489.794 713.16C489.513 713.073 489.262 712.91 489.067 712.689C488.912 712.502 488.828 712.265 488.832 712.022V671.188C488.792 670.786 488.841 670.38 488.977 670C489.113 669.62 489.331 669.274 489.617 668.989C490.157 668.513 490.861 668.267 491.58 668.302H512.566C512.773 668.298 512.975 668.368 513.136 668.498C513.312 668.679 513.452 668.892 513.548 669.126C513.701 669.495 513.794 669.886 513.823 670.285C513.858 670.873 513.858 671.463 513.823 672.051H513.764ZM563.354 690.309C563.396 693.696 562.933 697.071 561.98 700.321C561.166 703.081 559.766 705.632 557.877 707.801C556.044 709.882 553.742 711.496 551.163 712.513C548.199 713.639 545.047 714.186 541.877 714.122C538.804 714.186 535.742 713.721 532.827 712.748C530.355 711.913 528.133 710.468 526.368 708.547C524.52 706.504 523.175 704.057 522.441 701.401C521.519 698.045 521.082 694.574 521.146 691.094C521.098 687.771 521.561 684.461 522.52 681.278C523.343 678.54 524.742 676.01 526.623 673.858C528.462 671.789 530.762 670.182 533.337 669.166C536.307 668.011 539.476 667.45 542.662 667.516C545.688 667.464 548.701 667.922 551.575 668.871C554.041 669.708 556.261 671.145 558.034 673.053C559.865 675.093 561.208 677.523 561.96 680.159C562.906 683.458 563.356 686.878 563.295 690.309H563.354ZM553.833 690.761C553.839 688.607 553.642 686.457 553.244 684.341C552.946 682.575 552.313 680.882 551.379 679.354C550.512 677.988 549.29 676.882 547.845 676.154C546.128 675.346 544.244 674.956 542.348 675.016C540.417 674.952 538.502 675.392 536.792 676.292C535.33 677.114 534.09 678.28 533.18 679.688C532.212 681.195 531.546 682.875 531.217 684.635C530.84 686.615 530.656 688.627 530.667 690.643C530.643 692.867 530.827 695.088 531.217 697.278C531.512 699.06 532.138 700.772 533.062 702.324C533.923 703.683 535.138 704.783 536.576 705.504C538.307 706.284 540.195 706.653 542.093 706.584C544.023 706.657 545.938 706.224 547.649 705.327C549.115 704.539 550.363 703.399 551.28 702.01C552.237 700.469 552.902 698.765 553.244 696.984C553.638 694.966 553.829 692.914 553.813 690.859L553.833 690.761ZM610.038 696.552C610.078 699.072 609.665 701.578 608.821 703.953C608.08 706.043 606.871 707.937 605.288 709.489C603.636 711.055 601.658 712.235 599.496 712.945C596.961 713.764 594.308 714.162 591.643 714.122C589.098 714.158 586.561 713.8 584.124 713.062C582.018 712.437 580.083 711.336 578.471 709.843C576.888 708.351 575.678 706.508 574.937 704.464C574.083 702.051 573.671 699.504 573.72 696.945V669.617C573.72 669.389 573.796 669.168 573.936 668.989C574.12 668.76 574.376 668.601 574.662 668.537C575.116 668.397 575.583 668.304 576.056 668.262C576.785 668.175 577.52 668.136 578.255 668.145C578.976 668.136 579.698 668.176 580.414 668.262C580.881 668.304 581.342 668.396 581.788 668.537C582.068 668.616 582.32 668.772 582.515 668.989C582.669 669.161 582.753 669.386 582.75 669.617V696.218C582.72 697.794 582.938 699.364 583.398 700.871C583.796 702.093 584.467 703.207 585.361 704.13C586.169 705.004 587.171 705.676 588.286 706.093C589.506 706.54 590.797 706.76 592.095 706.741C593.396 706.765 594.689 706.538 595.904 706.073C597 705.654 597.982 704.981 598.77 704.11C599.59 703.205 600.206 702.134 600.576 700.969C601.029 699.602 601.248 698.168 601.224 696.729V669.617C601.217 669.392 601.286 669.17 601.42 668.989C601.611 668.769 601.865 668.612 602.146 668.537C602.599 668.393 603.067 668.3 603.54 668.262C604.263 668.176 604.991 668.137 605.72 668.145C606.441 668.136 607.163 668.175 607.879 668.262C608.34 668.302 608.794 668.394 609.234 668.537C609.518 668.605 609.773 668.764 609.96 668.989C610.1 669.168 610.176 669.389 610.176 669.617V696.611L610.038 696.552ZM659.255 710.196C659.259 710.687 659.166 711.174 658.981 711.629C658.806 712.024 658.552 712.378 658.235 712.67C657.92 712.955 657.544 713.163 657.135 713.278C656.716 713.41 656.279 713.477 655.84 713.475H651.913C651.212 713.486 650.513 713.407 649.832 713.239C649.238 713.055 648.689 712.747 648.222 712.336C647.648 711.84 647.164 711.249 646.789 710.589C646.222 709.675 645.704 708.731 645.238 707.762L634.186 686.697C633.538 685.44 632.89 684.086 632.222 682.633C631.555 681.18 630.966 679.767 630.436 678.412C630.534 680.081 630.613 681.75 630.652 683.418C630.691 685.087 630.652 686.775 630.652 688.542V712.1C630.653 712.325 630.585 712.545 630.456 712.729C630.283 712.938 630.06 713.101 629.808 713.2C629.4 713.341 628.979 713.439 628.551 713.494C627.899 713.561 627.244 713.594 626.588 713.592C625.932 713.595 625.277 713.562 624.625 713.494C624.203 713.442 623.788 713.343 623.388 713.2C623.134 713.114 622.914 712.949 622.76 712.729C622.645 712.539 622.584 712.322 622.583 712.1V671.639C622.548 671.184 622.616 670.727 622.783 670.302C622.949 669.877 623.21 669.495 623.545 669.185C624.186 668.629 625.013 668.335 625.862 668.361H630.711C631.457 668.346 632.202 668.425 632.929 668.596C633.506 668.731 634.047 668.985 634.519 669.342C635.045 669.737 635.497 670.223 635.854 670.775C636.327 671.51 636.747 672.278 637.111 673.072L645.768 689.543L647.26 692.488C647.771 693.45 648.242 694.451 648.694 695.374L650.029 698.201C650.48 699.143 650.892 700.066 651.305 701.008C651.305 699.379 651.167 697.671 651.148 695.924C651.128 694.176 651.148 692.469 651.148 690.859V669.715C651.153 669.489 651.228 669.269 651.363 669.087C651.549 668.87 651.785 668.702 652.051 668.596C652.46 668.439 652.89 668.34 653.327 668.302C653.981 668.269 654.636 668.269 655.29 668.302C655.944 668.267 656.599 668.267 657.253 668.302C657.672 668.334 658.083 668.434 658.47 668.596C658.714 668.701 658.925 668.871 659.079 669.087C659.197 669.275 659.258 669.493 659.255 669.715V710.196ZM708.688 690.23C708.772 693.836 708.234 697.429 707.098 700.851C706.157 703.576 704.583 706.039 702.504 708.037C700.419 709.934 697.928 711.331 695.221 712.12C691.899 713.046 688.46 713.482 685.012 713.416H674.392C673.676 713.452 672.974 713.213 672.428 712.748C672.15 712.454 671.938 712.104 671.806 711.722C671.674 711.339 671.625 710.933 671.663 710.53V671.266C671.609 670.892 671.64 670.51 671.753 670.149C671.866 669.788 672.059 669.456 672.317 669.18C672.575 668.903 672.892 668.687 673.244 668.549C673.596 668.411 673.975 668.353 674.352 668.38H685.758C689.183 668.301 692.597 668.778 695.869 669.794C698.477 670.648 700.864 672.069 702.858 673.956C704.793 675.887 706.269 678.229 707.177 680.807C708.211 683.839 708.709 687.028 708.649 690.23H708.688ZM699.324 690.564C699.333 688.577 699.082 686.597 698.578 684.675C698.141 682.937 697.331 681.316 696.203 679.924C695.087 678.546 693.651 677.461 692.021 676.763C689.875 675.941 687.584 675.56 685.287 675.644H680.713V706.132H685.425C687.555 706.196 689.679 705.863 691.687 705.151C693.326 704.541 694.79 703.536 695.947 702.226C697.131 700.796 697.995 699.129 698.48 697.337C699.07 695.122 699.354 692.837 699.324 690.545V690.564ZM753.685 710.019C753.911 710.659 754.088 711.316 754.215 711.983C754.258 712.175 754.256 712.374 754.208 712.565C754.16 712.756 754.068 712.933 753.94 713.082C753.547 713.371 753.073 713.529 752.585 713.533C751.957 713.533 751.054 713.533 749.955 713.533C748.855 713.533 747.854 713.533 747.206 713.533C746.703 713.512 746.203 713.44 745.714 713.318C745.43 713.249 745.175 713.091 744.988 712.866C744.83 712.655 744.717 712.415 744.654 712.159L741.709 703.148H724.904L722.077 711.943C721.998 712.233 721.879 712.511 721.724 712.768C721.54 713.009 721.286 713.187 720.998 713.278C720.542 713.436 720.066 713.522 719.584 713.533C718.975 713.533 718.19 713.533 717.189 713.533C716.188 713.533 715.324 713.533 714.715 713.435C714.256 713.415 713.818 713.235 713.479 712.925C713.356 712.765 713.271 712.58 713.23 712.383C713.19 712.185 713.194 711.982 713.243 711.786C713.35 711.117 713.521 710.46 713.753 709.823L727.496 669.853C727.596 669.513 727.756 669.194 727.967 668.91C728.191 668.629 728.502 668.429 728.85 668.341C729.395 668.193 729.955 668.114 730.519 668.105C731.226 668.105 732.168 668.105 733.346 668.105C734.701 668.105 735.78 668.105 736.566 668.105C737.227 668.105 737.886 668.184 738.529 668.341C738.898 668.434 739.232 668.631 739.491 668.91C739.719 669.23 739.886 669.589 739.982 669.97L753.724 709.902L753.685 710.019ZM733.248 676.94L727.025 696.12H739.51L733.248 676.959V676.94ZM786.862 672.11C786.896 671.522 786.896 670.932 786.862 670.343C786.829 669.948 786.743 669.558 786.607 669.185C786.528 668.938 786.378 668.719 786.175 668.557C786.014 668.428 785.813 668.359 785.606 668.361H754.195C753.981 668.351 753.771 668.421 753.606 668.557C753.416 668.727 753.274 668.943 753.194 669.185C753.057 669.558 752.972 669.948 752.939 670.343C752.904 670.932 752.904 671.522 752.939 672.11C752.903 672.692 752.903 673.276 752.939 673.858C752.976 674.246 753.062 674.629 753.194 674.996C753.274 675.238 753.416 675.455 753.606 675.624C753.684 675.699 753.777 675.757 753.878 675.794C753.979 675.831 754.087 675.847 754.195 675.84H765.267V712.159C765.264 712.387 765.34 712.61 765.483 712.787C765.691 712.997 765.947 713.152 766.229 713.239C766.687 713.365 767.152 713.457 767.623 713.514C768.212 713.514 768.939 713.612 769.802 713.612C770.666 713.612 771.412 713.612 772.001 713.514C772.472 713.457 772.938 713.365 773.395 713.239C773.677 713.152 773.933 712.997 774.141 712.787C774.276 712.605 774.351 712.386 774.357 712.159V675.84H785.488C785.699 675.846 785.903 675.768 786.057 675.624C786.26 675.462 786.411 675.244 786.489 674.996C786.621 674.629 786.707 674.246 786.745 673.858C786.779 673.276 786.779 672.692 786.745 672.11H786.862ZM804.001 712.159C804.004 712.387 803.928 712.61 803.785 712.787C803.581 713.001 803.323 713.157 803.039 713.239C802.588 713.363 802.129 713.455 801.665 713.514C800.934 713.583 800.2 713.616 799.466 713.612C798.583 713.612 797.856 713.612 797.267 713.514C796.797 713.453 796.332 713.361 795.873 713.239C795.595 713.158 795.343 713.001 795.147 712.787C794.999 712.611 794.915 712.39 794.911 712.159V669.617C794.908 669.386 794.992 669.161 795.147 668.989C795.343 668.764 795.603 668.607 795.893 668.537C796.346 668.397 796.814 668.304 797.287 668.262C798.01 668.175 798.738 668.136 799.466 668.145C800.201 668.136 800.935 668.175 801.665 668.262C802.132 668.302 802.593 668.394 803.039 668.537C803.327 668.611 803.586 668.768 803.785 668.989C803.934 669.163 804.011 669.388 804.001 669.617V712.159ZM856.496 690.368C856.538 693.755 856.075 697.13 855.122 700.38C854.308 703.139 852.909 705.691 851.019 707.86C849.182 709.935 846.882 711.549 844.305 712.572C841.342 713.698 838.189 714.245 835.019 714.181C831.946 714.247 828.884 713.782 825.969 712.807C823.495 711.976 821.273 710.531 819.51 708.606C817.662 706.563 816.318 704.115 815.584 701.46C814.661 698.104 814.225 694.633 814.288 691.153C814.24 687.83 814.704 684.519 815.662 681.337C816.485 678.599 817.884 676.069 819.765 673.916C821.605 671.848 823.905 670.241 826.479 669.224C829.443 668.071 832.605 667.511 835.785 667.575C838.817 667.521 841.837 667.979 844.717 668.93C847.184 669.767 849.403 671.204 851.176 673.112C853.007 675.152 854.35 677.582 855.103 680.218C856.049 683.516 856.499 686.937 856.438 690.368H856.496ZM846.975 690.819C846.986 688.661 846.802 686.506 846.425 684.38C846.128 682.614 845.494 680.922 844.56 679.394C843.693 678.027 842.472 676.921 841.027 676.194C839.309 675.388 837.426 674.997 835.53 675.055C833.598 674.991 831.684 675.431 829.974 676.331C828.512 677.153 827.272 678.319 826.362 679.727C825.394 681.234 824.728 682.914 824.398 684.675C824.015 686.654 823.824 688.666 823.829 690.682C823.811 692.907 824.002 695.128 824.398 697.318C824.694 699.1 825.32 700.811 826.244 702.363C827.097 703.722 828.305 704.822 829.738 705.543C831.477 706.321 833.371 706.69 835.274 706.623C837.204 706.696 839.12 706.263 840.83 705.367C842.273 704.557 843.493 703.404 844.384 702.01C845.34 700.469 846.005 698.765 846.347 696.984C846.732 694.965 846.923 692.914 846.916 690.859L846.975 690.819ZM903.593 710.196C903.597 710.687 903.503 711.174 903.318 711.629C903.151 712.027 902.896 712.383 902.572 712.67C902.258 712.955 901.882 713.163 901.473 713.278C901.054 713.412 900.617 713.478 900.177 713.475H896.251C895.543 713.488 894.837 713.408 894.15 713.239C893.556 713.055 893.007 712.747 892.541 712.336C891.966 711.84 891.482 711.249 891.107 710.589C890.54 709.675 890.023 708.731 889.556 707.762L878.504 686.697C877.856 685.44 877.208 684.086 876.541 682.633C875.873 681.18 875.284 679.767 874.754 678.412C874.754 680.081 874.911 681.75 874.95 683.418C874.99 685.087 874.95 686.775 874.95 688.542V712.1C874.952 712.325 874.883 712.545 874.754 712.729C874.587 712.943 874.362 713.107 874.106 713.2C873.699 713.341 873.278 713.439 872.85 713.494C872.198 713.561 871.542 713.594 870.887 713.592C870.231 713.595 869.576 713.562 868.923 713.494C868.501 713.442 868.087 713.343 867.687 713.2C867.437 713.114 867.224 712.948 867.078 712.729C866.963 712.539 866.902 712.322 866.901 712.1V671.639C866.866 671.186 866.933 670.73 867.096 670.306C867.259 669.881 867.514 669.499 867.844 669.185C868.491 668.626 869.325 668.331 870.18 668.361H875.029C875.751 668.364 876.47 668.456 877.169 668.635C877.748 668.761 878.292 669.016 878.759 669.382C879.285 669.777 879.737 670.262 880.094 670.815C880.574 671.548 881.001 672.316 881.37 673.112L890.028 689.583C890.518 690.584 891.029 691.546 891.52 692.527C892.01 693.509 892.482 694.491 892.933 695.413L894.268 698.24C894.72 699.183 895.151 700.105 895.544 701.048C895.544 699.418 895.426 697.71 895.387 695.963C895.348 694.216 895.387 692.508 895.387 690.898V669.715C895.386 669.49 895.454 669.271 895.583 669.087C895.769 668.87 896.005 668.702 896.271 668.596C896.68 668.439 897.11 668.34 897.547 668.302C898.201 668.269 898.856 668.269 899.51 668.302C900.164 668.267 900.819 668.267 901.473 668.302C901.892 668.332 902.304 668.431 902.69 668.596C902.937 668.695 903.149 668.866 903.299 669.087C903.417 669.275 903.478 669.493 903.475 669.715L903.593 710.196Z" fill="#86868B"/>
</g>
<defs>
<clipPath id="clip0">
<rect width="1080" height="1080" fill="white"/>
</clipPath>
</defs>
</svg>
