<svg width="1080" height="1080" viewBox="0 0 1080 1080" fill="none" xmlns="http://www.w3.org/2000/svg">
<path d="M690.37 374.871C667.924 343.983 676.753 295.412 676.753 295.412C687.512 240.689 651.014 211.011 612.738 195.027C589.223 185.253 564.009 180.221 538.544 180.221C513.078 180.221 487.864 185.253 464.349 195.027C426.151 210.96 389.575 240.638 400.334 295.412C400.334 295.412 409.162 343.957 386.743 374.871C375.895 389.475 370.496 407.412 371.479 425.578C373.539 458.422 393.178 512.527 468.415 538.833C513.823 554.69 563.264 554.69 608.672 538.833C683.909 512.553 703.548 458.448 705.607 425.578C706.588 407.417 701.199 389.483 690.37 374.871V374.871Z" stroke="#86868B" stroke-width="7.33931" stroke-miterlimit="10"/>
<path d="M539.273 550.725C617.047 550.725 680.096 504.951 680.096 448.486C680.096 392.021 617.047 346.248 539.273 346.248C461.499 346.248 398.451 392.021 398.451 448.486C398.451 504.951 461.499 550.725 539.273 550.725Z" stroke="#86868B" stroke-width="7.33931" stroke-miterlimit="10"/>
<path d="M657.577 222.903C657.577 222.903 673.252 130.523 648.439 100.819C626.74 74.8476 601.258 143.856 599.714 150.239C598.169 156.623 588.054 179.171 578.633 183.701C578.633 183.753 644.835 205.297 657.577 222.903Z" stroke="#86868B" stroke-width="7.33931" stroke-miterlimit="10"/>
<path d="M419.845 222.903C419.845 222.903 404.195 130.523 429.008 100.819C450.707 74.8476 476.189 143.856 477.734 150.239C479.278 156.623 489.394 179.171 498.814 183.701C498.814 183.753 432.612 205.297 419.845 222.903Z" stroke="#86868B" stroke-width="7.33931" stroke-miterlimit="10"/>
<path d="M459.687 335.463C473.718 335.463 485.093 324.089 485.093 310.058C485.093 296.027 473.718 284.653 459.687 284.653C445.656 284.653 434.282 296.027 434.282 310.058C434.282 324.089 445.656 335.463 459.687 335.463Z" fill="#86868B"/>
<path d="M469.699 313.815C475.485 313.815 480.175 309.125 480.175 303.339C480.175 297.554 475.485 292.863 469.699 292.863C463.913 292.863 459.223 297.554 459.223 303.339C459.223 309.125 463.913 313.815 469.699 313.815Z" fill="white"/>
<path d="M616.622 335.463C630.653 335.463 642.027 324.089 642.027 310.058C642.027 296.027 630.653 284.653 616.622 284.653C602.591 284.653 591.217 296.027 591.217 310.058C591.217 324.089 602.591 335.463 616.622 335.463Z" fill="#86868B"/>
<path d="M606.613 313.815C612.399 313.815 617.089 309.125 617.089 303.339C617.089 297.554 612.399 292.863 606.613 292.863C600.827 292.863 596.137 297.554 596.137 303.339C596.137 309.125 600.827 313.815 606.613 313.815Z" fill="white"/>
<path d="M503.54 424.443C510.998 418.75 510.91 406.101 503.345 396.192C495.779 386.283 483.601 382.865 476.144 388.558C468.686 394.252 468.774 406.9 476.339 416.81C483.904 426.719 496.083 430.137 503.54 424.443Z" fill="#86868B"/>
<path d="M599.499 417.037C607.064 407.127 607.152 394.479 599.694 388.785C592.237 383.092 580.059 386.51 572.493 396.419C564.928 406.329 564.84 418.977 572.298 424.671C579.755 430.364 591.934 426.946 599.499 417.037Z" fill="#86868B"/>
<path d="M581.671 487.817H494.156C494.156 487.817 482.495 487.457 482.47 495.024C482.485 496.312 482.84 497.573 483.499 498.679C486.743 504.29 501.183 524.985 537.193 523.183H538.66C574.695 524.985 589.11 504.29 592.353 498.679C593.012 497.573 593.367 496.312 593.382 495.024C593.305 487.482 581.671 487.817 581.671 487.817Z" fill="#86868B"/>
<path d="M673.304 245.631C673.304 245.631 794.641 232.761 810.96 292.632C811.38 294.264 811.393 295.974 810.998 297.612C810.603 299.25 809.812 300.766 808.695 302.027C798.708 313.481 766.559 341.589 711.321 309.079C698.008 301.251 687.512 289.412 681.335 275.257C677.716 265.662 675.027 255.741 673.304 245.631V245.631Z" stroke="#86868B" stroke-width="7.33931" stroke-miterlimit="10"/>
<path d="M403.189 245.631C403.189 245.631 281.852 232.761 265.533 292.632C265.113 294.264 265.1 295.974 265.495 297.612C265.89 299.25 266.681 300.766 267.798 302.027C277.785 313.481 309.934 341.589 365.172 309.079C378.498 301.259 389.005 289.419 395.184 275.257C398.781 265.657 401.462 255.737 403.189 245.631Z" stroke="#86868B" stroke-width="7.33931" stroke-miterlimit="10"/>
<path d="M315.468 750.183H266.349V944.186C258.103 944.186 250.093 942.654 242.319 939.592C234.78 936.765 231.011 933.467 231.011 929.697V877.751C217.818 885.761 203.801 889.766 188.96 889.766C166.108 889.766 149.028 881.403 137.72 864.677C126.648 847.95 121.112 826.512 121.112 800.362V750.183H89.308C81.7694 740.76 78 730.276 78 718.733H304.16C311.698 727.921 315.468 738.404 315.468 750.183ZM231.011 750.183H158.216V800.009C158.216 825.452 159.983 842.885 163.517 852.308C167.286 861.496 174.707 866.09 185.779 866.09C193.318 866.09 201.092 863.381 209.102 857.962C217.347 852.308 224.65 845.005 231.011 836.053V750.183Z" fill="#86868B"/>
<path d="M561.731 750.183H512.612V944.186C504.366 944.186 496.357 942.654 488.582 939.592C481.044 936.765 477.274 933.467 477.274 929.697V750.183H432.396C440.877 759.842 445.117 771.621 445.117 785.521C445.117 803.896 437.932 820.505 423.562 835.346C409.191 850.188 392.936 861.378 374.796 868.917C386.339 878.576 398.236 889.766 410.487 902.488C422.973 915.209 431.454 925.457 435.93 933.231C434.516 936.765 430.747 940.888 424.622 945.599C418.732 950.546 413.431 954.08 408.72 956.2C395.292 930.286 377.27 903.312 354.654 875.278C353.24 875.513 349.588 875.631 343.699 875.631C338.045 875.631 331.331 873.511 323.557 869.27C316.018 864.794 312.249 859.611 312.249 853.722C312.249 847.832 315.076 842.296 320.73 837.113C326.384 831.695 331.92 828.986 337.338 828.986C345.584 828.986 354.771 835.111 364.901 847.361C375.974 844.534 386.339 837.113 395.998 825.099C405.657 813.084 410.487 799.891 410.487 785.521C410.487 762.669 401.77 751.243 384.337 751.243C377.976 751.243 372.558 753.481 368.082 757.957C363.841 762.434 361.721 768.559 361.721 776.333C361.721 788.112 368.906 799.42 383.277 810.257C381.628 815.675 379.036 819.68 375.503 822.272C360.19 816.618 348.175 809.197 339.458 800.009C330.977 790.821 326.737 780.573 326.737 769.265C326.737 762.198 328.033 755.837 330.624 750.183H297.053C289.515 740.76 285.745 730.276 285.745 718.733H550.423C557.962 727.921 561.731 738.404 561.731 750.183Z" fill="#86868B"/>
<path d="M450.512 951.253C462.055 943.243 475.837 939.239 491.857 939.239C507.641 939.239 521.069 944.186 532.141 954.08C543.214 963.975 548.75 976.225 548.75 990.831C548.75 1005.67 543.92 1017.57 534.262 1026.52C524.367 1035.71 511.41 1040.3 495.39 1040.3C473.717 1040.3 452.396 1031.82 431.43 1014.86C410.227 998.134 393.501 979.288 381.25 958.321C382.428 956.436 385.02 953.845 389.025 950.547C392.794 947.248 396.092 945.246 398.919 944.539C426.954 986.473 456.99 1007.44 489.03 1007.44C500.102 1007.44 508.701 1005.32 514.826 1001.08C520.951 996.839 524.014 991.891 524.014 986.237C524.014 980.819 522.247 976.578 518.713 973.516C515.179 970.453 508.936 968.922 499.984 968.922C491.032 968.922 480.666 972.691 468.887 980.23C466.06 977.639 462.644 973.28 458.639 967.155C454.635 961.266 451.925 955.965 450.512 951.253Z" fill="#86868B"/>
<path d="M799.999 750.183H750.88V944.186C742.87 944.186 734.978 942.654 727.204 939.592C719.43 936.765 715.543 933.467 715.543 929.697V887.646C699.052 898.012 681.148 903.194 661.83 903.194C642.512 903.194 626.728 898.247 614.478 888.353C602.463 878.223 596.456 865.148 596.456 849.128C596.456 836.878 600.696 825.923 609.177 816.264C597.162 811.788 587.621 805.192 580.554 796.475C573.486 787.523 569.952 776.922 569.952 764.672C569.952 752.421 574.9 741.231 584.794 731.101C594.924 720.971 608.706 715.906 626.139 715.906C638.86 715.906 648.637 718.733 655.469 724.387C662.536 730.041 666.07 736.991 666.07 745.236C666.07 761.962 655.233 773.742 633.56 780.573C630.026 777.746 627.435 773.742 625.785 768.559C635.444 762.198 640.274 755.484 640.274 748.416C640.274 744.411 639.096 741.231 636.74 738.875C634.384 736.284 630.615 734.988 625.432 734.988C620.249 734.988 615.184 737.815 610.237 743.469C605.29 749.123 602.816 756.544 602.816 765.732C602.816 774.684 605.29 782.223 610.237 788.348C615.42 794.237 621.898 798.36 629.673 800.716C640.038 795.533 651.7 791.646 664.657 789.054C673.609 797.535 679.263 806.37 681.619 815.557C667.013 818.384 654.644 822.861 644.514 828.986C634.62 834.875 629.673 841.707 629.673 849.481C629.673 857.02 632.264 863.145 637.447 867.857C642.865 872.569 650.522 874.924 660.416 874.924C670.546 874.924 680.558 872.097 690.453 866.443C700.347 860.789 708.711 853.369 715.543 844.181V750.183H691.16C682.679 740.289 678.438 729.805 678.438 718.733H789.044C796.348 728.156 799.999 738.64 799.999 750.183Z" fill="#86868B"/>
<path d="M872.372 835.7L854.703 836.053C853.996 844.534 852.347 852.78 849.756 860.789C847.4 868.564 844.691 873.629 841.628 875.984C838.801 878.105 835.385 879.165 831.38 879.165C827.611 879.165 824.666 878.34 822.546 876.691C815.243 871.037 808.411 863.263 802.05 853.369C795.689 843.239 792.509 834.993 792.509 828.632C792.509 814.733 804.759 807.077 829.26 805.663C854.232 804.721 870.958 804.249 879.439 804.249H916.19V750.183H781.908C774.369 740.76 770.6 730.276 770.6 718.733H989.692C997.231 727.921 1001 738.404 1001 750.183H951.528V944.186C943.282 944.186 935.272 942.654 927.498 939.592C919.96 936.765 916.19 933.467 916.19 929.697V835.7H872.372Z" fill="#86868B"/>
</svg>
