<svg width="1080" height="1080" viewBox="0 0 1080 1080" fill="none" xmlns="http://www.w3.org/2000/svg">
<g clip-path="url(#clip0)">
<g clip-path="url(#clip1)">
<path d="M752.231 434.21C696.755 434.21 641.253 434.21 584.912 434.21C602.65 467.069 619.906 499.038 637.644 531.897C643.667 522.621 649.283 513.981 655.281 504.756C661.126 508.619 666.742 512.355 672.943 516.446C654.239 546.789 635.662 576.954 616.653 607.78C588.267 558.403 560.262 509.686 531.774 460.131C511.087 494.134 490.783 527.552 470.147 561.529C480.973 562.317 491.011 561.732 501.202 562.799C501.202 569.763 501.202 576.522 501.202 583.918C464.582 582.825 428.241 581.757 391.087 580.665C421.761 531.16 452.028 482.291 482.65 432.838C444.633 432.838 407.225 432.838 369.232 432.838C373.756 441.275 378.127 449.356 382.727 457.946C376.653 461.402 370.783 464.731 364.48 468.314C347.885 437.539 331.52 407.221 314.772 376.217C371.672 376.217 427.962 376.217 485.344 376.217C466.361 341.376 447.86 307.425 428.953 272.761C423.489 281.071 418.457 288.721 413.197 296.7C407.326 293.117 401.837 289.788 395.967 286.23C415.56 256.04 434.874 226.281 454.569 195.963C481.176 245.442 507.403 294.184 534.162 343.943C552.257 311.262 569.944 279.267 588.063 246.51C576.551 246.51 566.005 246.51 555.103 246.51C555.103 240.004 555.103 233.981 555.103 227.603C590.401 227.603 625.675 227.603 661.456 227.603C658.127 235.481 655.23 243.104 651.418 250.373C630.401 290.322 609.385 330.271 588.419 370.22C587.555 371.846 586.335 373.346 586.132 375.633C622.523 375.633 658.838 375.633 696.018 375.633C691.189 366.662 686.488 357.92 681.431 348.492C687.199 344.985 692.943 341.503 699.016 337.819C717.263 369.712 735.535 401.046 753.349 432.66C753.019 433.193 752.638 433.702 752.231 434.21ZM349.283 395.887C352.155 401.224 354.722 405.468 356.755 409.94C358.33 413.422 360.592 414.311 364.302 414.311C413.4 414.184 462.473 414.235 511.57 414.235C513.527 414.235 515.484 414.235 518.279 414.235C488.445 463.333 459.169 511.567 429.232 560.817C433.527 560.817 436.475 560.436 439.27 560.893C443.946 561.656 446.208 559.47 448.521 555.735C475.611 511.567 502.879 467.526 530.122 423.46C530.757 422.444 531.011 420.817 532.917 420.843C560.49 468.771 588.063 516.7 616.043 565.341C618.203 561.986 619.779 559.14 621.761 556.624C624.175 553.574 624.251 551.109 622.218 547.526C598.203 504.934 574.391 462.24 550.579 419.521C549.715 417.996 548.038 416.624 548.877 414.134C605.547 414.134 662.295 414.134 719.88 414.134C716.856 409.407 713.985 405.417 711.672 401.097C709.563 397.158 706.869 395.811 702.295 395.836C653.044 396.014 603.769 395.963 554.518 395.938C552.587 395.938 550.554 396.345 548.216 395.277C575.001 345.747 601.659 296.497 628.648 246.561C623.921 246.561 619.982 246.815 616.094 246.484C612.46 246.179 610.681 247.679 608.978 250.754C588.953 286.967 568.775 323.079 548.648 359.216C543.743 368.009 538.889 376.802 533.603 386.357C506.462 336.294 479.703 286.916 452.536 236.853C449.08 242.113 445.98 246.789 442.854 251.542C467.911 299.572 492.866 347.399 518.152 395.887C461.659 395.887 405.954 395.887 349.283 395.887Z" fill="#86868B"/>
<path d="M240.469 796.039C265.195 796.09 284.814 815.454 284.687 839.673C284.56 863.561 264.84 882.875 240.519 883.002C216.072 883.129 196.199 863.612 196.199 839.444C196.199 815.099 215.666 795.988 240.469 796.039ZM218.791 839.622C218.918 841.325 218.944 843.027 219.198 844.73C220.621 854.158 227.254 861.401 235.996 863.231C244.89 865.086 253.683 861.376 258.258 853.244C263.645 843.688 263.544 833.853 257.521 824.629C249.236 811.947 231.574 812.075 223.035 824.603C219.935 829.127 218.69 834.184 218.791 839.622Z" fill="#86868B"/>
<path d="M36.1636 862.585C49.0734 862.585 60.8396 862.585 72.8853 862.585C72.8853 868.608 72.8853 874.3 72.8853 880.247C48.743 880.247 24.8802 880.247 0.000962219 880.247C13.8256 858.722 27.3199 837.731 41.3479 815.927C29.9374 815.927 19.3148 815.927 8.41266 815.927C8.41266 809.726 8.41266 804.135 8.41266 798.214C31.2589 798.214 54.0289 798.214 77.5359 798.214C63.8383 819.535 50.3186 840.577 36.1636 862.585Z" fill="#86868B"/>
<path d="M847.273 815.814C847.273 821.074 847.273 825.318 847.273 830.07C856.041 830.07 864.681 830.07 873.652 830.07C873.652 836.271 873.652 841.964 873.652 848.164C864.859 848.164 856.244 848.164 847.375 848.164C847.375 852.84 847.375 857.033 847.375 861.659C856.651 861.659 865.799 861.659 875.38 861.659C875.38 867.936 875.38 873.781 875.38 880.108C858.887 880.108 842.267 880.108 825.342 880.108C825.342 852.942 825.342 825.674 825.342 798.152C842.013 798.152 858.531 798.152 875.431 798.152C875.431 803.793 875.431 809.511 875.431 815.839C866.282 815.814 856.981 815.814 847.273 815.814Z" fill="#86868B"/>
<path d="M411.627 870.654C415.058 865.037 418.311 859.675 421.665 854.161C424.511 856.575 426.976 858.938 429.721 860.92C433.965 863.995 438.666 865.901 444.105 864.885C448.628 864.021 451.5 861.149 451.856 857.21C452.211 853.322 450.305 850.247 446.062 848.519C443.063 847.299 439.912 846.461 436.837 845.469C435.21 844.936 433.558 844.504 431.957 843.919C423.012 840.692 416.379 835.482 415.846 825.012C415.236 813.322 419.48 804.275 430.128 798.887C441.182 793.297 458.514 795.431 468.781 803.64C466.646 808.646 464.435 813.754 462.072 819.294C460.344 818.252 458.844 817.337 457.319 816.422C453.101 813.856 448.577 812.534 443.622 813.271C439.912 813.805 437.142 816.321 436.913 819.319C436.608 822.928 438.743 825.164 441.818 826.333C445.655 827.782 449.619 828.773 453.533 830.044C468.425 834.872 473.253 841.302 472.771 855.584C472.338 868.519 464.308 878.582 451.398 881.632C436.354 885.19 423.114 881.657 411.627 870.654Z" fill="#86868B"/>
<path d="M659.343 880.219C651.643 880.219 644.502 880.219 636.776 880.219C636.776 859.584 636.776 838.847 636.776 817.526C630.347 817.526 624.451 817.526 618.301 817.526C618.301 810.868 618.301 804.768 618.301 798.263C637.869 798.263 657.564 798.263 677.513 798.263C677.513 804.413 677.513 810.486 677.513 817.145C671.693 817.145 665.798 817.145 659.343 817.145C659.343 838.466 659.343 859.203 659.343 880.219Z" fill="#86868B"/>
<path d="M1052.43 798.257C1052.43 819.121 1052.43 839.782 1052.43 860.976C1061.68 860.976 1070.65 860.976 1080.01 860.976C1080.01 867.558 1080.01 873.606 1080.01 880.087C1063.56 880.087 1046.94 880.087 1030.09 880.087C1030.09 852.895 1030.09 825.779 1030.09 798.257C1037.26 798.257 1044.5 798.257 1052.43 798.257Z" fill="#86868B"/>
</g>
</g>
<defs>
<clipPath id="clip0">
<rect width="1080" height="1080" fill="white"/>
</clipPath>
<clipPath id="clip1">
<rect width="1080" height="687.014" fill="white" transform="translate(0 196)"/>
</clipPath>
</defs>
</svg>
