<svg width="1080" height="1080" viewBox="0 0 1080 1080" fill="none" xmlns="http://www.w3.org/2000/svg">
<path d="M694.026 527.189L642.668 461.053C627.132 400.392 641.617 329.662 641.732 328.285L642.121 327.791L639.357 325.605C627.647 316.323 604.302 257.481 595.62 233.789L611.134 200.952L610.987 199.901C610.304 195.097 591.373 160.641 583.258 146.041L578.791 138L576.689 146.966C570.529 173.433 568.9 219.977 568.637 228.702C554.51 228.155 535.348 227.934 515.03 229.09C513.338 216.225 506.736 170.343 497.045 157.004L493.892 152.8L491.117 157.278C486.975 163.942 466.499 197.777 469.358 209.918L488.836 248.231C483.034 253.76 476.338 260.53 469.022 268.592L468.139 268.665L468.202 269.496C430.33 311.436 377.311 387.011 356.709 496.854C356.181 499.634 356.199 502.49 356.762 505.263C361.345 528.072 391.323 645.83 532.71 724.475C534.673 725.57 536.884 726.146 539.132 726.146C541.622 726.142 544.061 725.443 546.175 724.128C566.924 711.147 671.731 641.541 697.032 541.958C697.695 539.43 697.769 536.784 697.248 534.224C696.727 531.663 695.625 529.256 694.026 527.189ZM581.755 157.971C591.993 176.618 601.874 195.307 603.703 200.079L589.618 229.868C586.916 229.658 582.102 229.322 575.753 228.996C575.974 221.796 577.309 184.249 581.755 157.971ZM589.229 236.953C594.421 251.048 617.441 312.15 632.409 328.716C626.649 336.4 619.396 347.636 621.183 353.638C621.75 363.845 628.909 482.811 654.325 529.996L656.049 529.071L654.829 529.87C638.201 540.78 611.155 536.345 602.862 534.621C595.22 410.115 554.72 356.119 547.446 347.353C546.74 346.51 545.867 345.823 544.882 345.334L525.962 335.874C525.483 335.636 525.058 335.304 524.711 334.898C524.364 334.491 524.103 334.019 523.943 333.509L497.171 250.092C505.391 242.461 511.214 237.836 513.253 236.27C538.566 234.832 563.946 235.064 589.229 236.963V236.953ZM572.863 548.401L572.705 548.59C556.938 540.181 551.01 522.459 551.01 522.459C550.568 520.63 540.089 477.377 513.506 459.392C495.111 446.947 484.799 396.251 480.921 372.537C499.074 417.599 536.378 446.116 543.421 451.204C546.669 463.407 563.14 523.889 577.992 550.924C576.625 550.448 575.287 549.89 573.987 549.253C573.598 548.99 573.22 548.706 572.863 548.401ZM601.39 541.632C609.536 543.366 633.922 547.455 652.675 539.141C651.623 546.866 648.743 557.189 642.51 557.777L642.121 557.84C641.774 557.914 615.612 563.264 593.065 557.924L601.39 541.632ZM476.306 207.942C475.318 201.435 485.23 181.327 494.102 166.233C500.85 181.58 506.253 215.804 508.219 231.287C505.801 233.179 500.861 237.163 494.218 243.27L476.306 207.942ZM491.485 255.579L517.216 335.801C517.655 337.175 518.365 338.448 519.304 339.544C520.242 340.64 521.391 341.536 522.682 342.181L539.794 350.737C541.334 351.508 542.684 352.61 543.747 353.964C552.944 365.642 588.945 418.419 595.872 536.765L587.463 553.131C574.608 535.125 556.297 472.615 549.854 448.145L549.517 446.873L548.466 446.127C547.951 445.78 496.961 410.094 482.151 354.069L475.497 271.945C481.31 265.638 486.66 260.183 491.464 255.526L491.485 255.579ZM363.752 503.844C363.384 501.966 363.384 500.035 363.752 498.157C383.271 394.096 432.275 321.337 469.075 279.24L475.129 353.954C469.59 360.944 442.271 397.943 433.841 457.637C419.756 557.294 469.306 646.376 518.656 707.804C395.044 631.167 367.956 525.129 363.752 503.844ZM542.443 718.074C541.577 718.61 540.592 718.922 539.575 718.983C538.559 719.044 537.543 718.85 536.62 718.421C484.631 658.16 426.01 564.441 440.726 459.024C445.083 427.109 456.13 396.473 473.142 369.121C476.464 391.006 487.343 450.258 509.532 465.268C519.749 472.184 527.465 483.62 532.994 494.605C532.289 505.704 528.789 603.974 618.881 656.562C595.758 679.833 570.122 700.464 542.443 718.074ZM690.158 540.213C679.058 583.929 652.075 621.77 623.937 651.338C554.058 611.395 541.854 543.072 540.141 511.275C542.843 518.791 544.135 524.11 544.198 524.351C544.524 525.403 551.399 546.194 570.729 555.58C576.009 559.334 581.908 562.13 588.157 563.842L589.47 564.956L589.796 564.315C598.297 566.43 607.031 567.458 615.791 567.374C625.039 567.362 634.266 566.486 643.351 564.757C659.118 563.022 660.169 535.998 660.285 532.908L660.421 526.685L660.526 526.632L660.432 526.443V526.159L660.327 526.233C653.41 513.23 647.871 494.321 643.509 473.677L688.413 531.489C689.357 532.71 690.005 534.133 690.308 535.646C690.611 537.16 690.559 538.723 690.158 540.213Z" fill="#86868B"/>
<path d="M10.5743 802.248V939.398H0V802.248H10.5743Z" fill="#86868B"/>
<path d="M215.69 802.248V939.398H206.965L102.694 819.57V939.398H92.0879V802.248H101.075L205.136 922.076V802.248H215.69Z" fill="#86868B"/>
<path d="M400.541 802.248L343.076 940.765H339.922L282.247 802.248H292.99L341.594 918.292L389.851 802.248H400.541Z" fill="#86868B"/>
<path d="M581.482 811.97V823.533C564.853 814.689 548.557 810.271 532.594 810.278C515.58 810.278 501.344 816.07 489.887 827.653C478.43 839.236 472.701 853.7 472.701 871.043C472.701 888.562 478.461 902.994 489.982 914.339C501.502 925.684 516.186 931.353 534.034 931.346C548.953 931.346 565.218 926.665 582.828 917.303V928.298C566.584 936.875 550.383 941.164 534.224 941.164C513.348 941.164 495.956 934.472 482.046 921.087C468.136 907.703 461.184 891.029 461.191 871.064C461.191 850.974 468.29 834.188 482.487 820.705C489.199 814.157 497.138 808.999 505.849 805.528C514.559 802.058 523.87 800.342 533.246 800.481C548.712 800.481 564.79 804.311 581.482 811.97Z" fill="#86868B"/>
<path d="M752.102 802.248V811.087H700.66V939.398H689.96V811.087H638.518V802.248H752.102Z" fill="#86868B"/>
<path d="M920.27 802.248H930.876V877.056C930.876 897.546 925.543 913.351 914.878 924.472C904.213 935.593 890.401 941.157 873.443 941.164C856.562 941.164 842.785 935.667 832.112 924.672C821.44 913.677 816.107 898.611 816.114 879.474V802.216H826.815V879.085C826.815 895.447 831.152 908.243 839.828 917.472C848.503 926.701 859.715 931.315 873.464 931.315C887.338 931.315 898.614 926.652 907.289 917.325C915.964 907.998 920.298 894.761 920.291 877.613L920.27 802.248Z" fill="#86868B"/>
<path d="M1074.31 809.122V820.8C1062.4 813.793 1052.15 810.289 1043.57 810.289C1035.33 810.289 1028.44 812.791 1022.91 817.794C1020.25 820.102 1018.13 822.964 1016.7 826.178C1015.27 829.392 1014.56 832.88 1014.62 836.399C1014.58 841.596 1016.31 846.651 1019.52 850.736C1022.8 854.99 1029.64 859.079 1040.04 863.003C1050.45 866.927 1058.04 870.2 1062.82 872.82C1067.74 875.578 1071.92 879.488 1074.99 884.215C1078.33 889.19 1080 895.637 1080 903.555C1080.08 908.572 1079.09 913.549 1077.1 918.154C1075.1 922.758 1072.15 926.883 1068.43 930.254C1060.72 937.521 1051.3 941.154 1040.16 941.154C1028.77 941.154 1017.06 937.16 1005.02 929.171V916.715C1018.33 926.47 1029.85 931.347 1039.57 931.347C1047.2 931.533 1054.6 928.691 1060.14 923.443C1062.84 920.994 1064.99 917.998 1066.44 914.654C1067.89 911.309 1068.61 907.694 1068.55 904.049C1068.58 898.359 1066.73 892.817 1063.29 888.282C1059.82 883.608 1052.79 879.232 1042.19 875.154C1031.58 871.075 1024.02 867.817 1019.48 865.378C1014.84 862.799 1010.87 859.148 1007.92 854.731C1004.73 850.127 1003.14 844.191 1003.15 836.924C1003.15 826.855 1007 818.27 1014.71 811.172C1022.27 804.137 1032.27 800.318 1042.6 800.524C1053.27 800.496 1063.84 803.362 1074.31 809.122Z" fill="#86868B"/>
</svg>
