<svg width="1080" height="1080" viewBox="0 0 1080 1080" fill="none" xmlns="http://www.w3.org/2000/svg">
<path d="M393.503 549.189C393.503 538.278 393.503 527.288 393.503 516.377C393.583 483.964 416.678 458.081 449.092 456.408C463.188 455.692 477.603 458.001 488.832 469.151C493.451 473.77 498.07 475.92 505.079 469.629C523.316 453.302 545.536 452.745 566.879 461.346C589.656 470.584 601.682 489.618 602.478 514.307C603.195 538.517 602.717 562.728 602.638 586.938C602.558 598.407 596.983 605.096 587.665 605.335C578.427 605.495 572.613 598.725 572.613 587.177C572.534 563.922 572.693 540.747 572.534 517.492C572.454 499.016 560.03 485.955 542.748 485.875C525.546 485.716 513.043 498.777 512.963 517.333C512.804 540.19 512.883 563.126 512.963 585.983C512.963 593.31 511.609 599.999 504.442 603.742C494.248 609.078 483.098 601.433 483.018 588.77C482.859 564.56 483.098 540.349 482.939 516.138C482.859 502.042 474.019 490.415 461.516 487.309C446.384 483.566 434.518 488.424 426.554 501.166C423.368 506.263 423.049 511.758 423.049 517.413C423.049 540.986 423.129 564.56 422.97 588.053C422.89 595.539 420.262 601.911 412.457 604.38C406.166 606.371 400.75 604.3 396.45 599.203C393.901 596.177 393.583 592.672 393.583 588.929C393.503 575.709 393.503 562.489 393.503 549.189Z" fill="#86868B"/>
<path d="M71.3588 479.185C71.3588 462.301 71.5977 445.418 71.1995 428.534C71.1198 422.481 73.0312 420.65 79.0838 420.49C100.746 419.933 100.587 419.694 100.826 441.276C100.985 457.284 98.2771 455.134 115.081 455.373C125.673 455.532 136.265 455.293 146.858 455.373C179.032 455.532 208.817 478.07 216.383 507.776C225.383 543.216 211.366 577.063 180.386 594.345C152.592 609.874 115.081 604.061 92.543 580.885C78.2078 566.152 71.518 548.313 71.2791 528.004C71.0402 511.758 71.1995 495.511 71.1995 479.265C71.2791 479.185 71.3588 479.185 71.3588 479.185ZM100.905 511.28C100.985 517.89 100.666 524.5 100.985 531.11C102.259 554.923 122.647 573.718 146.459 573.24C170.112 572.762 189.704 552.693 189.863 528.881C189.943 505.705 171.068 485.716 147.415 484.76C134.195 484.202 120.895 484.84 107.675 484.601C102.657 484.521 100.427 486.034 100.746 491.37C101.144 498.06 100.905 504.67 100.905 511.28Z" fill="#86868B"/>
<path d="M616.08 479.185C616.08 462.301 616.319 445.418 615.921 428.534C615.842 422.481 617.753 420.65 623.806 420.49C645.468 419.933 645.308 419.694 645.547 441.276C645.707 457.284 642.999 455.134 659.803 455.373C670.395 455.532 680.987 455.293 691.579 455.373C723.754 455.532 753.539 478.07 761.105 507.776C770.104 543.216 756.088 577.063 725.108 594.345C697.313 609.874 659.803 604.061 637.265 580.885C622.929 566.152 616.24 548.313 616.001 528.004C615.762 511.758 615.921 495.511 615.921 479.265C616.001 479.185 616.08 479.185 616.08 479.185ZM645.627 511.28C645.707 517.89 645.388 524.5 645.707 531.11C646.981 554.923 667.369 573.718 691.181 573.24C714.834 572.762 734.426 552.693 734.585 528.881C734.664 505.705 715.79 485.716 692.137 484.76C678.916 484.202 665.617 484.84 652.396 484.601C647.379 484.521 645.149 486.034 645.468 491.37C645.866 498.06 645.627 504.67 645.627 511.28Z" fill="#86868B"/>
<path d="M376.297 556.992C376.297 567.266 376.297 577.54 376.297 587.813C376.297 595.538 373.351 601.511 365.625 603.9C358.219 606.13 352.326 603.024 348.742 596.812C346.034 592.114 344.202 592.273 339.742 594.822C308.842 612.581 267.748 605.414 244.732 578.655C222.353 552.533 222.034 511.04 244.015 484.042C267.111 455.69 306.532 447.169 338.07 465.088C362.599 478.945 375.262 500.926 376.218 529.198C376.616 538.436 376.297 547.754 376.297 556.992ZM255.881 530.791C255.802 555.001 277.942 574.991 302.073 575.15C327.239 575.23 346.114 556.754 346.353 531.747C346.591 506.023 326.681 485.316 302.073 485.396C277.066 485.396 254.687 511.04 255.881 530.791Z" fill="#86868B"/>
<path d="M845.294 604.617C804.28 604.219 771.149 570.452 771.547 529.357C771.946 487.865 805.793 454.974 847.763 455.372C888.141 455.77 921.191 489.537 920.952 530.233C920.713 572.044 887.105 605.015 845.294 604.617ZM890.848 530.313C890.928 505.306 871.257 485.396 846.33 485.237C822.119 485.077 799.422 506.421 799.74 529.756C800.059 551.736 820.446 575.31 845.772 575.071C870.54 574.832 890.769 555.081 890.848 530.313Z" fill="#86868B"/>
<path d="M1005.06 457.283C1049.98 454.894 1080 493.758 1080 529.835C1080 570.929 1046.63 604.617 1005.62 604.697C963.805 604.776 931.073 571.566 930.197 529.835C929.559 497.262 959.265 452.903 1005.06 457.283ZM960.301 529.835C960.301 555.24 979.334 574.752 1004.42 574.991C1028.87 575.23 1049.74 554.842 1049.98 530.472C1050.21 506.102 1029.91 486.033 1005.46 484.998C985.069 484.281 957.752 503.395 960.301 529.835Z" fill="#86868B"/>
<path d="M348.669 700.584C353.607 687.363 357.748 676.373 361.889 665.383C363.403 661.321 364.995 656.782 370.252 656.782C375.508 656.782 376.782 661.162 378.375 665.383C382.437 676.453 386.817 687.443 391.914 700.345C396.851 687.204 400.993 675.975 405.293 664.825C407.125 660.126 409.275 654.87 415.885 657.339C421.779 659.569 420.584 665.144 419.071 669.285C412.7 687.284 405.851 705.203 399.002 723.122C397.727 726.387 395.259 728.458 391.356 728.378C387.295 728.219 385.622 725.591 384.428 722.325C380.844 713.087 377.34 703.769 373.835 694.531C372.959 692.221 372.72 689.434 369.296 687.682C365.314 698.274 361.412 708.707 357.509 719.14C355.916 723.52 354.642 728.298 348.669 728.298C343.174 728.298 341.979 723.918 340.466 719.857C334.254 703.132 327.963 686.487 321.671 669.843C319.76 664.825 318.565 659.728 324.936 657.419C331.547 654.95 333.538 660.365 335.369 665.064C339.511 675.895 343.572 687.045 348.669 700.584Z" fill="#86868B"/>
<path d="M438.814 700.026C447.176 714.122 457.689 717.148 471.865 710.459C476.643 708.149 480.625 706.955 483.731 712.211C486.996 717.865 482.696 720.732 478.793 723.281C462.706 733.873 439.053 728.298 428.222 711.574C417.55 695.168 422.727 672.311 439.372 661.958C456.733 651.206 479.271 656.463 489.545 673.585C491.456 676.691 492.651 680.036 493.367 683.7C496.075 696.84 493.845 699.946 480.545 699.946C467.086 700.105 453.627 700.026 438.814 700.026ZM439.372 684.655C450.919 684.655 461.432 684.735 471.944 684.576C473.696 684.576 476.165 685.531 477.041 683.063C477.758 680.992 476.245 679.558 474.971 677.966C465.493 667.055 447.017 669.763 439.372 684.655Z" fill="#86868B"/>
<path d="M677.891 700.026C671.599 700.026 665.308 699.946 659.016 700.106C657.264 700.106 654.715 699.07 653.919 701.619C653.282 703.689 655.034 705.203 656.308 706.716C663.078 714.6 673.431 716.193 685.457 710.459C690.235 708.149 694.456 706.955 697.323 712.37C700.27 717.786 696.526 720.971 692.306 723.599C674.705 734.51 649.937 727.502 640.221 708.946C630.584 690.549 639.106 667.135 658.379 659.171C678.209 650.968 700.508 661.56 706.8 682.107C710.941 695.486 707.676 700.106 693.898 700.106C688.483 700.026 683.227 700.026 677.891 700.026ZM691.828 684.576C683.864 669.683 667.139 666.975 656.945 677.567C655.353 679.16 653.043 680.594 654.078 683.222C655.034 685.531 657.503 684.496 659.335 684.496C669.767 684.655 680.28 684.576 691.828 684.576Z" fill="#86868B"/>
<path d="M574.53 704.965C574.53 709.902 574.849 714.92 574.45 719.857C573.893 727.742 568.318 730.768 562.743 725.751C558.921 722.326 556.85 724.158 553.585 725.432C533.038 733.555 511.057 723.68 504.606 703.69C497.996 683.064 509.623 663.313 531.524 657.738C552.629 652.323 573.415 668.41 574.45 691.107C574.689 695.726 574.53 700.346 574.53 704.965ZM538.931 713.725C550.877 713.805 559.717 705.283 559.956 693.337C560.274 681.073 551.275 671.596 539.25 671.516C527.383 671.436 517.667 680.754 517.428 692.541C517.189 704.328 526.666 713.725 538.931 713.725Z" fill="#86868B"/>
<path d="M738.663 728.379C727.991 728.538 721.938 723.76 717.478 716.751C714.93 712.769 714.452 708.389 718.991 705.443C723.212 702.735 726.478 704.805 729.106 708.469C729.663 709.265 730.141 710.141 730.778 710.938C733.088 713.884 736.114 714.92 739.539 713.247C742.406 711.814 744.237 709.345 743.68 706C743.043 702.337 740.574 700.903 736.831 700.027C720.664 696.364 715.169 689.913 715.806 676.294C716.284 667.056 723.372 658.853 732.769 656.862C741.53 655.03 752.361 660.207 756.343 668.012C758.652 672.472 758.493 676.374 754.033 679.241C749.732 681.949 746.149 680.197 743.998 676.294C741.609 671.994 738.264 671.038 733.964 672.392C731.097 673.268 729.743 675.657 729.982 678.524C730.38 683.542 733.964 684.258 738.264 685.134C752.998 688.32 759.449 696.921 757.935 710.141C756.82 720.574 747.821 728.379 738.663 728.379Z" fill="#86868B"/>
<path d="M605.508 700.346C610.526 686.808 614.667 675.658 618.888 664.508C620.72 659.73 622.95 654.633 629.48 657.261C635.692 659.81 634.497 664.827 632.586 669.844C626.056 686.808 619.684 703.771 613.313 720.814C611.88 724.716 610.287 728.22 605.27 728.141C600.252 728.061 598.739 724.318 597.306 720.495C590.934 703.452 584.722 686.409 578.192 669.526C576.121 664.19 575.564 659.332 581.537 657.102C587.988 654.713 590.138 659.969 591.97 664.827C596.191 675.897 600.412 686.967 605.508 700.346Z" fill="#86868B"/>
<path d="M546.404 352.637C569.261 365.619 591.003 378.042 605.657 399.466C608.683 403.846 613.621 410.217 609.081 414.518C605.099 418.261 598.25 414.677 593.312 411.81C576.19 401.775 565.279 385.767 554.926 369.601C551.661 364.742 547.758 360.123 546.404 352.637Z" fill="#86868B"/>
<path d="M0 352C22.7771 364.742 43.1649 376.688 57.978 395.802C62.1193 401.138 68.7294 408.783 63.951 414.04C59.2522 419.216 50.6511 414.04 45.3152 409.819C26.0423 394.926 11.7071 376.051 0 352Z" fill="#86868B"/>
<path d="M100.748 358.77C100.748 377.724 100.748 393.811 100.748 409.899C100.748 410.536 100.987 411.412 100.668 411.81C94.4563 419.933 85.8552 414.04 78.4487 415.473C74.7852 416.19 71.1218 415.951 71.3607 410.297C71.6793 402.413 71.52 394.449 71.52 386.564C71.52 384.095 72.4757 382.184 74.387 380.591C82.4307 373.981 90.4743 367.291 100.748 358.77Z" fill="#86868B"/>
<path d="M646.12 360.203C646.12 377.644 646.041 393.811 646.2 409.898C646.28 414.199 644.687 416.031 640.466 415.632C639.51 415.553 638.475 415.712 637.519 415.632C630.75 414.916 620.317 418.898 618.008 413.641C614.185 404.642 615.14 393.333 617.689 383.537C618.884 378.998 625.255 375.733 629.635 372.229C634.493 368.406 638.555 363.468 646.12 360.203Z" fill="#86868B"/>
<path d="M687.61 380.671C681.557 394.289 673.991 404.961 662.842 412.527C659.736 414.597 655.196 417.863 652.09 414.518C649.303 411.571 652.807 407.509 654.957 404.881C663.32 394.209 673.514 385.768 687.61 380.671Z" fill="#86868B"/>
<path d="M143.592 378.839C136.185 391.024 131.725 401.696 122.407 409.023C120.098 410.855 117.709 412.686 115.08 413.961C112.532 415.315 109.107 417.067 106.798 414.518C104.409 411.89 107.116 408.864 108.55 406.474C116.355 394.051 128.938 387.44 143.592 378.839Z" fill="#86868B"/>
</svg>
