<svg width="1080" height="1080" viewBox="0 0 1080 1080" fill="none" xmlns="http://www.w3.org/2000/svg">
<g clip-path="url(#clip0)">
<g clip-path="url(#clip1)">
<path d="M452.289 432.163H461.911L488.83 494.656H476.124L470.295 480.354H443.197L437.546 494.656H425.103L452.289 432.163ZM466.413 470.821L456.786 445.4L446.995 470.821H466.413Z" fill="#86868B"/>
<path d="M483.094 432.163H495.89L512.928 479.387L530.492 432.163H542.494L517.251 494.656H507.633L483.094 432.163Z" fill="#86868B"/>
<path d="M564.577 432.163H574.199L601.118 494.656H588.39L582.561 480.354H555.464L549.813 494.656H537.37L564.577 432.163ZM578.717 470.821L569.095 445.4L559.299 470.821H578.717Z" fill="#86868B"/>
<path d="M608.101 432.163H622.839L653.118 478.594H653.296V432.163H664.416V494.656H650.293L619.398 446.715H619.22V494.656H608.101V432.163Z" fill="#86868B"/>
<path d="M691.174 442.239H672.019V432.163H721.453V442.239H702.294V494.656H691.174V442.239Z" fill="#86868B"/>
<path d="M728.789 432.163H739.934V494.656H728.81L728.789 432.163Z" fill="#86868B"/>
<path d="M753.599 432.163H764.718V458.641H765.249L791.128 432.163H806.117L776.899 461.013L808.06 494.643H792.431L765.338 463.923H764.718V494.643H753.599V432.163Z" fill="#86868B"/>
<path d="M834.288 432.163H843.91L870.829 494.656H858.101L852.276 480.354H825.208L819.562 494.656H807.114L834.288 432.163ZM848.411 470.821L838.785 445.4L828.989 470.821H848.411Z" fill="#86868B"/>
<path d="M432.065 511.621H456.672C473.09 511.621 488.448 521.685 488.448 542.864C488.448 564.229 470.354 574.114 455.357 574.114H432.057L432.065 511.621ZM451.483 564.051C465.428 564.051 476.815 558.052 476.815 542.864C476.815 527.675 466.926 521.685 453.337 521.685H443.185V564.051H451.483Z" fill="#86868B"/>
<path d="M499.072 511.621H540.47V521.685H510.191V537.043H538.88V547.106H510.191V564.051H542.057V574.114H499.072V511.621Z" fill="#86868B"/>
<path d="M583.642 525.037C581.258 521.685 577.02 520.094 572.697 520.094C567.576 520.094 562.455 522.389 562.455 528.125C562.455 540.662 592.115 533.513 592.115 555.753C592.115 569.172 581.508 575.693 569.252 575.693C561.484 575.693 553.894 573.313 548.773 567.208L557.156 559.087C558.516 561.114 560.357 562.772 562.514 563.912C564.672 565.052 567.079 565.64 569.519 565.621C574.635 565.621 580.465 562.795 580.465 557.055C580.465 543.373 550.801 551.235 550.801 528.902C550.801 516.013 562.281 510.01 573.842 510.01C580.376 510.01 586.905 511.864 591.763 516.454L583.642 525.037Z" fill="#86868B"/>
<path d="M603.421 511.621H614.545V574.114H603.421V511.621Z" fill="#86868B"/>
<path d="M683.75 569.515C676.16 573.575 667.509 575.692 657.87 575.692C638.63 575.692 624.859 562.629 624.859 543.122C624.859 523.085 638.63 510.03 657.87 510.03C667.407 510.03 675.965 512.063 682.498 517.883L674.293 526.186C670.314 522.3 664.225 520.094 657.959 520.094C645.075 520.094 636.509 529.979 636.509 542.426C636.509 555.752 645.075 565.642 657.959 565.642C663.61 565.642 668.727 564.581 672.613 562.375V547.636H659.813V537.573H683.733L683.75 569.515Z" fill="#86868B"/>
<path d="M696.918 511.621H711.657L741.931 558.06H742.11V511.621H753.229V574.114H739.106L708.216 526.173H708.038V574.114H696.918V511.621Z" fill="#86868B"/>
<path d="M767.192 511.621H808.591V521.685H778.312V537.043H807V547.106H778.312V564.051H810.178V574.114H767.192V511.621Z" fill="#86868B"/>
<path d="M821.135 511.621H862.543V521.685H832.264V537.043H860.952V547.106H832.264V564.051H864.129V574.114H821.135V511.621Z" fill="#86868B"/>
<path d="M875.08 511.621H896.793C908.795 511.621 920.097 515.503 920.097 529.538C920.097 538.54 914.888 545.163 905.622 546.482L922.214 574.114H908.787L894.311 547.636H886.191V574.114H875.071L875.08 511.621ZM894.854 538.12C901.116 538.12 908.43 537.594 908.43 529.474C908.43 522.058 901.545 521.171 895.809 521.171H886.187V538.142L894.854 538.12Z" fill="#86868B"/>
<path d="M930.424 511.621H941.552V574.114H930.424V511.621Z" fill="#86868B"/>
<path d="M955.243 511.621H969.981L1000.26 558.06H1000.44V511.621H1011.56V574.114H997.456L966.566 526.173H966.384V574.114H955.243V511.621Z" fill="#86868B"/>
<path d="M1081.03 569.515C1073.44 573.575 1064.79 575.692 1055.15 575.692C1035.91 575.692 1022.14 562.629 1022.14 543.122C1022.14 523.085 1035.91 510.03 1055.15 510.03C1064.69 510.03 1073.25 512.063 1079.78 517.883L1071.57 526.186C1067.6 522.3 1061.51 520.094 1055.24 520.094C1042.35 520.094 1033.79 529.979 1033.79 542.426C1033.79 555.752 1042.35 565.642 1055.24 565.642C1060.89 565.642 1066.01 564.581 1069.9 562.375V547.636H1057.09V537.573H1081.03V569.515Z" fill="#86868B"/>
<path d="M462.692 604.495C460.308 601.144 456.069 599.553 451.746 599.553C446.63 599.553 441.505 601.848 441.505 607.584C441.505 620.121 471.164 612.972 471.164 635.216C471.164 648.63 460.558 655.155 448.301 655.155C440.538 655.155 432.948 652.775 427.827 646.67L436.21 638.55C437.569 640.576 439.409 642.234 441.566 643.374C443.723 644.515 446.129 645.102 448.569 645.084C453.689 645.084 459.514 642.258 459.514 636.518C459.514 622.836 429.855 630.697 429.855 608.364C429.855 595.476 441.331 589.472 452.892 589.472C459.425 589.472 465.959 591.326 470.812 595.917L462.692 604.495Z" fill="#86868B"/>
<path d="M482.738 591.08H524.133V601.143H493.866V616.501H522.554V626.564H493.866V643.509H525.728V653.572H482.738V591.08Z" fill="#86868B"/>
<path d="M536.681 591.08H558.395C570.397 591.08 581.695 594.962 581.695 608.996C581.695 617.999 576.489 624.621 567.219 625.941L583.807 653.572H570.388L555.913 627.095H547.793V653.572H536.673L536.681 591.08ZM556.452 617.558C562.718 617.558 570.028 617.031 570.028 608.911C570.028 601.495 563.142 600.609 557.402 600.609H547.784V617.579L556.452 617.558Z" fill="#86868B"/>
<path d="M592.034 591.08H603.158V653.572H592.034V591.08Z" fill="#86868B"/>
<path d="M616.845 591.08H658.239V601.143H627.965V616.501H656.653V626.564H627.965V643.509H659.83V653.572H616.845V591.08Z" fill="#86868B"/>
<path d="M701.415 604.495C699.031 601.144 694.793 599.553 690.47 599.553C685.353 599.553 680.228 601.848 680.228 607.584C680.228 620.121 709.888 612.972 709.888 635.216C709.888 648.63 699.282 655.155 687.025 655.155C679.261 655.155 671.671 652.775 666.55 646.67L674.934 638.55C676.292 640.576 678.133 642.234 680.289 643.374C682.446 644.515 684.852 645.102 687.292 645.084C692.413 645.084 698.238 642.258 698.238 636.518C698.238 622.836 668.578 630.697 668.578 608.364C668.578 595.476 680.033 589.472 691.615 589.472C698.149 589.472 704.682 591.326 709.536 595.917L701.415 604.495Z" fill="#86868B"/>
<path d="M722.297 612.263H715.594L721.504 591.08H729.535L722.297 612.263Z" fill="#86868B"/>
<path d="M739.255 645.101L762.826 622.149C768.736 616.413 771.651 613.057 771.651 606.969C771.651 600.436 766.53 596.363 760.264 596.363C753.997 596.363 749.581 600.334 748.436 606.337L740.4 605.633C742.097 595.391 749.937 590.012 760.001 590.012C770.327 590.012 779.062 595.832 779.062 606.956C779.062 616.931 773.148 622.488 766.886 628.402L747.638 646.501V646.675H779.504V653.561H739.255V645.101Z" fill="#86868B"/>
<path d="M808.463 590.024C825.679 590.024 829.65 608.114 829.65 622.322C829.65 636.53 825.679 654.629 808.463 654.629C791.247 654.629 787.28 636.547 787.28 622.322C787.28 608.097 791.268 590.024 808.463 590.024ZM808.463 648.274C820.826 648.274 822.234 631.507 822.234 622.322C822.234 613.137 820.826 596.375 808.463 596.375C796.1 596.375 794.692 613.146 794.692 622.322C794.692 631.499 796.109 648.274 808.463 648.274V648.274Z" fill="#86868B"/>
<path d="M197.232 555.595C188.308 555.595 181.379 558.258 176.443 563.584C171.508 568.91 169.041 575.878 169.044 584.487C169.044 593.097 171.511 600.063 176.443 605.386C181.376 610.709 188.305 613.372 197.232 613.375C206.166 613.375 213.096 610.712 218.02 605.386C222.944 600.06 225.409 593.094 225.415 584.487C225.415 575.875 222.95 568.907 218.02 563.584C213.09 558.261 206.161 555.598 197.232 555.595Z" fill="#86868B"/>
<path d="M77.2485 591.886C73.3492 592.102 69.4881 592.77 65.7428 593.876C62.3015 594.847 59.1018 596.527 56.3498 598.81C53.7646 601.008 52.4735 604.061 52.4763 607.97C52.4763 612.195 54.2766 615.326 57.8771 617.363C61.3002 619.352 65.1863 620.405 69.1453 620.417C72.5215 620.425 75.8815 619.95 79.1237 619.009C82.1754 618.139 85.0695 616.79 87.6979 615.012C90.1812 613.319 92.2341 611.069 93.6926 608.441C95.1747 605.776 95.9157 602.644 95.9157 599.043V591.53H87.2185C84.5627 591.53 81.2394 591.649 77.2485 591.886Z" fill="#86868B"/>
<path d="M257.832 360.229V641.531H225.415V626.504H224.944C223.333 628.769 221.484 630.856 219.429 632.728C217 634.951 214.319 636.882 211.44 638.48C208.245 640.266 204.861 641.688 201.351 642.723C197.652 643.817 193.813 644.37 189.956 644.365C181.504 644.365 173.831 642.917 166.936 640.02C160.231 637.251 154.19 633.089 149.214 627.81C144.188 622.427 140.312 616.075 137.823 609.143C135.153 601.948 133.821 594.043 133.827 585.427C133.791 577.643 135.024 569.906 137.475 562.518C139.755 555.506 143.249 548.949 147.797 543.146C152.22 537.532 157.785 532.92 164.123 529.617C170.538 526.248 177.818 524.565 185.963 524.568C192.959 524.501 199.912 525.65 206.514 527.962C212.773 530.17 218.216 534.221 222.127 539.583H222.598V339.759L190.176 320.947L0.458195 430.002L0 648.832L189.277 758.629L379.003 649.596L379.453 430.766L257.832 360.229ZM128.32 641.531H95.9154V627.195H95.4572C91.7582 633.111 86.2916 637.712 79.8319 640.347C73.3093 643.011 66.3265 644.366 59.2811 644.335C54.0745 644.352 48.8938 643.602 43.9061 642.108C39.1733 640.727 34.7461 638.46 30.8603 635.426C27.1075 632.457 24.0639 628.689 21.9509 624.395C19.7561 620.011 18.6601 614.92 18.6629 609.122C18.6629 602.549 19.8749 596.991 22.2988 592.449C24.6693 587.978 28.0478 584.12 32.167 581.181C36.4927 578.117 41.2868 575.776 46.3625 574.248C51.7695 572.587 57.3032 571.371 62.9084 570.612C68.592 569.833 74.3137 569.363 80.0483 569.204C85.7531 569.051 91.0351 568.973 95.8942 568.971C95.8942 562.709 93.6655 557.736 89.208 554.054C84.7505 550.371 79.4671 548.533 73.3578 548.539C67.8567 548.472 62.4193 549.721 57.4992 552.183C52.6454 554.676 48.3046 558.061 44.7037 562.161L25.9135 542.9C32.5434 536.764 40.3851 532.084 48.9335 529.163C57.6912 526.113 66.9014 524.565 76.1749 524.585C86.5012 524.585 94.9948 525.875 101.656 528.454C108.316 531.034 113.639 534.832 117.625 539.85C121.607 544.864 124.383 551.009 125.953 558.284C127.522 565.558 128.309 573.973 128.311 583.527L128.32 641.531ZM355.983 624.985C352.823 629.716 348.612 633.654 343.68 636.491C338.431 639.475 332.71 641.539 326.765 642.596C320.649 643.759 314.438 644.348 308.212 644.356C300.034 644.334 291.898 643.192 284.03 640.962C275.887 638.7 269 634.669 263.369 628.871L284.709 605.134C287.998 609.201 291.638 612.293 295.629 614.408C299.62 616.524 304.278 617.582 309.604 617.582C313.355 617.633 317.087 617.035 320.634 615.817C323.927 614.635 325.574 612.488 325.577 609.377C325.577 606.404 324.13 604.174 321.237 602.686C318.331 601.197 314.657 599.945 310.206 598.927C305.756 597.909 300.975 596.806 295.888 595.635C290.905 594.504 286.09 592.73 281.565 590.357C277.108 588.008 273.315 584.575 270.534 580.375C267.641 576.073 266.193 570.32 266.19 563.116C266.19 556.384 267.559 550.586 270.297 545.722C272.951 540.967 276.647 536.874 281.107 533.749C285.767 530.522 290.977 528.172 296.482 526.817C302.235 525.337 308.152 524.589 314.092 524.589C321.804 524.618 329.474 525.725 336.879 527.877C344.336 529.932 351.086 533.992 356.395 539.616L334.788 560.986C329.612 554.571 322.798 551.361 314.347 551.356C311.326 551.371 308.351 552.098 305.663 553.477C302.834 554.891 301.427 557.318 301.441 560.757C301.441 563.585 302.889 565.66 305.786 566.981C309.334 568.525 313.03 569.706 316.816 570.506C321.282 571.519 326.055 572.615 331.135 573.794C336.152 574.939 340.98 576.796 345.47 579.31C349.9 581.797 353.68 585.296 356.501 589.522C359.394 593.829 360.842 599.583 360.845 606.784C360.814 614.141 359.194 620.205 355.983 624.976V624.985Z" fill="#86868B"/>
</g>
</g>
<defs>
<clipPath id="clip0">
<rect width="1080" height="1080" fill="white"/>
</clipPath>
<clipPath id="clip1">
<rect width="1081" height="437.83" fill="white" transform="translate(0 321)"/>
</clipPath>
</defs>
</svg>
