<svg width="508" height="230" viewBox="0 0 508 230" fill="none" xmlns="http://www.w3.org/2000/svg">
<path d="M55.0956 18.3657L55.0957 26.7369L26.7355 26.7368L26.7349 55.0964L18.3643 55.097L18.3643 18.3656L55.0956 18.3657Z" fill="#FA620E"/>
<path d="M452.037 211.635L452.037 203.264L480.397 203.264L480.398 174.904L488.768 174.904L488.768 211.635L452.037 211.635Z" fill="#FA620E"/>
<path d="M104.314 72.255C104.408 71.4164 104.501 70.2983 104.501 68.8075C104.501 61.0739 102.358 54.9243 98.0716 50.1724C93.7856 45.4204 87.8223 43.091 80.2751 43.091C73.1006 43.091 67.1374 45.6068 62.3854 50.6383C57.6335 55.6697 55.2109 61.7261 55.2109 68.9006C55.2109 76.2615 57.7267 82.5043 62.665 87.4426C67.6964 92.3809 73.9392 94.8034 81.3001 94.8034C90.2449 94.8034 98.3512 90.5173 102.544 82.7838L94.531 77.4728C91.8289 82.5974 87.3565 85.2063 81.1137 85.2063C77.2935 85.2063 73.9392 83.9951 71.0508 81.5725C68.1623 79.0568 66.6715 75.982 66.5783 72.255H104.314ZM80.2751 52.5949C87.3565 52.5949 92.8538 56.881 93.2265 63.8692H67.1374C68.1623 57.0674 73.4733 52.5949 80.2751 52.5949Z" fill="black"/>
<path d="M156.822 93.8717V66.1054C156.822 58.5582 161.015 53.5267 167.817 53.5267C175.178 53.5267 178.439 58.2786 178.439 65.8259V93.8717H189.527V63.1238C189.527 51.1973 183.471 42.9979 171.451 42.9979C164.09 42.9979 159.245 45.6068 154.12 51.1973C151.045 45.7 145.921 42.9979 138.746 42.9979C132.783 42.9979 127.845 45.6068 123.931 50.8246V44.116H113.123V93.8717H124.211V66.1986C124.211 58.6513 128.404 53.5267 135.112 53.5267C142.473 53.5267 145.828 58.465 145.828 65.919V93.8717H156.822Z" fill="black"/>
<path d="M252.974 68.8075C252.974 62.192 250.737 56.2288 246.172 51.011C241.699 45.7931 235.829 43.1842 228.562 43.1842C225.673 43.1842 222.598 43.9296 219.337 45.4204C216.076 46.8181 213.747 48.8679 212.163 51.4768V18.0269H201.075V93.8717H211.883V86.2313C213.467 88.8402 215.89 90.89 219.151 92.3809C222.412 93.8717 225.487 94.6171 228.282 94.6171C235.457 94.6171 241.327 92.1013 245.985 86.9767C250.644 81.852 252.974 75.7956 252.974 68.8075ZM216.076 57.7196C218.871 54.6448 222.505 53.154 226.884 53.154C231.264 53.154 234.897 54.6448 237.6 57.7196C240.395 60.7944 241.792 64.5214 241.792 68.9006C241.792 73.2799 240.395 77.0069 237.6 80.0817C234.897 83.0633 231.264 84.5541 226.884 84.5541C222.505 84.5541 218.871 83.0633 216.076 80.0817C213.374 77.0069 211.976 73.2799 211.976 68.9006C211.976 64.5214 213.374 60.7944 216.076 57.7196Z" fill="black"/>
<path d="M307.478 72.255C307.571 71.4164 307.665 70.2983 307.665 68.8075C307.665 61.0739 305.521 54.9243 301.235 50.1724C296.949 45.4204 290.986 43.091 283.439 43.091C276.264 43.091 270.301 45.6068 265.549 50.6383C260.797 55.6697 258.375 61.7261 258.375 68.9006C258.375 76.2615 260.89 82.5043 265.829 87.4426C270.86 92.3809 277.103 94.8034 284.464 94.8034C293.409 94.8034 301.515 90.5173 305.708 82.7838L297.695 77.4728C294.993 82.5974 290.52 85.2063 284.277 85.2063C280.457 85.2063 277.103 83.9951 274.215 81.5725C271.326 79.0568 269.835 75.982 269.742 72.255H307.478ZM283.439 52.5949C290.52 52.5949 296.018 56.881 296.39 63.8692H270.301C271.326 57.0674 276.637 52.5949 283.439 52.5949Z" fill="black"/>
<path d="M312.839 68.9006C312.839 75.7956 315.169 81.852 319.827 86.9767C324.486 92.1013 330.356 94.6171 337.344 94.6171C339.953 94.6171 342.935 93.9648 346.289 92.5672C349.737 91.1696 352.253 89.0265 354.023 86.1381V93.8717H364.831V18.0269H353.743V51.1973C352.066 48.4952 349.644 46.5385 346.383 45.2341C343.215 43.8365 340.326 43.1842 337.624 43.1842C330.263 43.1842 324.207 45.7931 319.641 51.011C315.076 56.2288 312.839 62.192 312.839 68.9006ZM339.022 53.154C343.401 53.154 346.942 54.6448 349.737 57.7196C352.532 60.7944 353.93 64.5214 353.93 68.9006C353.93 73.2799 352.532 77.0069 349.737 80.0817C347.035 83.0633 343.401 84.5541 339.022 84.5541C334.642 84.5541 331.009 83.0633 328.213 80.0817C325.511 77.0069 324.114 73.2799 324.114 68.9006C324.114 64.5214 325.511 60.7944 328.213 57.7196C331.009 54.6448 334.642 53.154 339.022 53.154Z" fill="black"/>
<path d="M207.195 161.944C207.195 168.932 209.431 174.895 213.904 179.927C218.376 184.958 224.153 187.474 231.234 187.474C236.732 187.474 241.577 185.983 245.583 182.908C249.59 179.834 252.385 175.92 253.783 171.168V186.729H255.739V110.884H253.783V152.347C252.385 147.595 249.59 143.682 245.583 140.607C241.577 137.532 236.732 136.041 231.234 136.041C224.246 136.041 218.469 138.557 213.904 143.682C209.431 148.806 207.195 154.863 207.195 161.944ZM209.245 161.851C209.245 155.235 211.295 149.552 215.394 144.893C219.587 140.234 224.898 137.905 231.421 137.905C237.943 137.905 243.347 140.327 247.54 145.079C251.826 149.831 253.969 155.422 253.969 161.664V161.944C253.969 168.28 251.826 173.777 247.54 178.529C243.347 183.281 237.943 185.611 231.421 185.611C224.898 185.611 219.587 183.374 215.394 178.809C211.295 174.243 209.245 168.559 209.245 161.944V161.851Z" fill="black"/>
<path d="M307.119 161.664C307.025 152.347 304.417 144.707 297.335 139.861C293.795 137.346 289.415 136.134 284.291 136.134C277.675 136.134 272.085 138.65 267.426 143.775C262.86 148.806 260.531 154.769 260.531 161.571V161.758C260.531 168.932 262.86 174.989 267.519 180.02C272.271 185.051 278.141 187.567 285.222 187.567C293.888 187.567 301.621 183.095 305.628 176.013L303.951 174.989C300.596 181.324 293.515 185.704 285.316 185.704C278.793 185.704 273.389 183.374 269.01 178.716C264.724 173.964 262.581 168.373 262.581 161.758V161.664H307.119ZM284.291 137.998C299.106 137.998 304.603 149.365 305.069 159.894H262.581C262.86 153.931 265.19 148.806 269.383 144.52C273.669 140.141 278.607 137.998 284.291 137.998Z" fill="black"/>
<path d="M325.567 187.567C329.853 187.567 333.673 186.356 337.027 183.84C340.475 181.324 342.152 178.063 342.152 174.15C342.152 166.23 336.934 162.969 325.287 160.453C320.07 159.335 316.436 158.031 314.293 156.54C312.15 154.956 311.125 152.533 311.125 149.179C311.125 145.918 312.615 143.309 315.597 141.166C318.579 139.023 321.747 137.905 325.194 137.905C332.182 137.905 337.121 141.166 340.102 147.595L341.779 146.663C338.612 139.675 333.114 136.134 325.381 136.134C321.374 136.134 317.647 137.346 314.199 139.861C310.752 142.284 309.075 145.452 309.075 149.272C309.075 153.092 310.286 155.981 312.616 157.751C315.038 159.521 319.045 161.012 324.635 162.223C330.132 163.435 334.046 164.832 336.468 166.51C338.891 168.094 340.102 170.702 340.102 174.243C340.102 177.504 338.611 180.206 335.63 182.443C332.741 184.586 329.387 185.704 325.66 185.704C317.833 185.704 312.802 182.443 309.075 174.989L307.398 175.827C311.125 183.654 317.181 187.567 325.567 187.567Z" fill="black"/>
<path d="M345.417 119.735C345.417 123.183 350.542 123.183 350.542 119.735C350.728 116.381 345.324 116.381 345.417 119.735ZM347.001 136.973V186.729H348.958V136.973H347.001Z" fill="black"/>
<path d="M400.256 136.973V152.347C398.859 147.595 396.063 143.682 392.057 140.607C388.05 137.532 383.205 136.041 377.708 136.041C370.72 136.041 364.943 138.557 360.377 143.682C355.905 148.806 353.669 154.863 353.669 161.944C353.669 168.932 355.905 174.895 360.377 179.927C364.85 184.958 370.626 187.474 377.708 187.474C383.205 187.474 388.05 185.983 392.057 182.908C396.063 179.834 398.859 175.92 400.256 171.168V186.263C400.256 201.637 391.591 209.743 377.708 209.743C366.899 209.743 360.284 205.177 355.532 195.487L353.855 196.419C358.607 206.482 365.875 211.606 377.801 211.606C384.976 211.606 390.752 209.463 395.318 205.177C399.884 200.891 402.213 194.555 402.213 186.076V136.973H400.256ZM400.443 161.944C400.443 168.28 398.3 173.777 394.014 178.529C389.821 183.281 384.416 185.611 377.894 185.611C371.372 185.611 366.061 183.374 361.868 178.809C357.768 174.243 355.718 168.559 355.718 161.944V161.851C355.718 155.235 357.768 149.552 361.868 144.893C366.061 140.234 371.372 137.905 377.894 137.905C384.416 137.905 389.821 140.327 394.014 145.079C398.3 149.831 400.443 155.422 400.443 161.664V161.944Z" fill="black"/>
<path d="M410.825 136.973V186.729H412.781V158.496C412.781 152.813 414.645 147.968 418.372 144.054C422.192 140.048 426.664 138.091 431.882 138.091C443.343 138.091 450.145 145.545 450.145 157.844V186.729H452.101V157.658C452.101 144.241 444.647 136.134 432.069 136.134C426.944 136.134 422.751 137.625 419.304 140.607C415.949 143.495 413.806 146.85 412.781 150.483V136.973H410.825Z" fill="black"/>
</svg>
