<svg width="508" height="230" viewBox="0 0 508 230" fill="none" xmlns="http://www.w3.org/2000/svg">
<path d="M55.0969 18.3657L55.0969 26.7369L26.7367 26.7368L26.7361 55.0964L18.3655 55.097L18.3655 18.3656L55.0969 18.3657Z" fill="#FA620E"/>
<path d="M452.039 211.635L452.039 203.264L480.399 203.264L480.4 174.904L488.77 174.904L488.77 211.635L452.039 211.635Z" fill="#FA620E"/>
<path d="M104.313 72.255C104.406 71.4164 104.5 70.2983 104.5 68.8075C104.5 61.0739 102.356 54.9243 98.0704 50.1724C93.7843 45.4204 87.8211 43.091 80.2739 43.091C73.0994 43.091 67.1362 45.6068 62.3842 50.6383C57.6323 55.6697 55.2097 61.7261 55.2097 68.9006C55.2097 76.2615 57.7255 82.5043 62.6638 87.4426C67.6952 92.3809 73.938 94.8034 81.2988 94.8034C90.2437 94.8034 98.3499 90.5173 102.543 82.7838L94.5298 77.4728C91.8277 82.5974 87.3552 85.2063 81.1125 85.2063C77.2923 85.2063 73.938 83.9951 71.0495 81.5725C68.1611 79.0568 66.6703 75.982 66.5771 72.255H104.313ZM80.2739 52.5949C87.3552 52.5949 92.8526 56.881 93.2253 63.8692H67.1362C68.1611 57.0674 73.4721 52.5949 80.2739 52.5949Z" fill="white"/>
<path d="M156.821 93.8717V66.1054C156.821 58.5582 161.014 53.5267 167.816 53.5267C175.177 53.5267 178.438 58.2786 178.438 65.8259V93.8717H189.526V63.1238C189.526 51.1973 183.469 42.9979 171.45 42.9979C164.089 42.9979 159.244 45.6068 154.119 51.1973C151.044 45.7 145.92 42.9979 138.745 42.9979C132.782 42.9979 127.844 45.6068 123.93 50.8246V44.116H113.122V93.8717H124.21V66.1986C124.21 58.6513 128.403 53.5267 135.111 53.5267C142.472 53.5267 145.826 58.465 145.826 65.919V93.8717H156.821Z" fill="white"/>
<path d="M252.972 68.8075C252.972 62.192 250.736 56.2288 246.17 51.011C241.698 45.7931 235.828 43.1842 228.56 43.1842C225.672 43.1842 222.597 43.9296 219.336 45.4204C216.075 46.8181 213.745 48.8679 212.161 51.4768V18.0269H201.074V93.8717H211.882V86.2313C213.466 88.8402 215.888 90.89 219.15 92.3809C222.411 93.8717 225.486 94.6171 228.281 94.6171C235.455 94.6171 241.325 92.1013 245.984 86.9767C250.643 81.852 252.972 75.7956 252.972 68.8075ZM216.075 57.7196C218.87 54.6448 222.504 53.154 226.883 53.154C231.262 53.154 234.896 54.6448 237.598 57.7196C240.394 60.7944 241.791 64.5214 241.791 68.9006C241.791 73.2799 240.394 77.0069 237.598 80.0817C234.896 83.0633 231.262 84.5541 226.883 84.5541C222.504 84.5541 218.87 83.0633 216.075 80.0817C213.373 77.0069 211.975 73.2799 211.975 68.9006C211.975 64.5214 213.373 60.7944 216.075 57.7196Z" fill="white"/>
<path d="M307.477 72.255C307.57 71.4164 307.663 70.2983 307.663 68.8075C307.663 61.0739 305.52 54.9243 301.234 50.1724C296.948 45.4204 290.985 43.091 283.438 43.091C276.263 43.091 270.3 45.6068 265.548 50.6383C260.796 55.6697 258.373 61.7261 258.373 68.9006C258.373 76.2615 260.889 82.5043 265.828 87.4426C270.859 92.3809 277.102 94.8034 284.463 94.8034C293.407 94.8034 301.514 90.5173 305.707 82.7838L297.694 77.4728C294.991 82.5974 290.519 85.2063 284.276 85.2063C280.456 85.2063 277.102 83.9951 274.213 81.5725C271.325 79.0568 269.834 75.982 269.741 72.255H307.477ZM283.438 52.5949C290.519 52.5949 296.016 56.881 296.389 63.8692H270.3C271.325 57.0674 276.636 52.5949 283.438 52.5949Z" fill="white"/>
<path d="M312.838 68.9006C312.838 75.7956 315.167 81.852 319.826 86.9767C324.485 92.1013 330.355 94.6171 337.343 94.6171C339.952 94.6171 342.934 93.9648 346.288 92.5672C349.736 91.1696 352.251 89.0265 354.022 86.1381V93.8717H364.83V18.0269H353.742V51.1973C352.065 48.4952 349.642 46.5385 346.381 45.2341C343.213 43.8365 340.325 43.1842 337.623 43.1842C330.262 43.1842 324.206 45.7931 319.64 51.011C315.074 56.2288 312.838 62.192 312.838 68.9006ZM339.02 53.154C343.4 53.154 346.94 54.6448 349.736 57.7196C352.531 60.7944 353.928 64.5214 353.928 68.9006C353.928 73.2799 352.531 77.0069 349.736 80.0817C347.033 83.0633 343.4 84.5541 339.02 84.5541C334.641 84.5541 331.007 83.0633 328.212 80.0817C325.51 77.0069 324.112 73.2799 324.112 68.9006C324.112 64.5214 325.51 60.7944 328.212 57.7196C331.007 54.6448 334.641 53.154 339.02 53.154Z" fill="white"/>
<path d="M207.194 161.944C207.194 168.932 209.43 174.895 213.902 179.927C218.375 184.958 224.152 187.474 231.233 187.474C236.73 187.474 241.575 185.983 245.582 182.908C249.589 179.834 252.384 175.92 253.781 171.168V186.729H255.738V110.884H253.781V152.347C252.384 147.595 249.589 143.682 245.582 140.607C241.575 137.532 236.73 136.041 231.233 136.041C224.245 136.041 218.468 138.557 213.902 143.682C209.43 148.806 207.194 154.863 207.194 161.944ZM209.244 161.851C209.244 155.235 211.293 149.552 215.393 144.893C219.586 140.234 224.897 137.905 231.419 137.905C237.942 137.905 243.346 140.327 247.539 145.079C251.825 149.831 253.968 155.422 253.968 161.664V161.944C253.968 168.28 251.825 173.777 247.539 178.529C243.346 183.281 237.942 185.611 231.419 185.611C224.897 185.611 219.586 183.374 215.393 178.809C211.293 174.243 209.244 168.559 209.244 161.944V161.851Z" fill="white"/>
<path d="M307.117 161.664C307.024 152.347 304.415 144.707 297.334 139.861C293.793 137.346 289.414 136.134 284.289 136.134C277.674 136.134 272.083 138.65 267.425 143.775C262.859 148.806 260.53 154.769 260.53 161.571V161.758C260.53 168.932 262.859 174.989 267.518 180.02C272.27 185.051 278.14 187.567 285.221 187.567C293.886 187.567 301.62 183.095 305.627 176.013L303.949 174.989C300.595 181.324 293.514 185.704 285.314 185.704C278.792 185.704 273.388 183.374 269.009 178.716C264.723 173.964 262.58 168.373 262.58 161.758V161.664H307.117ZM284.289 137.998C299.104 137.998 304.602 149.365 305.068 159.894H262.58C262.859 153.931 265.188 148.806 269.381 144.52C273.667 140.141 278.606 137.998 284.289 137.998Z" fill="white"/>
<path d="M325.566 187.567C329.852 187.567 333.672 186.356 337.026 183.84C340.474 181.324 342.151 178.063 342.151 174.15C342.151 166.23 336.933 162.969 325.286 160.453C320.068 159.335 316.434 158.031 314.291 156.54C312.148 154.956 311.123 152.533 311.123 149.179C311.123 145.918 312.614 143.309 315.596 141.166C318.578 139.023 321.746 137.905 325.193 137.905C332.181 137.905 337.119 141.166 340.101 147.595L341.778 146.663C338.61 139.675 333.113 136.134 325.379 136.134C321.373 136.134 317.646 137.346 314.198 139.861C310.751 142.284 309.074 145.452 309.074 149.272C309.074 153.092 310.285 155.981 312.614 157.751C315.037 159.521 319.043 161.012 324.634 162.223C330.131 163.435 334.045 164.832 336.467 166.51C338.89 168.094 340.101 170.702 340.101 174.243C340.101 177.504 338.61 180.206 335.629 182.443C332.74 184.586 329.386 185.704 325.659 185.704C317.832 185.704 312.801 182.443 309.074 174.989L307.396 175.827C311.124 183.654 317.18 187.567 325.566 187.567Z" fill="white"/>
<path d="M345.416 119.735C345.416 123.183 350.541 123.183 350.541 119.735C350.727 116.381 345.323 116.381 345.416 119.735ZM347 136.973V186.729H348.957V136.973H347Z" fill="white"/>
<path d="M400.255 136.973V152.347C398.857 147.595 396.062 143.682 392.056 140.607C388.049 137.532 383.204 136.041 377.707 136.041C370.718 136.041 364.942 138.557 360.376 143.682C355.904 148.806 353.667 154.863 353.667 161.944C353.667 168.932 355.904 174.895 360.376 179.927C364.848 184.958 370.625 187.474 377.707 187.474C383.204 187.474 388.049 185.983 392.056 182.908C396.062 179.834 398.857 175.92 400.255 171.168V186.263C400.255 201.637 391.59 209.743 377.707 209.743C366.898 209.743 360.283 205.177 355.531 195.487L353.854 196.419C358.606 206.482 365.873 211.606 377.8 211.606C384.974 211.606 390.751 209.463 395.317 205.177C399.882 200.891 402.212 194.555 402.212 186.076V136.973H400.255ZM400.441 161.944C400.441 168.28 398.298 173.777 394.012 178.529C389.819 183.281 384.415 185.611 377.893 185.611C371.371 185.611 366.06 183.374 361.867 178.809C357.767 174.243 355.717 168.559 355.717 161.944V161.851C355.717 155.235 357.767 149.552 361.867 144.893C366.06 140.234 371.371 137.905 377.893 137.905C384.415 137.905 389.819 140.327 394.012 145.079C398.298 149.831 400.441 155.422 400.441 161.664V161.944Z" fill="white"/>
<path d="M410.823 136.973V186.729H412.78V158.496C412.78 152.813 414.644 147.968 418.371 144.054C422.191 140.048 426.663 138.091 431.881 138.091C443.342 138.091 450.143 145.545 450.143 157.844V186.729H452.1V157.658C452.1 144.241 444.646 136.134 432.068 136.134C426.943 136.134 422.75 137.625 419.302 140.607C415.948 143.495 413.805 146.85 412.78 150.483V136.973H410.823Z" fill="white"/>
</svg>
